<?xml version="1.0" standalone="no"?>
<!DOCTYPE svg PUBLIC "-//W3C//DTD SVG 1.1//EN" "http://www.w3.org/Graphics/SVG/1.1/DTD/svg11.dtd" >
<svg>
<metadata>
Created by FontForge 20090914 at Sat Jul 10 09:07:28 2021
 By www-data
Copyright (c) 2018 ParaType Inc., ParaType Ltd. All rights reserved.
</metadata>
<defs>
<font id="PTRootUI-Medium" horiz-adv-x="590" >
  <font-face 
    font-family="PT Root UI Medium"
    font-weight="500"
    font-stretch="normal"
    units-per-em="1000"
    panose-1="2 11 5 3 2 2 2 2 2 4"
    ascent="772"
    descent="-228"
    x-height="500"
    cap-height="700"
    bbox="-401 -268 1660 991.001"
    underline-thickness="50"
    underline-position="-50"
    unicode-range="U+0020-U+FEFF"
  />
<missing-glyph horiz-adv-x="650" 
d="M75 0v700h500v-700h-500zM369 352l130 -224v446zM281 348l-130 223v-446zM208 628l118 -203l118 203h-236zM323 274l-118 -202h236z" />
    <glyph glyph-name="afii10017.var.accented" unicode="&#x410;`" horiz-adv-x="650" 
d="M533 0l-68 192h-284l-68 -192h-98l255 700h110l255 -700h-102zM272 446l-60 -168h222l-59 168l-51 149zM279 760l112 150h108l-128 -150h-92z" />
    <glyph glyph-name="afii10022.var.accented" unicode="&#x415;`" horiz-adv-x="560" 
d="M80 0v700h435v-86h-341v-211h281v-86h-281v-231h341v-86h-435zM251 760l112 150h108l-128 -150h-92z" />
    <glyph glyph-name="afii10026.var.accented" unicode="&#x418;`" horiz-adv-x="710" 
d="M536 0v593l-52 -103l-276 -490h-128v700h94v-593l52 103l276 490h128v-700h-94zM309 760l112 150h108l-128 -150h-92z" />
    <glyph glyph-name="afii10032.var.accented" unicode="&#x41e;`" horiz-adv-x="710" 
d="M355 -8c-90 0 -162.5 29.333 -217.5 88s-82.5 139 -82.5 241v58c0 101.333 27.667 181.5 83 240.5s127.666 88.5 216.999 88.5c90 0 162.5 -29.333 217.5 -88s82.5 -139 82.5 -241v-58c0 -101.333 -27.667 -181.5 -83 -240.5s-127.666 -88.5 -216.999 -88.5zM355 82
c60.667 0 109.5 20.833 146.5 62.5s55.5 100.5 55.5 176.5v58c0 75.333 -18.667 134 -56 176s-86 63 -146 63c-60.667 0 -109.5 -20.833 -146.5 -62.5s-55.5 -100.5 -55.5 -176.5v-58c0 -75.333 18.667 -134 56 -176s86 -63 146 -63zM309 760l112 150h108l-128 -150h-92z
" />
    <glyph glyph-name="afii10037.var.accented" unicode="&#x423;`" horiz-adv-x="610" 
d="M185 0l86 197l-251 503h106l195 -400l167 400h102l-303 -700h-102zM261 760l112 150h108l-128 -150h-92z" />
    <glyph glyph-name="afii10045.var.accented" unicode="&#x42b;`" horiz-adv-x="830" 
d="M80 0l-0.000976562 699.999h94v-252h125c86.667 0 151.834 -19.667 195.501 -59s65.5 -94.666 65.5 -165.999c0 -148.667 -87 -223 -261 -223h-219zM298.999 361.999h-125v-276h125c58 0 99.833 11.167 125.5 33.5s38.5 56.833 38.5 103.5s-13.167 81.5 -39.5 104.5
s-67.833 34.5 -124.5 34.5zM655.999 -0.000976562v700h94v-700h-94zM368.999 759.999l112 150h108l-128 -150h-92z" />
    <glyph glyph-name="afii10047.var.accented" unicode="&#x42d;`" horiz-adv-x="670" 
d="M235 312l-0.000976562 86.001h282c-2.66699 70.667 -21.667 125 -57 163s-82 57 -140 57c-44 0 -81.167 -11.833 -111.5 -35.5s-50.833 -52.834 -61.5 -87.501h-102c10.667 59.333 40.667 109.666 90 150.999s111 62 185 62c87.333 0 158.333 -29.167 213 -87.5
s82 -137.166 82 -236.499v-58c0 -103.333 -27.167 -184.833 -81.5 -244.5s-125.5 -89.5 -213.5 -89.5c-74.667 0 -136.5 21.833 -185.5 65.5s-78.833 99.5 -89.5 167.5h102c10.667 -43.333 30.834 -78 60.501 -104s67.167 -39 112.5 -39c58.667 0 105.5 19.5 140.5 58.5
s53.833 96.167 56.5 171.5h-282zM273.999 760.001l112 150h108l-128 -150h-92z" />
    <glyph glyph-name="afii10048.var.accented" unicode="&#x42e;`" horiz-adv-x="905" 
d="M568 -8c-85.333 0 -153.166 27.667 -203.499 83s-76.5 136 -78.5 242h-112v-317h-94v700h94v-297h112c2.66699 96.667 29.5 171.667 80.5 225s118.167 80 201.5 80c86 0 154.5 -27.833 205.5 -83.5s76.5 -134.167 76.5 -235.5v-58c0 -110 -25.333 -194 -76 -252
s-119.334 -87 -206.001 -87zM568 82c56.667 0 101.5 20.6689 134.5 62.002s49.5 103.666 49.5 186.999v58c0 74 -16.833 130.667 -50.5 170s-78.167 59 -133.5 59c-56 0 -100.667 -19.667 -134 -59s-50 -96 -50 -170v-58c0 -82.667 16.667 -144.834 50 -186.501
s78 -62.5 134 -62.5zM419 760.002l112 150h108l-128 -150h-92z" />
    <glyph glyph-name="afii10049.var.accented" unicode="&#x42f;`" horiz-adv-x="620" 
d="M30 0l160 290c-93.333 29.333 -140 95 -140 197c0 68 21.5 120.5 64.5 157.5s108.167 55.5 195.5 55.5h230v-700h-94v274h-136c-13.333 0 -23.333 0.333008 -30 1l-146 -275h-104zM148 487c0 -84.667 54 -127 162 -127h136v254h-136c-108 0 -162 -42.333 -162 -127z
M284 760l112 150h108l-128 -150h-92z" />
    <glyph glyph-name="afii10023.var.accented" unicode="&#x401;`" horiz-adv-x="560" 
d="M80 0v700h435v-86h-341v-211h281v-86h-281v-231h341v-86h-435zM162 775c-17.333 0 -31.666 5.83301 -42.999 17.5s-17 25.834 -17 42.501s5.66699 30.834 17 42.501s25.666 17.5 42.999 17.5s31.666 -5.83301 42.999 -17.5s17 -25.834 17 -42.501
s-5.66699 -30.834 -17 -42.501s-25.666 -17.5 -42.999 -17.5zM432 775c-17.333 0 -31.666 5.83301 -42.999 17.5s-17 25.834 -17 42.501s5.66699 30.834 17 42.501s25.666 17.5 42.999 17.5s31.666 -5.83301 42.999 -17.5s17 -25.834 17 -42.501
s-5.66699 -30.834 -17 -42.501s-25.666 -17.5 -42.999 -17.5zM212 760l76 150h94l-90 -150h-80z" />
    <glyph glyph-name="afii10065.var.accented" unicode="&#x430;`" horiz-adv-x="520" 
d="M200 -8c-51.333 0 -90.835 13.001 -118.502 39.001s-41.5 62.333 -41.5 109c0 108.667 73.333 163 220 163h100v37c0 58.667 -33.333 88 -100 88c-61.333 0 -94.666 -22.667 -99.999 -68h-100c2.66699 44.667 20.834 80.5 54.501 107.5s82.167 40.5 145.5 40.5
c61.333 0 108.333 -14.833 141 -44.5s49 -70.834 49 -123.501v-340h-70l-11 82c-38 -60 -94.333 -90 -169 -90zM209.998 72.001c42.667 0 78.333 13.5 107 40.5s43 59.167 43 96.5v18h-100c-84 0 -126 -28.333 -126 -85c0 -21.333 6.66699 -38.333 20 -51s32 -19 56 -19z
M209.997 560.001l116 150h104l-130 -150h-90z" />
    <glyph glyph-name="afii10070.var.accented" unicode="&#x435;`" horiz-adv-x="540" 
d="M270 -8c-67.333 0 -121.669 21.499 -163.002 64.499s-62 101.167 -62 174.5v38c0 72 20.833 129.833 62.5 173.5s95.834 65.5 162.501 65.5c67.333 0 121.666 -21.667 162.999 -65s62 -101.333 62 -174v-48h-356c1.33301 -47.333 13.833 -83.666 37.5 -108.999
s54.834 -38 93.501 -38c37.333 0 65.333 6.5 84 19.5s33.334 33.5 44.001 61.5h92c-22 -108.667 -95.333 -163 -220 -163zM269.997 425.999c-36.667 0 -66.332 -10.833 -88.999 -32.5s-36.334 -53.167 -41.001 -94.5h259c-8 84.667 -51 127 -129 127zM224.999 559.999
l116 150h104l-130 -150h-90z" />
    <glyph glyph-name="afii10074.var.accented" unicode="&#x438;`" horiz-adv-x="580" 
d="M415 0v393l-55 -103l-169 -290h-116v500h90v-393l55 103l169 290h116v-500h-90zM245 560l116 150h104l-130 -150h-90z" />
    <glyph glyph-name="afii10080.var.accented" unicode="&#x43e;`" horiz-adv-x="550" 
d="M275 -8c-70.667 0 -126.667 21.333 -168 64s-62 101 -62 175v38c0 73.333 20.833 131.5 62.5 174.5s97.5 64.5 167.5 64.5c70.667 0 126.667 -21.333 168 -64s62 -101 62 -175v-38c0 -73.333 -20.833 -131.5 -62.5 -174.5s-97.5 -64.5 -167.5 -64.5zM275 78
c42.667 0 76 13 100 39s36 64 36 114v38c0 49.333 -12.167 87.166 -36.5 113.499s-57.5 39.5 -99.5 39.5c-42.667 0 -76 -13 -100 -39s-36 -64 -36 -114v-38c0 -49.333 12.167 -87.166 36.5 -113.499s57.5 -39.5 99.5 -39.5zM230 560l116 150h104l-130 -150h-90z" />
    <glyph glyph-name="afii10085.var.accented" unicode="&#x443;`" horiz-adv-x="520" 
d="M140 -200l77 200l-202 500h98l152 -387l144 387h96l-269 -700h-96zM216 560l116 150h104l-130 -150h-90z" />
    <glyph glyph-name="afii10093.var.accented" unicode="&#x44b;`" horiz-adv-x="710" 
d="M75 0v500h90v-160h95c143.333 0 215 -56.667 215 -170s-71.667 -170 -215 -170h-185zM545 0v500h90v-500h-90zM265 258h-100v-176h100c42 0 72.167 7.33301 90.5 22s27.5 36.667 27.5 66s-9.16699 51.333 -27.5 66s-48.5 22 -90.5 22zM310 560l116 150h104l-130 -150h-90
z" />
    <glyph glyph-name="afii10095.var.accented" unicode="&#x44d;`" horiz-adv-x="505" 
d="M180 214v82.001h185c-4 40.667 -17.5 71.834 -40.5 93.501s-52.833 32.5 -89.5 32.5c-54 0 -90.333 -22.333 -109 -67h-96c10.667 45.333 33.5 82.166 68.5 110.499s80.5 42.5 136.5 42.5c68.667 0 123.334 -20.833 164.001 -62.5s61 -98.834 61 -171.501v-38
c0 -77.333 -20.167 -137.333 -60.5 -180s-95.166 -64 -164.499 -64c-56.667 0 -102.334 14.667 -137.001 44s-57.334 69 -68.001 119h96c16.667 -51.333 53 -77 109 -77c38 0 68.333 11.333 91 34s35.667 56.667 39 102h-185zM190 560.001l116 150h104l-130 -150h-90z" />
    <glyph glyph-name="afii10096.var.accented" unicode="&#x44e;`" horiz-adv-x="740" 
d="M476 -8c-64 0 -115.499 19.332 -154.499 57.999s-59.833 93.334 -62.5 164.001h-94v-214h-90v500h90v-204h95c4.66699 66.667 26.334 118.667 65.001 156s89 56 151 56c67.333 0 120.666 -21 159.999 -63s59 -100.667 59 -176v-38c0 -75.333 -19.833 -134 -59.5 -176
s-92.834 -63 -159.501 -63zM476.001 77.999c38 0 68.3311 13.167 90.998 39.5s34 64.166 34 113.499v38c0 49.333 -11.333 87.166 -34 113.499s-53 39.5 -91 39.5c-37.333 0 -67.166 -13.167 -89.499 -39.5s-33.5 -64.166 -33.5 -113.499v-38
c0 -49.333 11.333 -87.166 34 -113.499s52.334 -39.5 89.001 -39.5zM339.999 559.999l116 150h104l-130 -150h-90z" />
    <glyph glyph-name="afii10097.var.accented" unicode="&#x44f;`" horiz-adv-x="510" 
d="M45 336c0 54 16.833 94.833 50.5 122.5s88.5 41.5 164.5 41.5h175v-500h-90v174h-85c-19.333 0 -33.333 0.333008 -42 1l-93 -175h-100l108 193c-58.667 24 -88 71.667 -88 143zM139 336c0 -27.333 9 -47.5 27 -60.5s49.333 -19.5 94 -19.5h85v162h-85
c-44.667 0 -76 -6.66699 -94 -20s-27 -34 -27 -62zM225 560l116 150h104l-130 -150h-90z" />
    <glyph glyph-name="afii10071.var.accented" unicode="&#x451;`" horiz-adv-x="540" 
d="M270 -8c-67.333 0 -121.669 21.499 -163.002 64.499s-62 101.167 -62 174.5v38c0 72 20.833 129.833 62.5 173.5s95.834 65.5 162.501 65.5c67.333 0 121.666 -21.667 162.999 -65s62 -101.333 62 -174v-48h-356c1.33301 -47.333 13.833 -83.666 37.5 -108.999
s54.834 -38 93.501 -38c37.333 0 65.333 6.5 84 19.5s33.334 33.5 44.001 61.5h92c-22 -108.667 -95.333 -163 -220 -163zM269.997 425.999c-36.667 0 -66.332 -10.833 -88.999 -32.5s-36.334 -53.167 -41.001 -94.5h259c-8 84.667 -51 127 -129 127zM174.999 564.999
c-16.667 0 -30.834 5.83301 -42.501 17.5s-17.5 25.834 -17.5 42.501s5.83301 30.834 17.5 42.501s25.834 17.5 42.501 17.5s30.834 -5.83301 42.501 -17.5s17.5 -25.834 17.5 -42.501s-5.83301 -30.834 -17.5 -42.501s-25.834 -17.5 -42.501 -17.5zM364.999 564.999
c-16.667 0 -30.834 5.83301 -42.501 17.5s-17.5 25.834 -17.5 42.501s5.83301 30.834 17.5 42.501s25.834 17.5 42.501 17.5s30.834 -5.83301 42.501 -17.5s17.5 -25.834 17.5 -42.501s-5.83301 -30.834 -17.5 -42.501s-25.834 -17.5 -42.501 -17.5zM228.999 689.999l90 120
h100l-108 -120h-82z" />
    <glyph glyph-name=".notdef" horiz-adv-x="650" 
d="M75 0v700h500v-700h-500zM369 352l130 -224v446zM281 348l-130 223v-446zM208 628l118 -203l118 203h-236zM323 274l-118 -202h236z" />
    <glyph glyph-name="space" unicode=" " horiz-adv-x="250" 
 />
    <glyph glyph-name="exclam" unicode="!" horiz-adv-x="300" 
d="M150 -8c-20 0 -36.667 6.66699 -50 20s-20 30 -20 50s6.66699 36.667 20 50s30 20 50 20s36.667 -6.66699 50 -20s20 -30 20 -50s-6.66699 -36.667 -20 -50s-30 -20 -50 -20zM103 200v500h94v-500h-94z" />
    <glyph glyph-name="quotedbl" unicode="&#x22;" horiz-adv-x="400" 
d="M253 450v250h94v-250h-94zM53 450v250h94v-250h-94z" />
    <glyph glyph-name="numbersign" unicode="#" 
d="M302 0l35 200h-139l-35 -200h-84l35 200h-99l16 80h98l28 160h-98l14 80h99l32 180h84l-32 -180h139l32 180h84l-32 -180h96l-14 -80h-97l-28 -160h96l-15 -80h-96l-35 -200h-84zM241 440l-28 -160h139l28 160h-139z" />
    <glyph glyph-name="dollar" unicode="$" horiz-adv-x="610" 
d="M263 -100l0.00292969 93.9941c-133.333 12 -204.333 89 -213 231h100c3.33301 -43.333 14 -76.166 32 -98.499s45 -36.166 81 -41.499v239c-24 6.66699 -44.167 12.834 -60.5 18.501s-34.333 13.834 -54 24.501s-35.334 22.334 -47.001 35.001s-21.5 29 -29.5 49
s-12 42.333 -12 67c0 50.667 17.5 93.167 52.5 127.5s85.167 54.5 150.5 60.5v94h84v-94c126 -11.333 193.667 -81.666 203 -210.999h-100c-5.33301 37.333 -15.833 65.5 -31.5 84.5s-39.5 30.833 -71.5 35.5v-220c32 -8.66699 58.167 -17 78.5 -25
s42.166 -19.667 65.499 -35s40.666 -35 51.999 -59s17 -52.333 17 -85c0 -55.333 -18 -100.5 -54 -135.5s-89 -55.5 -159 -61.5v-94h-84zM462.003 191.994c0 28 -9.83301 50.1689 -29.5 66.502s-48.167 30.166 -85.5 41.499v-216c38 5.33301 66.667 17.666 86 36.999
s29 43 29 71zM158.003 517.996c0 -25.333 8.99902 -45.501 26.999 -60.501s44 -27.833 78 -38.5v196c-35.333 -5.33301 -61.666 -16.666 -78.999 -33.999s-26 -38.333 -26 -63z" />
    <glyph glyph-name="percent" unicode="%" horiz-adv-x="900" 
d="M210 342c-50.667 0 -91.667 15.333 -123 46s-47 70 -47 118v38c0 48 15.667 87.333 47 118s72.333 46 123 46c50 0 90.833 -15.333 122.5 -46s47.5 -70 47.5 -118v-38c0 -48 -15.833 -87.333 -47.5 -118s-72.5 -46 -122.5 -46zM210 420c26.667 0 47.333 7.33301 62 22
s22 36 22 64v38c0 27.333 -7.5 48.5 -22.5 63.5s-35.5 22.5 -61.5 22.5s-46.5 -7.5 -61.5 -22.5s-22.5 -36.167 -22.5 -63.5v-38c0 -27.333 7.5 -48.5 22.5 -63.5s35.5 -22.5 61.5 -22.5zM689.999 -8c-50.667 0 -91.667 15.333 -123 46s-47 70 -47 118v38
c0 48 15.667 87.333 47 118s72.333 46 123 46c50 0 90.833 -15.333 122.5 -46s47.5 -70 47.5 -118v-38c0 -48 -15.833 -87.333 -47.5 -118s-72.5 -46 -122.5 -46zM689.999 70c26.667 0 47.333 7.33301 62 22s22 36 22 64v38c0 27.333 -7.5 48.5 -22.5 63.5
s-35.5 22.5 -61.5 22.5s-46.5 -7.5 -61.5 -22.5s-22.5 -36.167 -22.5 -63.5v-38c0 -27.333 7.5 -48.5 22.5 -63.5s35.5 -22.5 61.5 -22.5zM199.998 0l404 700h96l-404 -700h-96z" />
    <glyph glyph-name="ampersand" unicode="&#x26;" horiz-adv-x="640" 
d="M530 0l-64.001 66.998c-55.333 -50 -120.666 -75 -195.999 -75c-67.333 0 -120.833 18 -160.5 54s-59.5 82 -59.5 138c0 36 8.5 69.167 25.5 99.5s47.833 62.5 92.5 96.5c-33.333 36.667 -55.5 67.334 -66.5 92.001s-16.5 52.334 -16.5 83.001
c0 44.667 15.5 81.334 46.5 110.001s72.167 43 123.5 43s92.5 -14.333 123.5 -43s46.5 -65.334 46.5 -110.001c0 -65.333 -41 -127 -123 -185l151 -161c15.333 38.667 23 79 23 121h94c0 -73.333 -16.333 -138 -49 -194l129 -136h-120zM269.999 77.998
c51.333 0 95.332 18.332 131.999 54.999l-177 185c-33.333 -24.667 -55.166 -47.167 -65.499 -67.5s-15.5 -42.166 -15.5 -65.499c0 -30.667 11.5 -56.167 34.5 -76.5s53.5 -30.5 91.5 -30.5zM178.998 554.997c0 -21.333 4 -39.667 12 -55s25.333 -38 52 -68
c35.333 25.333 58.833 47.333 70.5 66s17.5 37.667 17.5 57c0 18.667 -7 34.5 -21 47.5s-32.333 19.5 -55 19.5s-41 -6.33301 -55 -19s-21 -28.667 -21 -48z" />
    <glyph glyph-name="quotesingle" unicode="'" horiz-adv-x="200" 
d="M53 450v250h94v-250h-94z" />
    <glyph glyph-name="parenleft" unicode="(" horiz-adv-x="400" 
d="M80 250c0 52 6.16797 103.167 18.501 153.5s27.166 92.5 44.499 126.5s34.666 64.5 51.999 91.5s32.333 46.833 45 59.5l18 19h112c-5.33301 -4.66699 -12.333 -11.334 -21 -20.001s-24 -27.834 -46 -57.501s-41.333 -60.667 -58 -93s-32 -74 -46 -125
s-21 -102.5 -21 -154.5s6.66699 -103.167 20 -153.5s29.333 -92.5 48 -126.5s37.334 -64.5 56.001 -91.5s34.667 -46.833 48 -59.5l20 -19h-116c-4.66699 4.66699 -11 11.334 -19 20.001s-22 27.834 -42 57.501s-37.5 60.667 -52.5 93s-28.833 74 -41.5 125
s-19 102.5 -19 154.5z" />
    <glyph glyph-name="parenright" unicode=")" horiz-adv-x="400" 
d="M320 250c0 -52 -6.16797 -103.168 -18.501 -153.501s-27.166 -92.5 -44.499 -126.5s-34.666 -64.5 -51.999 -91.5s-32.333 -46.833 -45 -59.5l-18 -19h-112c5.33301 4.66699 12.333 11.334 21 20.001s24 27.834 46 57.501s41.333 60.667 58 93s32 74 46 125
s21 102.5 21 154.5s-6.66699 103.167 -20 153.5s-29.333 92.5 -48 126.5s-37.334 64.5 -56.001 91.5s-34.667 46.833 -48 59.5l-20 19h116l19 -20c8 -8.66699 22 -27.834 42 -57.501s37.5 -60.667 52.5 -93s28.833 -74 41.5 -125s19 -102.5 19 -154.5z" />
    <glyph glyph-name="asterisk" unicode="*" horiz-adv-x="390" 
d="M20 508v60h123l-63 110l52 30l63 -110l63 110l52 -30l-63 -110h123v-60h-124l63 -110l-51 -30l-63 109l-63 -109l-52 30l63 110h-123z" />
    <glyph glyph-name="plus" unicode="+" 
d="M70 317v86h180v184h90v-184h180v-86h-180v-184h-90v184h-180z" />
    <glyph glyph-name="comma" unicode="," horiz-adv-x="250" 
d="M35 -150l48 255h102l-79 -255h-71z" />
    <glyph glyph-name="hyphen" unicode="-" horiz-adv-x="400" 
d="M45 217v86h310v-86h-310z" />
    <glyph glyph-name="period" unicode="." horiz-adv-x="250" 
d="M125 -8c-20 0 -36.667 6.66699 -50 20s-20 30 -20 50s6.66699 36.667 20 50s30 20 50 20s36.667 -6.66699 50 -20s20 -30 20 -50s-6.66699 -36.667 -20 -50s-30 -20 -50 -20z" />
    <glyph glyph-name="slash" unicode="/" horiz-adv-x="450" 
d="M15 -200l324 900h96l-324 -900h-96z" />
    <glyph glyph-name="zero" unicode="0" horiz-adv-x="610" 
d="M305 -8c-160 0 -240 109.667 -240 329v58c0 219.333 80 329 240 329s240 -109.667 240 -329v-58c0 -219.333 -80 -329 -240 -329zM305 82c46.667 0 82 17.833 106 53.5s36 97.5 36 185.5v58c0 86.667 -12.167 148.167 -36.5 184.5s-59.5 54.5 -105.5 54.5
c-46.667 0 -82 -17.833 -106 -53.5s-36 -97.5 -36 -185.5v-58c0 -86.667 12.167 -148.167 36.5 -184.5s59.5 -54.5 105.5 -54.5z" />
    <glyph glyph-name="one" unicode="1" horiz-adv-x="350" 
d="M20 497v102l146 101h94v-700h-94v596z" />
    <glyph glyph-name="two" unicode="2" horiz-adv-x="550" 
d="M40 0l0.000976562 85.999l239 231c45.333 44 77.166 79.167 95.499 105.5s27.5 51.833 27.5 76.5c0 35.333 -12 64 -36 86s-56 33 -96 33s-72 -11.167 -96 -33.5s-36 -52.166 -36 -89.499h-98c0 62.667 21 113.834 63 153.501s97.667 59.5 167 59.5s125 -19.5 167 -58.5
s63 -89.167 63 -150.5c0 -35.333 -12.5 -71.833 -37.5 -109.5s-63.167 -80.834 -114.5 -129.501l-184 -174h336v-86h-460z" />
    <glyph glyph-name="three" unicode="3" horiz-adv-x="580" 
d="M285 -8c-74 0 -131.998 20.333 -173.998 61s-64 98 -66 172h98c5.33301 -95.333 52.666 -143 141.999 -143c46 0 81.167 10.667 105.5 32s36.5 50.333 36.5 87c0 35.333 -11.667 63.5 -35 84.5s-56 31.5 -98 31.5h-94v86h94c36.667 0 65.5 9.66699 86.5 29
s31.5 45.333 31.5 78c0 33.333 -10.833 59.666 -32.5 78.999s-53.167 29 -94.5 29c-77.333 0 -119.666 -41 -126.999 -123h-98c2 66.667 22.667 118.834 62 156.501s93.666 56.5 162.999 56.5c71.333 0 126.666 -17.833 165.999 -53.5s59 -83.167 59 -142.5
c0 -69.333 -29.333 -119.666 -88 -150.999c68.667 -32 103 -86 103 -162c0 -62.667 -21 -112.834 -63 -150.501s-101 -56.5 -177 -56.5z" />
    <glyph glyph-name="four" unicode="4" horiz-adv-x="565" 
d="M20 157v86l310 457h122v-457h88v-86h-88v-157h-94v157h-338zM123 243h235v352z" />
    <glyph glyph-name="five" unicode="5" horiz-adv-x="565" 
d="M65 317l29.999 383.001h385v-86h-299l-16 -192c36.667 31.333 82.334 47 137.001 47c65.333 0 118.833 -22 160.5 -66s62.5 -101.333 62.5 -172c0 -72.667 -21.833 -130.667 -65.5 -174s-101.834 -65 -174.501 -65c-61.333 0 -113.666 15.667 -156.999 47
s-71 75.666 -83 132.999h98c22.667 -60 70 -90 142 -90c44 0 78.667 13.167 104 39.5s38 62.833 38 109.5c0 46 -12.667 82.167 -38 108.5s-60 39.5 -104 39.5c-56.667 0 -99 -20.667 -127 -62h-93z" />
    <glyph glyph-name="six" unicode="6" horiz-adv-x="595" 
d="M305 -8c-75.333 0 -134.166 24.167 -176.499 72.5s-63.5 123.833 -63.5 226.5v58c0 239.333 81.667 359 245 359c54 0 98.667 -14.833 134 -44.5s59 -69.167 71 -118.5h-99c-18 48.667 -53.333 73 -106 73c-46 0 -81.833 -16.5 -107.5 -49.5s-40.167 -89.5 -43.5 -169.5
c37.333 46 87.666 69 150.999 69c70 0 125 -20.167 165 -60.5s60 -96.5 60 -168.5v-18c0 -68.667 -21.833 -124 -65.5 -166s-98.5 -63 -164.5 -63zM304 378c-44 0 -78.501 -12 -103.501 -36s-37.5 -56.667 -37.5 -98v-18c0 -46 13.167 -81.5 39.5 -106.5
s60.5 -37.5 102.5 -37.5c40.667 0 72.834 12.5 96.501 37.5s35.5 58.833 35.5 101.5v18c0 43.333 -12 77.333 -36 102s-56.333 37 -97 37z" />
    <glyph glyph-name="seven" unicode="7" horiz-adv-x="480" 
d="M15 614v86h450v-86l-253 -614h-102l255 614h-350z" />
    <glyph glyph-name="eight" unicode="8" 
d="M295 -8c-76 0 -134.999 18.334 -176.999 55.001s-63 85.334 -63 146.001c0 78 38.333 135.333 115 172c-63.333 32.667 -95 84 -95 154c0 54 20.333 99 61 135s93.667 54 159 54c67.333 0 120.833 -17.5 160.5 -52.5s59.5 -80.5 59.5 -136.5
c0 -68.667 -32.333 -119.667 -97 -153c78 -36.667 117 -94.334 117 -173.001c0 -58.667 -21.333 -106.834 -64 -144.501s-101.334 -56.5 -176.001 -56.5zM295.001 82.001c43.333 0 77.833 11.002 103.5 33.002s38.5 48.333 38.5 79c0 37.333 -13.667 67.666 -41 90.999
s-61 37 -101 41c-42 -4 -76.167 -17.333 -102.5 -40s-39.5 -53.334 -39.5 -92.001c0 -31.333 12.667 -57.833 38 -79.5s60 -32.5 104 -32.5zM295.001 403.003c35.333 4.66699 64.5 16 87.5 34s34.5 45 34.5 81c0 27.333 -11 50.833 -33 70.5s-51.667 29.5 -89 29.5
s-67 -9.83301 -89 -29.5s-33 -43.167 -33 -70.5c0 -34 12.167 -60.5 36.5 -79.5s52.833 -30.833 85.5 -35.5z" />
    <glyph glyph-name="nine" unicode="9" horiz-adv-x="595" 
d="M285 -8c-54 0 -98.666 14.833 -133.999 44.5s-59 69.167 -71 118.5h99c18 -48.667 53.333 -73 106 -73c45.333 0 80.833 16.5 106.5 49.5s40.5 89.5 44.5 169.5c-36.667 -46 -87 -69 -151 -69c-70 0 -125 20.167 -165 60.5s-60 96.5 -60 168.5v18
c0 68.667 21.833 124 65.5 166s98.5 63 164.5 63c75.333 0 134.166 -24.167 176.499 -72.5s63.5 -123.833 63.5 -226.5v-58c0 -239.333 -81.667 -359 -245 -359zM291.001 322c44 0 78.501 12 103.501 36s37.5 56.667 37.5 98v18c0 46 -13.167 81.5 -39.5 106.5
s-60.5 37.5 -102.5 37.5c-40.667 0 -72.834 -12.5 -96.501 -37.5s-35.5 -58.833 -35.5 -101.5v-18c0 -43.333 12 -77.333 36 -102s56.333 -37 97 -37z" />
    <glyph glyph-name="colon" unicode=":" horiz-adv-x="250" 
d="M125 368c-20 0 -36.667 6.66699 -50 20s-20 30 -20 50s6.66699 36.667 20 50s30 20 50 20s36.667 -6.66699 50 -20s20 -30 20 -50s-6.66699 -36.667 -20 -50s-30 -20 -50 -20zM125 -8c-20 0 -36.667 6.66699 -50 20s-20 30 -20 50s6.66699 36.667 20 50s30 20 50 20
s36.667 -6.66699 50 -20s20 -30 20 -50s-6.66699 -36.667 -20 -50s-30 -20 -50 -20z" />
    <glyph glyph-name="semicolon" unicode=";" horiz-adv-x="250" 
d="M26 -150l48 255h102l-79 -255h-71zM125 368c-20 0 -36.667 6.66699 -50 20s-20 30 -20 50s6.66699 36.667 20 50s30 20 50 20s36.667 -6.66699 50 -20s20 -30 20 -50s-6.66699 -36.667 -20 -50s-30 -20 -50 -20z" />
    <glyph glyph-name="less" unicode="&#x3c;" 
d="M520 519l-348 -157l348 -157v-100l-450 205v100l450 205v-96z" />
    <glyph glyph-name="equal" unicode="=" 
d="M70 417v86h450v-86h-450zM70 217v86h450v-86h-450z" />
    <glyph glyph-name="greater" unicode="&#x3e;" 
d="M70 201l348 157l-348 157v100l450 -205v-100l-450 -205v96z" />
    <glyph glyph-name="question" unicode="?" horiz-adv-x="500" 
d="M198 204c0 39.333 5.83008 72.832 17.4971 100.499s25.667 49.167 42 64.5s32.833 29.333 49.5 42s30.834 28 42.501 46s17.5 39 17.5 63c0 29.333 -10.167 53 -30.5 71s-49.166 27 -86.499 27c-79.333 0 -121.666 -37.667 -126.999 -113h-98
c2.66699 61.333 23.5 110.5 62.5 147.5s91.5 55.5 157.5 55.5c69.333 0 123.333 -17 162 -51s58 -78 58 -132c0 -33.333 -6 -62.166 -18 -86.499s-26.333 -43.833 -43 -58.5l-50.5 -43.5c-17 -14.333 -31.5 -32.5 -43.5 -54.5s-18 -48 -18 -78h-94zM244.997 -8.00098
c-20 0 -36.667 6.66699 -50 20s-20 30 -20 50s6.66699 36.667 20 50s30 20 50 20s36.667 -6.66699 50 -20s20 -30 20 -50s-6.66699 -36.667 -20 -50s-30 -20 -50 -20z" />
    <glyph glyph-name="at" unicode="@" horiz-adv-x="1050" 
d="M525 -208c-127.333 0 -235.828 44.668 -325.495 134.001s-134.5 197.333 -134.5 324s44.833 234.667 134.5 324s198.167 134 325.5 134c134.667 0 245 -39.5 331 -118.5s129 -175.167 129 -288.5c0 -89.333 -22 -159 -66 -209s-101 -75 -171 -75
c-34.667 0 -63.834 6.83301 -87.501 20.5s-39.834 32.5 -48.501 56.5c-42 -51.333 -95.667 -77 -161 -77c-48 0 -86.667 15.5 -116 46.5s-44 72.833 -44 125.5c0 10 3.66699 37 11 81c11.333 62.667 37.666 113.834 78.999 153.501s89.666 59.5 144.999 59.5
c58 0 100 -19 126 -57l9 49h90l-53 -301c0 -1.33301 -0.5 -4.5 -1.5 -9.5s-1.5 -9.16699 -1.5 -12.5c0 -14.667 4.83301 -26.5 14.5 -35.5s23.167 -13.5 40.5 -13.5c38 0 71.333 18 100 54s43 84 43 144c0 91.333 -33.833 167.666 -101.5 228.999s-156.5 92 -266.5 92
c-102.667 0 -190 -35.833 -262 -107.5s-108 -159.834 -108 -264.501c0 -104 36 -192 108 -264s159.333 -108 262 -108c85.333 0 162 13.667 230 41v-91c-58.667 -24 -135.334 -36 -230.001 -36zM480.005 104.001c34.667 0 64.168 11.5 88.501 34.5s40.166 53.5 47.499 91.5
c8 38.667 12 65 12 79c0 26.667 -9 48 -27 64s-42 24 -72 24c-33.333 0 -62 -11.667 -86 -35s-39.667 -54 -47 -92c-7.33301 -34.667 -11 -61 -11 -79c0 -26 8.16699 -47 24.5 -63s39.833 -24 70.5 -24z" />
    <glyph glyph-name="A" unicode="A" horiz-adv-x="650" 
d="M533 0l-68 192h-284l-68 -192h-98l255 700h110l255 -700h-102zM272 446l-60 -168h222l-59 168l-51 149z" />
    <glyph glyph-name="B" unicode="B" horiz-adv-x="620" 
d="M80 0v700h225c163.333 0 245 -62.333 245 -187c0 -68 -30 -117.667 -90 -149c73.333 -29.333 110 -85 110 -167c0 -65.333 -19.5 -114.5 -58.5 -147.5s-101.167 -49.5 -186.5 -49.5h-245zM325 318h-151v-232h151c52.667 0 90.334 9.5 113.001 28.5s34 48.167 34 87.5
s-11.333 68.5 -34 87.5s-60.334 28.5 -113.001 28.5zM305 614h-131v-212h131c52 0 89.5 9 112.5 27s34.5 44.333 34.5 79s-11.5 61 -34.5 79s-60.5 27 -112.5 27z" />
    <glyph glyph-name="C" unicode="C" horiz-adv-x="670" 
d="M350 -8c-88 0 -159.168 29.3311 -213.501 87.998s-81.5 139 -81.5 241v58c0 101.333 27.333 181.5 82 240.5s125.667 88.5 213 88.5c74 0 135.667 -20.667 185 -62s79.333 -91.666 90 -150.999h-102c-10.667 34.667 -31.167 63.834 -61.5 87.501s-67.5 35.5 -111.5 35.5
c-58 0 -105.333 -21 -142 -63s-55 -100.667 -55 -176v-58c0 -74.667 18.333 -133.167 55 -175.5s84 -63.5 142 -63.5c45.333 0 82.833 13 112.5 39s49.834 60.667 60.501 104h102c-10.667 -68 -40.5 -123.833 -89.5 -167.5s-110.833 -65.5 -185.5 -65.5z" />
    <glyph glyph-name="D" unicode="D" horiz-adv-x="680" 
d="M80 0v700h220c104 0 184.167 -27.833 240.5 -83.5s84.5 -134.5 84.5 -236.5v-60c0 -100.667 -28.5 -179.167 -85.5 -235.5s-136.833 -84.5 -239.5 -84.5h-220zM300 614l-126 -0.000976562v-528h126c151.333 0 227 78 227 234v60c0 76.667 -19.5 134.834 -58.5 174.501
s-95.167 59.5 -168.5 59.5z" />
    <glyph glyph-name="E" unicode="E" horiz-adv-x="560" 
d="M80 0v700h435v-86h-341v-211h281v-86h-281v-231h341v-86h-435z" />
    <glyph glyph-name="F" unicode="F" horiz-adv-x="540" 
d="M80 0v700h435v-86h-341v-216h281v-86h-281v-312h-94z" />
    <glyph glyph-name="G" unicode="G" horiz-adv-x="680" 
d="M340 267v86h285v-43c0 -102 -24.667 -180.5 -74 -235.5s-116.333 -82.5 -201 -82.5c-89.333 0 -160.833 29.167 -214.5 87.5s-80.5 138.833 -80.5 241.5v58c0 102.667 27 183.167 81 241.5s125.333 87.5 214 87.5c74.667 0 135.667 -20 183 -60s76.333 -91 87 -153h-100
c-10.667 36 -30.5 65.5 -59.5 88.5s-65.833 34.5 -110.5 34.5c-60 0 -107.833 -20.667 -143.5 -62s-53.5 -100.333 -53.5 -177v-58c0 -75.333 18.333 -134 55 -176s84 -63 142 -63c56 0 99.333 14.833 130 44.5s48.667 76.5 54 140.5h-194z" />
    <glyph glyph-name="H" unicode="H" horiz-adv-x="710" 
d="M536 0v317h-362v-317h-94v700h94v-297h362v297h94v-700h-94z" />
    <glyph glyph-name="I" unicode="I" horiz-adv-x="270" 
d="M88 0v700h94v-700h-94z" />
    <glyph glyph-name="J" unicode="J" horiz-adv-x="535" 
d="M240 -8c-65.333 0 -117 20.5 -155 61.5s-59.667 98.167 -65 171.5h94c2.66699 -46 14.667 -81.333 36 -106s51.333 -37 90 -37c84 0 126 56 126 168v450h94v-450c0 -84 -19.5 -148 -58.5 -192s-92.833 -66 -161.5 -66z" />
    <glyph glyph-name="K" unicode="K" horiz-adv-x="635" 
d="M492 0l-225 319l-93 -110v-209h-94v700h94v-367l300 367h116l-258 -311l278 -389h-118z" />
    <glyph glyph-name="L" unicode="L" horiz-adv-x="515" 
d="M80 0v700h94v-614h321v-86h-415z" />
    <glyph glyph-name="M" unicode="M" horiz-adv-x="810" 
d="M358 195l-140 295l-44 105v-595h-94v700h134l193 -405l191 405h132v-700h-94v596l-45 -106l-139 -295h-94z" />
    <glyph glyph-name="N" unicode="N" horiz-adv-x="710" 
d="M496 0l-271 490l-51 102v-592h-94v700h134l271 -490l51 -102v592h94v-700h-134z" />
    <glyph glyph-name="O" unicode="O" horiz-adv-x="710" 
d="M355 -8c-90 0 -162.5 29.333 -217.5 88s-82.5 139 -82.5 241v58c0 101.333 27.667 181.5 83 240.5s127.666 88.5 216.999 88.5c90 0 162.5 -29.333 217.5 -88s82.5 -139 82.5 -241v-58c0 -101.333 -27.667 -181.5 -83 -240.5s-127.666 -88.5 -216.999 -88.5zM355 82
c60.667 0 109.5 20.833 146.5 62.5s55.5 100.5 55.5 176.5v58c0 75.333 -18.667 134 -56 176s-86 63 -146 63c-60.667 0 -109.5 -20.833 -146.5 -62.5s-55.5 -100.5 -55.5 -176.5v-58c0 -75.333 18.667 -134 56 -176s86 -63 146 -63z" />
    <glyph glyph-name="P" unicode="P" horiz-adv-x="600" 
d="M80 0v700h230c173.333 0 260 -74.667 260 -224c0 -70.667 -21.833 -125.667 -65.5 -165s-108.5 -59 -194.5 -59h-136v-252h-94zM310 614l-136 -0.000976562v-276h136c56.667 0 98 11.5 124 34.5s39 57.5 39 103.5c0 46.667 -12.833 81.334 -38.5 104.001
s-67.167 34 -124.5 34z" />
    <glyph glyph-name="Q" unicode="Q" horiz-adv-x="710" 
d="M355 -8c-90 0 -162.499 29.333 -217.499 88s-82.5 139 -82.5 241v58c0 101.333 27.667 181.5 83 240.5s127.666 88.5 216.999 88.5c90 0 162.5 -29.333 217.5 -88s82.5 -139 82.5 -241v-58c0 -106 -30.667 -189 -92 -249l92 -122h-108l-54 72
c-40.667 -20 -86.667 -30 -138 -30zM355.001 82c30 0 57 5 81 15l-91 123h108l53 -71c34 42.667 51 100 51 172v58c0 75.333 -18.667 134 -56 176s-86 63 -146 63c-60.667 0 -109.5 -20.833 -146.5 -62.5s-55.5 -100.5 -55.5 -176.5v-58c0 -75.333 18.667 -134 56 -176
s86 -63 146 -63z" />
    <glyph glyph-name="R" unicode="R" horiz-adv-x="620" 
d="M484 0l-138 275.001c-8 -0.666992 -20 -1 -36 -1h-136v-274h-94v700h230c87.333 0 152.5 -18.5 195.5 -55.5s64.5 -89.5 64.5 -157.5c0 -98.667 -44.333 -163.334 -133 -194.001l153 -293h-106zM310 614.001h-136v-254h136c108 0 162 42.333 162 127s-54 127 -162 127z
" />
    <glyph glyph-name="S" unicode="S" horiz-adv-x="610" 
d="M305 -8c-82 0 -143.662 19.1699 -184.995 57.5029s-64.666 96.833 -69.999 175.5h100c4.66699 -50.667 19 -87.167 43 -109.5s61.333 -33.5 112 -33.5c51.333 0 90.333 10.167 117 30.5s40 46.833 40 79.5c0 23.333 -7.33301 43 -22 59s-33.834 28.5 -57.501 37.5
s-49.834 17.167 -78.501 24.5s-57.334 15.666 -86.001 24.999s-54.834 20.666 -78.501 33.999s-42.834 32.333 -57.501 57s-22 54.334 -22 89.001c0 56 21.167 101.667 63.5 137s102.833 53 181.5 53c79.333 0 138.666 -17.833 177.999 -53.5
s61.666 -88.834 66.999 -159.501h-100c-5.33301 44 -18.833 75.5 -40.5 94.5s-56.5 28.5 -104.5 28.5c-48.667 0 -85.334 -9.16699 -110.001 -27.5s-37 -42.5 -37 -72.5c0 -19.333 5.83301 -36.166 17.5 -50.499s26.834 -25.333 45.501 -33s40 -15.167 64 -22.5
s48.667 -13.833 74 -19.5s50 -13.834 74 -24.501s45.333 -22.834 64 -36.501s33.834 -32.5 45.501 -56.5s17.5 -52 17.5 -84c0 -60.667 -21.5 -109 -64.5 -145s-106.5 -54 -190.5 -54z" />
    <glyph glyph-name="T" unicode="T" horiz-adv-x="580" 
d="M20 614v86h540v-86h-223v-614h-94v614h-223z" />
    <glyph glyph-name="U" unicode="U" horiz-adv-x="690" 
d="M345 -8c-83.333 0 -149.166 25.332 -197.499 75.999s-72.5 121.334 -72.5 212.001v420h94v-420c0 -63.333 15.667 -112.166 47 -146.499s74.333 -51.5 129 -51.5s97.667 17.167 129 51.5s47 83.166 47 146.499v420h94v-420c0 -90 -24.333 -160.5 -73 -211.5
s-114.334 -76.5 -197.001 -76.5z" />
    <glyph glyph-name="V" unicode="V" horiz-adv-x="660" 
d="M285 0l-265 700h104l216 -585l200 585h100l-245 -700h-110z" />
    <glyph glyph-name="W" unicode="W" horiz-adv-x="970" 
d="M640 0l-155 586l-145 -586h-120l-190 700h98l151 -589l146 589h120l156 -590l143 590h96l-180 -700h-120z" />
    <glyph glyph-name="X" unicode="X" horiz-adv-x="650" 
d="M509 0l-185 286l-185 -286h-114l239 363l-219 337h113l168 -257l167 257h112l-219 -333l239 -367h-116z" />
    <glyph glyph-name="Y" unicode="Y" horiz-adv-x="650" 
d="M283 0v245l-263 455h108l202 -355l196 355h104l-253 -455v-245h-94z" />
    <glyph glyph-name="Z" unicode="Z" horiz-adv-x="585" 
d="M55 614v86h490v-86l-392 -528h392v-86h-500v86l392 528h-382z" />
    <glyph glyph-name="bracketleft" unicode="[" horiz-adv-x="400" 
d="M110 -200v900h250v-86h-156v-728h156v-86h-250z" />
    <glyph glyph-name="backslash" unicode="\" horiz-adv-x="450" 
d="M335 -200l-320 900h100l320 -900h-100z" />
    <glyph glyph-name="bracketright" unicode="]" horiz-adv-x="400" 
d="M290 700v-900h-250v86h156v728h-156v86h250z" />
    <glyph glyph-name="asciicircum" unicode="^" 
d="M418 400l-128 230l-122 -230h-98l165 300h110l175 -300h-102z" />
    <glyph glyph-name="underscore" unicode="_" 
d="M0 -143v86h590v-86h-590z" />
    <glyph glyph-name="grave" unicode="`" horiz-adv-x="250" 
d="M145 560l-130 150h104l116 -150h-90z" />
    <glyph glyph-name="a" unicode="a" horiz-adv-x="520" 
d="M200 -8c-51.333 0 -90.835 13.001 -118.502 39.001s-41.5 62.333 -41.5 109c0 108.667 73.333 163 220 163h100v37c0 58.667 -33.333 88 -100 88c-61.333 0 -94.666 -22.667 -99.999 -68h-100c2.66699 44.667 20.834 80.5 54.501 107.5s82.167 40.5 145.5 40.5
c61.333 0 108.333 -14.833 141 -44.5s49 -70.834 49 -123.501v-340h-70l-11 82c-38 -60 -94.333 -90 -169 -90zM209.998 72.001c42.667 0 78.333 13.5 107 40.5s43 59.167 43 96.5v18h-100c-84 0 -126 -28.333 -126 -85c0 -21.333 6.66699 -38.333 20 -51s32 -19 56 -19z
" />
    <glyph glyph-name="b" unicode="b" horiz-adv-x="560" 
d="M318 -8c-74.667 0 -129.333 26.333 -164 79l-9 -71h-70v700h90v-258c35.333 44 86.333 66 153 66c58 0 105.333 -21 142 -63s55 -100.667 55 -176v-38c0 -74.667 -18.333 -133.167 -55 -175.5s-84 -63.5 -142 -63.5zM293.001 78c40.667 0 72.168 12.832 94.501 38.499
s33.5 63.834 33.5 114.501v38c0 50 -11.333 88 -34 114s-54 39 -94 39c-37.333 0 -67.833 -12.833 -91.5 -38.5s-35.834 -61.5 -36.501 -107.5v-45c0 -48 11.833 -85.5 35.5 -112.5s54.5 -40.5 92.5 -40.5z" />
    <glyph glyph-name="c" unicode="c" horiz-adv-x="505" 
d="M270 -8c-69.333 0 -124.163 20.998 -164.496 62.998s-60.5 100.667 -60.5 176v38c0 74.667 20.167 133.167 60.5 175.5s95.166 63.5 164.499 63.5c56 0 101.5 -14.167 136.5 -42.5s57.833 -65.166 68.5 -110.499h-96c-19.333 44.667 -57.333 67 -114 67
c-38.667 0 -69.334 -13 -92.001 -39s-34 -64 -34 -114v-38c0 -49.333 11.5 -87.166 34.5 -113.499s53.5 -39.5 91.5 -39.5c59.333 0 97.333 25.667 114 77h96c-10.667 -50 -33.334 -89.667 -68.001 -119s-80.334 -44 -137.001 -44z" />
    <glyph glyph-name="d" unicode="d" horiz-adv-x="560" 
d="M242 -8c-58.667 0 -106.168 20.833 -142.501 62.5s-54.5 100.5 -54.5 176.5v38c0 75.333 18.333 134 55 176s84.334 63 143.001 63c65.333 0 116 -22 152 -66v258h90v-700h-70l-10 71c-34.667 -52.667 -89 -79 -163 -79zM266.999 78
c36.667 0 66.8311 12.668 90.498 38.001s36.167 61 37.5 107v53c-1.33301 46.667 -13.666 82.667 -36.999 108s-53.666 38 -90.999 38c-40.667 0 -72.167 -12.833 -94.5 -38.5s-33.5 -63.834 -33.5 -114.501v-38c0 -50 11.333 -88 34 -114s54 -39 94 -39z" />
    <glyph glyph-name="e" unicode="e" horiz-adv-x="540" 
d="M270 -8c-67.333 0 -121.669 21.499 -163.002 64.499s-62 101.167 -62 174.5v38c0 72 20.833 129.833 62.5 173.5s95.834 65.5 162.501 65.5c67.333 0 121.666 -21.667 162.999 -65s62 -101.333 62 -174v-48h-356c1.33301 -47.333 13.833 -83.666 37.5 -108.999
s54.834 -38 93.501 -38c37.333 0 65.333 6.5 84 19.5s33.334 33.5 44.001 61.5h92c-22 -108.667 -95.333 -163 -220 -163zM269.997 425.999c-36.667 0 -66.332 -10.833 -88.999 -32.5s-36.334 -53.167 -41.001 -94.5h259c-8 84.667 -51 127 -129 127z" />
    <glyph glyph-name="f" unicode="f" horiz-adv-x="335" 
d="M20 418l0.000976562 82.001h90v53c0 47.333 12.667 83.666 38 108.999s61.666 38 108.999 38h83v-82h-71c-46 0 -69 -24.667 -69 -74v-44h120v-82h-120v-418h-90v418h-90z" />
    <glyph glyph-name="g" unicode="g" horiz-adv-x="560" 
d="M243 12c-58.667 0 -106.333 20.334 -143 61.001s-55 96.667 -55 168v38c0 70.667 18.333 126.5 55 167.5s84.334 61.5 143.001 61.5c72.667 0 126.667 -26.333 162 -79l10 71h70v-500c0 -68 -18 -119.667 -54 -155s-88.667 -53 -158 -53
c-124.667 0 -192.334 52.667 -203.001 158h90c5.33301 -26.667 16.333 -46.334 33 -59.001s43.334 -19 80.001 -19c43.333 0 74.5 9.83301 93.5 29.5s28.5 52.5 28.5 98.5v76c-36.667 -42.667 -87.334 -64 -152.001 -64zM267.001 98.001c38 0 68.833 12.833 92.5 38.5
s35.5 60.5 35.5 104.5v38c0 44 -11.833 78.833 -35.5 104.5s-54.5 38.5 -92.5 38.5c-40 0 -71.333 -12.333 -94 -37s-34 -60 -34 -106v-38c0 -46 11.333 -81.333 34 -106s54 -37 94 -37z" />
    <glyph glyph-name="h" unicode="h" horiz-adv-x="575" 
d="M75 0l-0.000976562 700h90v-259c34 44.667 84 67 150 67c58.667 0 105 -18.5 139 -55.5s51 -89.5 51 -157.5v-295h-90v295c0 84.667 -38.333 127 -115 127c-40 0 -72.167 -11.167 -96.5 -33.5s-37.166 -51.833 -38.499 -88.5v-300h-90z" />
    <glyph glyph-name="i" unicode="i" horiz-adv-x="256" 
d="M83 0v500h90v-500h-90zM128 576c-17.333 0 -31.666 5.66699 -42.999 17s-17 25.666 -17 42.999s5.66699 31.666 17 42.999s25.666 17 42.999 17s31.666 -5.66699 42.999 -17s17 -25.666 17 -42.999s-5.66699 -31.666 -17 -42.999s-25.666 -17 -42.999 -17z" />
    <glyph glyph-name="j" unicode="j" horiz-adv-x="256" 
d="M-27 -200v82h33c26.667 0 46.167 8 58.5 24s18.5 42.333 18.5 79v515h90v-515c0 -66 -13.167 -113.333 -39.5 -142s-68.833 -43 -127.5 -43h-33zM128 576c-17.333 0 -31.666 5.66699 -42.999 17s-17 25.666 -17 42.999s5.66699 31.666 17 42.999s25.666 17 42.999 17
s31.666 -5.66699 42.999 -17s17 -25.666 17 -42.999s-5.66699 -31.666 -17 -42.999s-25.666 -17 -42.999 -17z" />
    <glyph glyph-name="k" unicode="k" horiz-adv-x="510" 
d="M385 0l-142 215l-78 -96v-119h-90v700h90v-457l202 257h108l-173 -219l193 -281h-110z" />
    <glyph glyph-name="l" unicode="l" horiz-adv-x="285" 
d="M221 0c-47.333 0 -83.5 12.668 -108.5 38.001s-37.5 61.666 -37.5 108.999v553h90v-543c0 -50 23 -75 69 -75h31v-82h-44z" />
    <glyph glyph-name="m" unicode="m" horiz-adv-x="875" 
d="M75 0l0.00292969 499.999h70l9 -68c35.333 50.667 85.666 76 150.999 76c70.667 0 122 -30.333 154 -91c17.333 28.667 40.333 51 69 67s61 24 97 24c54 0 97.5 -18.667 130.5 -56s49.5 -89.666 49.5 -156.999v-295h-90v295c0 42 -9.66699 73.667 -29 95
s-46.333 32 -81 32c-34 0 -62.333 -11.333 -85 -34s-34.334 -52 -35.001 -88v-300h-90v295c0 42 -9.66699 73.667 -29 95s-46.333 32 -81 32c-34 0 -62.333 -11.167 -85 -33.5s-34.334 -51.833 -35.001 -88.5v-300h-90z" />
    <glyph glyph-name="n" unicode="n" horiz-adv-x="575" 
d="M75 0l-0.00195312 500h70l9 -69c36.667 51.333 90.334 77 161.001 77c58.667 0 105 -18.5 139 -55.5s51 -89.5 51 -157.5v-295h-90v295c0 84.667 -38.333 127 -115 127c-40 0 -72.167 -11.167 -96.5 -33.5s-37.166 -51.833 -38.499 -88.5v-300h-90z" />
    <glyph glyph-name="o" unicode="o" horiz-adv-x="550" 
d="M275 -8c-70.667 0 -126.667 21.333 -168 64s-62 101 -62 175v38c0 73.333 20.833 131.5 62.5 174.5s97.5 64.5 167.5 64.5c70.667 0 126.667 -21.333 168 -64s62 -101 62 -175v-38c0 -73.333 -20.833 -131.5 -62.5 -174.5s-97.5 -64.5 -167.5 -64.5zM275 78
c42.667 0 76 13 100 39s36 64 36 114v38c0 49.333 -12.167 87.166 -36.5 113.499s-57.5 39.5 -99.5 39.5c-42.667 0 -76 -13 -100 -39s-36 -64 -36 -114v-38c0 -49.333 12.167 -87.166 36.5 -113.499s57.5 -39.5 99.5 -39.5z" />
    <glyph glyph-name="p" unicode="p" horiz-adv-x="560" 
d="M317 -8c-66 0 -116.667 21.667 -152 65v-257h-90v700h70l9 -72c35.333 53.333 90 80 164 80c58 0 105.333 -21 142 -63s55 -100.667 55 -176v-38c0 -74.667 -18.5 -133.167 -55.5 -175.5s-84.5 -63.5 -142.5 -63.5zM293 78c85.333 0 128.001 50.999 128.001 152.999v38
c0 50.667 -11.167 88.834 -33.5 114.501s-53.833 38.5 -94.5 38.5c-37.333 0 -67.833 -12.833 -91.5 -38.5s-35.834 -61.5 -36.501 -107.5v-45c0 -48 11.833 -85.5 35.5 -112.5s54.5 -40.5 92.5 -40.5z" />
    <glyph glyph-name="q" unicode="q" horiz-adv-x="560" 
d="M243 -8c-59.333 0 -107.168 20.833 -143.501 62.5s-54.5 100.5 -54.5 176.5v38c0 75.333 18.333 134 55 176s84.334 63 143.001 63c72.667 0 126.667 -26.667 162 -80l10 72h70v-700h-90v257c-36 -43.333 -86.667 -65 -152 -65zM266.998 78
c38 0 68.8311 13.501 92.498 40.501s35.5 64.5 35.5 112.5v45c-1.33301 46.667 -13.666 82.667 -36.999 108s-53.666 38 -90.999 38c-40.667 0 -72.167 -12.833 -94.5 -38.5s-33.5 -63.834 -33.5 -114.501v-38c0 -50 11.333 -88 34 -114s54 -39 94 -39z" />
    <glyph glyph-name="r" unicode="r" horiz-adv-x="380" 
d="M75 0v500h70l9 -68c35.333 50.667 87.333 76 156 76h50v-86h-50c-45.333 0 -80.5 -11.167 -105.5 -33.5s-38.167 -51.833 -39.5 -88.5v-300h-90z" />
    <glyph glyph-name="s" unicode="s" horiz-adv-x="490" 
d="M245 -8c-122.667 0 -189.333 54.3311 -200 162.998h94c5.33301 -30.667 15.5 -52.167 30.5 -64.5s40.167 -18.5 75.5 -18.5c39.333 0 66.833 5.5 82.5 16.5s23.5 28.167 23.5 51.5c0 22 -10.167 39 -30.5 51s-45 20.833 -74 26.5s-58 12.334 -87 20.001
s-53.667 22 -74 43s-30.5 49.167 -30.5 84.5c0 42.667 16.167 77.167 48.5 103.5s79.5 39.5 141.5 39.5c58 0 102.833 -13.5 134.5 -40.5s50.167 -64.5 55.5 -112.5h-94c-5.33301 25.333 -15 43.833 -29 55.5s-36.333 17.5 -67 17.5c-64 0 -96 -21 -96 -63
c0 -19.333 10.167 -34 30.5 -44s45 -17.667 74 -23s58 -12.166 87 -20.499s53.667 -23.833 74 -46.5s30.5 -53 30.5 -91c0 -45.333 -16.667 -81.333 -50 -108s-83.333 -40 -150 -40z" />
    <glyph glyph-name="t" unicode="t" horiz-adv-x="360" 
d="M15 418l0.000976562 82.001h90v140h90v-140h130v-82h-130v-261c0 -50 23.333 -75 70 -75h70v-82h-83c-46.667 0 -82.834 12.667 -108.501 38s-38.5 61.666 -38.5 108.999v271h-90z" />
    <glyph glyph-name="u" unicode="u" horiz-adv-x="565" 
d="M255 -8c-56 0 -100.833 18.668 -134.5 56.001s-50.5 89.666 -50.5 156.999v295h90v-295c0 -42 9.66699 -73.667 29 -95s46.333 -32 81 -32c38 0 68.833 11.167 92.5 33.5s36.167 51.5 37.5 87.5v301h90v-500h-70l-9 69c-36.667 -51.333 -88.667 -77 -156 -77z" />
    <glyph glyph-name="v" unicode="v" horiz-adv-x="510" 
d="M205 0l-190 500h98l147 -400l139 400h96l-180 -500h-110z" />
    <glyph glyph-name="w" unicode="w" horiz-adv-x="770" 
d="M500 0l-116 398l-104 -398h-110l-145 500h94l108 -389l102 389h110l114 -394l102 394h90l-135 -500h-110z" />
    <glyph glyph-name="x" unicode="x" horiz-adv-x="500" 
d="M381 0l-131 191l-133 -191h-102l179 256l-169 244h102l123 -181l125 181h100l-169 -245l179 -255h-104z" />
    <glyph glyph-name="y" unicode="y" horiz-adv-x="520" 
d="M140 -200l77 200l-202 500h98l152 -387l144 387h96l-269 -700h-96z" />
    <glyph glyph-name="z" unicode="z" horiz-adv-x="455" 
d="M45 418v82h380v-82l-286 -336h286v-82h-390v82l286 336h-276z" />
    <glyph glyph-name="braceleft" unicode="{" horiz-adv-x="400" 
d="M370 700v-86h-41c-39.333 0 -68.333 -9.5 -87 -28.5s-28 -49.5 -28 -91.5v-103c0 -17.333 -0.833008 -32 -2.5 -44s-4.83398 -24.5 -9.50098 -37.5s-12.167 -24.5 -22.5 -34.5s-23.166 -18.667 -38.499 -26c20.667 -10 36.5 -22.667 47.5 -38s18 -30.5 21 -45.5
s4.5 -33.833 4.5 -56.5v-103c0 -42 9.33301 -72.5 28 -91.5s47.667 -28.5 87 -28.5h41v-86h-49c-134 0 -201 67 -201 201v104c0 63.333 -26.667 98 -80 104v82c53.333 6 80 40.333 80 103v105c0 134 67 201 201 201h49z" />
    <glyph glyph-name="bar" unicode="|" horiz-adv-x="300" 
d="M103 -200v900h94v-900h-94z" />
    <glyph glyph-name="braceright" unicode="}" horiz-adv-x="400" 
d="M30 -200v86h41c39.333 0 68.333 9.5 87 28.5s28 49.5 28 91.5v103c0 17.333 0.833008 32 2.5 44s4.83398 24.5 9.50098 37.5s12.167 24.5 22.5 34.5s23.166 18.667 38.499 26c-20.667 10 -36.5 22.667 -47.5 38s-18 30.5 -21 45.5s-4.5 33.833 -4.5 56.5v103
c0 42 -9.33301 72.5 -28 91.5s-47.667 28.5 -87 28.5h-41v86h49c134 0 201 -67 201 -201v-104c0 -63.333 26.667 -98 80 -104v-82c-53.333 -6 -80 -40.333 -80 -103v-105c0 -134 -67 -201 -201 -201h-49z" />
    <glyph glyph-name="asciitilde" unicode="~" 
d="M401 265c-24 0 -47 5.16797 -69 15.501s-39.667 21.833 -53 34.5s-28.166 24.167 -44.499 34.5s-31.5 15.5 -45.5 15.5c-17.333 0 -31 -5.33301 -41 -16s-15 -25.334 -15 -44.001h-88c0 44 13.667 80 41 108s61.666 42 102.999 42c24 0 47 -5.16699 69 -15.5
s39.667 -21.833 53 -34.5s28.166 -24.167 44.499 -34.5s31.5 -15.5 45.5 -15.5c18 0 31.833 5.5 41.5 16.5s14.5 25.5 14.5 43.5h88c0 -44 -13.667 -80 -41 -108s-61.666 -42 -102.999 -42z" />
    <glyph glyph-name="uni00A0" unicode="&#xa0;" horiz-adv-x="250" 
 />
    <glyph glyph-name="exclamdown" unicode="&#xa1;" horiz-adv-x="300" 
d="M150 508c20 0 36.667 -6.66699 50 -20s20 -30 20 -50s-6.66699 -36.667 -20 -50s-30 -20 -50 -20s-36.667 6.66699 -50 20s-20 30 -20 50s6.66699 36.667 20 50s30 20 50 20zM197 300v-500h-94v500h94z" />
    <glyph glyph-name="cent" unicode="&#xa2;" horiz-adv-x="505" 
d="M228 -100l0.000976562 94.998c-57.333 8 -102.166 32.5 -134.499 73.5s-48.5 95.167 -48.5 162.5v38c0 66.667 16.167 120.5 48.5 161.5s77.166 65.833 134.499 74.5v95h84v-95c44 -7.33301 79.833 -24.5 107.5 -51.5s46.167 -59.833 55.5 -98.5h-96
c-19.333 44.667 -57.333 67 -114 67c-38.667 0 -69.334 -13 -92.001 -39s-34 -64 -34 -114v-38c0 -49.333 11.5 -87.166 34.5 -113.499s53.5 -39.5 91.5 -39.5c59.333 0 97.333 25.667 114 77h96c-9.33301 -43.333 -27.833 -79.166 -55.5 -107.499
s-63.5 -45.833 -107.5 -52.5v-95h-84z" />
    <glyph glyph-name="sterling" unicode="&#xa3;" horiz-adv-x="580" 
d="M45 293l-0.000976562 73.998h90v138c0 58.667 19.333 107.167 58 145.5s87.334 57.5 146.001 57.5c62 0 111.167 -19 147.5 -57s55.833 -90 58.5 -156h-98c-4.66699 82 -40.667 123 -108 123c-33.333 0 -60 -10.167 -80 -30.5s-30 -47.833 -30 -82.5v-138h181v-74h-181
v-31c0 -47.333 -4.33301 -84.166 -13 -110.499s-24 -48.166 -46 -65.499h375v-86h-500v86c22 14.667 38.833 28 50.5 40s21.167 29.167 28.5 51.5s11 50.5 11 84.5v31h-90z" />
    <glyph glyph-name="currency" unicode="&#xa4;" 
d="M487 105l-81.999 81.999c-32.667 -21.333 -69.334 -32 -110.001 -32c-42 0 -79.333 11.333 -112 34l-84 -84l-59 59l84 84c-22.667 32.667 -34 70 -34 112c0 40.667 10.667 77.334 32 110.001l-82 82l63 63l82 -83c33.333 22 70 33 110 33
c39.333 0 76.333 -11.333 111 -34l84 84l60 -60l-84 -84c22.667 -34.667 34 -71.667 34 -111s-10.667 -76 -32 -110l82 -82zM295.001 241.999c30.667 0 57 11.5 79 34.5s33 50.833 33 83.5s-11 60.5 -33 83.5s-48.333 34.5 -79 34.5s-57 -11.5 -79 -34.5
s-33 -50.833 -33 -83.5s11 -60.5 33 -83.5s48.333 -34.5 79 -34.5z" />
    <glyph glyph-name="yen" unicode="&#xa5;" horiz-adv-x="650" 
d="M85 263v74h142l-207 363h108l203 -363l195 363h104l-200 -363h145v-74h-198v-71h198v-74h-198v-118h-94v118h-198v74h198v71h-198z" />
    <glyph glyph-name="brokenbar" unicode="&#xa6;" horiz-adv-x="300" 
d="M103 -200v370h94v-370h-94zM103 330v370h94v-370h-94z" />
    <glyph glyph-name="section" unicode="&#xa7;" horiz-adv-x="480" 
d="M240 708c51.333 0 93.001 -14.1631 125.001 -42.4961s50.667 -64.5 56 -108.5h-99c-2.66699 20 -11 35.667 -25 47s-33 17 -57 17c-55.333 0 -83 -22.667 -83 -68c0 -22 9.66699 -41.5 29 -58.5s42.833 -32 70.5 -45s55.5 -27.5 83.5 -43.5s51.667 -38 71 -66
s29 -61 29 -99c0 -60 -30.667 -110.667 -92 -152c55.333 -35.333 83 -81.333 83 -138c0 -46.667 -17 -84.834 -51 -114.501s-80.667 -44.5 -140 -44.5c-54 0 -97.833 15 -131.5 45s-53.167 68.667 -58.5 116h100c2 -22 11 -39.833 27 -53.5s37 -20.5 63 -20.5
c29.333 0 52.166 6.66699 68.499 20s24.5 30.666 24.5 51.999c0 18 -7.16699 34.333 -21.5 49s-32.5 27 -54.5 37s-45.5 21.667 -70.5 35s-48.5 27.166 -70.5 41.499s-40.167 34.166 -54.5 59.499s-21.5 54 -21.5 86c0 62 32.667 113.667 98 155
c-52.667 36 -79 82.333 -79 139c0 46 16 83.333 48 112s76.333 43 133 43zM137.001 260.004c0 -15.333 3.16797 -29.168 9.50098 -41.501s16.5 -23.833 30.5 -34.5s26.667 -19 38 -25l49 -25c27.333 16.667 47.166 32.834 59.499 48.501s18.5 34.834 18.5 57.501
c0 15.333 -3 29.166 -9 41.499s-15.833 24 -29.5 35s-26 19.667 -37 26s-26.833 14.833 -47.5 25.5c-28.667 -16.667 -49.5 -33.167 -62.5 -49.5s-19.5 -35.833 -19.5 -58.5z" />
    <glyph glyph-name="dieresis" unicode="&#xa8;" horiz-adv-x="340" 
d="M75 575c-16.667 0 -30.834 5.83301 -42.501 17.5s-17.5 25.834 -17.5 42.501s5.83301 30.834 17.5 42.501s25.834 17.5 42.501 17.5s30.834 -5.83301 42.501 -17.5s17.5 -25.834 17.5 -42.501s-5.83301 -30.834 -17.5 -42.501s-25.834 -17.5 -42.501 -17.5zM265 575
c-16.667 0 -30.834 5.83301 -42.501 17.5s-17.5 25.834 -17.5 42.501s5.83301 30.834 17.5 42.501s25.834 17.5 42.501 17.5s30.834 -5.83301 42.501 -17.5s17.5 -25.834 17.5 -42.501s-5.83301 -30.834 -17.5 -42.501s-25.834 -17.5 -42.501 -17.5z" />
    <glyph glyph-name="copyright" unicode="&#xa9;" horiz-adv-x="850" 
d="M425 -8c-100.667 0 -185.835 34.667 -255.502 104s-104.5 154 -104.5 254c0 99.333 35 183.833 105 253.5s155 104.5 255 104.5c100.667 0 185.834 -34.667 255.501 -104s104.5 -154 104.5 -254c0 -98.667 -35.167 -183 -105.5 -253s-155.166 -105 -254.499 -105z
M424.999 68c78.667 0 144.833 27.167 198.5 81.5s80.5 121.166 80.5 200.499s-27 146.166 -81 200.499s-120 81.5 -198 81.5s-144 -27.167 -198 -81.5s-81 -121.166 -81 -200.499s27 -146.166 81 -200.499s120 -81.5 198 -81.5zM424.998 142c-56 0 -100.167 17 -132.5 51
s-48.5 81.333 -48.5 142v30c0 60 16.333 107.167 49 141.5s76.667 51.5 132 51.5c48 0 87.333 -11.833 118 -35.5s48.667 -52.167 54 -85.5h-85c-14.667 31.333 -43.667 47 -87 47c-31.333 0 -55.833 -10 -73.5 -30s-26.5 -49.667 -26.5 -89v-30c0 -38 9 -67.333 27 -88
s42.333 -31 73 -31c48.667 0 79 19 91 57h81c-5.33301 -36.667 -23.333 -67.667 -54 -93s-70 -38 -118 -38z" />
    <glyph glyph-name="ordfeminine" unicode="&#xaa;" horiz-adv-x="350" 
d="M138 372c-36 0 -63.833 8.83301 -83.5 26.5s-29.5 41.5 -29.5 71.5c0 34.667 12 61 36 79s64 27 120 27h57v14c0 20 -4.5 34.333 -13.5 43s-23.833 13 -44.5 13c-33.333 0 -53 -12.333 -59 -37h-78c2.66699 30 15.5 54 38.5 72s55.833 27 98.5 27
c90 0 135 -39.333 135 -118v-210h-61l-8 48c-22.667 -37.333 -58.667 -56 -108 -56zM152 434c26 0 46.833 7.5 62.5 22.5s23.5 34.5 23.5 58.5v9h-58c-49.333 0 -74 -15.333 -74 -46c0 -29.333 15.333 -44 46 -44z" />
    <glyph glyph-name="guillemotleft" unicode="&#xab;" horiz-adv-x="505" 
d="M235 258l122 202h98l-120 -198l120 -202h-101zM30 258l122 202h98l-120 -198l120 -202h-101z" />
    <glyph glyph-name="logicalnot" unicode="&#xac;" 
d="M70 316v86h450v-270h-90v184h-360z" />
    <glyph glyph-name="uni00AD" unicode="&#xad;" horiz-adv-x="400" 
d="M45 217v86h310v-86h-310z" />
    <glyph glyph-name="registered" unicode="&#xae;" horiz-adv-x="650" 
d="M325 142c-78.667 0 -145.834 27.667 -201.501 83s-83.5 122 -83.5 200s27.833 144.667 83.5 200s122.834 83 201.501 83s145.834 -27.667 201.501 -83s83.5 -122 83.5 -200s-27.833 -144.667 -83.5 -200s-122.834 -83 -201.501 -83zM325 205
c60 0 111.167 21.5 153.5 64.5s63.5 94.833 63.5 155.5s-21.167 112.5 -63.5 155.5s-93.5 64.5 -153.5 64.5c-59.333 0 -110.333 -21.5 -153 -64.5s-64 -94.833 -64 -155.5s21.333 -112.5 64 -155.5s93.667 -64.5 153 -64.5zM377 275l-45 99h-47v-99h-66v300h111
c80.667 0 121 -33.667 121 -101c0 -48 -20 -78.667 -60 -92l54 -107h-68zM330 515h-45v-82h45c34.667 0 52 13.667 52 41c0 14 -3.83301 24.333 -11.5 31s-21.167 10 -40.5 10z" />
    <glyph glyph-name="macron" unicode="&#xaf;" horiz-adv-x="300" 
d="M10 598v74h280v-74h-280z" />
    <glyph glyph-name="degree" unicode="&#xb0;" horiz-adv-x="360" 
d="M180 386c-46 0 -85 15.667 -117 47s-48 69.333 -48 114s16 82.667 48 114s71 47 117 47s85 -15.667 117 -47s48 -69.333 48 -114s-16 -82.667 -48 -114s-71 -47 -117 -47zM180 461c24 0 44.333 8.33301 61 25s25 37 25 61s-8.33301 44.333 -25 61s-37 25 -61 25
s-44.333 -8.33301 -61 -25s-25 -37 -25 -61s8.33301 -44.333 25 -61s37 -25 61 -25z" />
    <glyph glyph-name="plusminus" unicode="&#xb1;" 
d="M70 369v86h180v189h90v-189h180v-86h-180v-138h-90v138h-180zM70 75v86h450v-86h-450z" />
    <glyph glyph-name="twosuperior" unicode="&#xb2;" horiz-adv-x="355" 
d="M21 380v72.001l144 134c32 30.667 52.833 53.667 62.5 69s14.5 31.666 14.5 48.999c0 39.333 -23 59 -69 59s-69 -19.667 -69 -59h-83c0 39.333 13.667 71.5 41 96.5s64.333 37.5 111 37.5c46 0 82.833 -12.5 110.5 -37.5s41.5 -57.167 41.5 -96.5
c0 -28 -8 -54.5 -24 -79.5s-43.667 -55.5 -83 -91.5l-89 -81h196v-72h-304z" />
    <glyph glyph-name="threesuperior" unicode="&#xb3;" horiz-adv-x="370" 
d="M180 372c-50.667 0 -89.5 12.668 -116.5 38.001s-41.5 62 -43.5 110h83c4 -48.667 29.667 -73 77 -73c24.667 0 43.667 5.83301 57 17.5s20 27.167 20 46.5c0 18.667 -6.83301 34 -20.5 46s-32.5 18 -56.5 18h-58v70h58c44.667 0 67 19.667 67 59s-22.333 59 -67 59
c-40.667 0 -63 -19.667 -67 -59h-83c2 41.333 16 74 42 98s62 36 108 36s82.5 -11.833 109.5 -35.5s40.5 -53.5 40.5 -89.5c0 -47.333 -19 -80.333 -57 -99c44.667 -23.333 67 -59 67 -107c0 -40.667 -14 -73.334 -42 -98.001s-67.333 -37 -118 -37z" />
    <glyph glyph-name="acute" unicode="&#xb4;" horiz-adv-x="250" 
d="M15 560l116 150h104l-130 -150h-90z" />
    <glyph glyph-name="mu" unicode="&#xb5;" horiz-adv-x="570" 
d="M260 -8c-36 0 -67.667 9.66699 -95 29v-221h-90v700h90v-295c0 -42 9.66699 -73.667 29 -95s46.333 -32 81 -32c38.667 0 70 11.833 94 35.5s36 54.167 36 91.5v295h90v-500h-70l-9 69c-36.667 -51.333 -88.667 -77 -156 -77z" />
    <glyph glyph-name="paragraph" unicode="&#xb6;" horiz-adv-x="660" 
d="M449 -200v813.999h-138v-814h-93v464c-51.333 10 -93.833 35.333 -127.5 76s-50.5 87.334 -50.5 140.001c0 60.667 21.5 112.5 64.5 155.5s94.833 64.5 155.5 64.5h380v-86h-97v-814h-94z" />
    <glyph glyph-name="periodcentered" unicode="&#xb7;" horiz-adv-x="250" 
d="M125 190c-20 0 -36.667 6.66699 -50 20s-20 30 -20 50s6.66699 36.667 20 50s30 20 50 20s36.667 -6.66699 50 -20s20 -30 20 -50s-6.66699 -36.667 -20 -50s-30 -20 -50 -20z" />
    <glyph glyph-name="cedilla" unicode="&#xb8;" horiz-adv-x="190" 
d="M43 -86l25 96.999h60l-12 -46c42.667 -8.66699 64 -33.667 64 -75c0 -27.333 -8.5 -49.166 -25.5 -65.499s-40.167 -24.5 -69.5 -24.5h-75v66h65c18 0 27 8 27 24s-9 24 -27 24h-32z" />
    <glyph glyph-name="onesuperior" unicode="&#xb9;" horiz-adv-x="260" 
d="M15 671v87l117 72h78v-450h-78v364z" />
    <glyph glyph-name="ordmasculine" unicode="&#xba;" horiz-adv-x="360" 
d="M180 372c-47.333 0 -85 13.833 -113 41.5s-42 64.834 -42 111.501v30c0 46.667 14 83.834 42 111.501s65.667 41.5 113 41.5s85 -13.833 113 -41.5s42 -64.834 42 -111.501v-30c0 -46.667 -14 -83.834 -42 -111.501s-65.667 -41.5 -113 -41.5zM180 446
c24 0 42.5 6.83301 55.5 20.5s19.5 33.167 19.5 58.5v30c0 25.333 -6.5 44.833 -19.5 58.5s-31.5 20.5 -55.5 20.5s-42.5 -6.83301 -55.5 -20.5s-19.5 -33.167 -19.5 -58.5v-30c0 -25.333 6.5 -44.833 19.5 -58.5s31.5 -20.5 55.5 -20.5z" />
    <glyph glyph-name="guillemotright" unicode="&#xbb;" horiz-adv-x="505" 
d="M475 262l-122 -202h-98l120 198l-120 202h101zM270 262l-122 -202h-98l120 198l-120 202h101z" />
    <glyph glyph-name="onequarter" unicode="&#xbc;" horiz-adv-x="850" 
d="M175 0l404 700h96l-404 -700h-96zM40 548v86l108 66h77v-400h-77v315zM490 80v69l166 251h107v-251h47v-69h-47v-80h-76v80h-197zM572 149h115v174z" />
    <glyph glyph-name="onehalf" unicode="&#xbd;" horiz-adv-x="880" 
d="M175 0l404 700h96l-404 -700h-96zM40 548v86l108 66h77v-400h-77v315zM550 0v70.001l133 110c32 26 52.667 46 62 60s14 29 14 45c0 33.333 -21.333 50 -64 50s-64 -17 -64 -51h-81c0 39.333 12.167 69.833 36.5 91.5s60.5 32.5 108.5 32.5s84.167 -10.833 108.5 -32.5
s36.5 -51.834 36.5 -90.501c0 -26.667 -7.66699 -51.667 -23 -75s-42 -50 -80 -80l-75 -60h178v-70h-290z" />
    <glyph glyph-name="threequarters" unicode="&#xbe;" horiz-adv-x="900" 
d="M225 0l404 700h96l-404 -700h-96zM540 80v69l166 251h107v-251h47v-69h-47v-80h-76v80h-197zM622 149h115v174zM195 292c-49.333 0 -87 11.6689 -113 35.002s-40 56 -42 98h81c4 -40 28.667 -60 74 -60c49.333 0 74 17.667 74 53s-24.667 53 -74 53h-53v68h53
c42.667 0 64 16 64 48s-21.333 48 -64 48c-21.333 0 -36.833 -4 -46.5 -12s-15.5 -21 -17.5 -39h-81c4.66699 82.667 53 124 145 124c46 0 81.667 -10.667 107 -32s38 -49 38 -83c0 -36.667 -17 -64.334 -51 -83.001c40.667 -20 61 -52.667 61 -98
c0 -36.667 -13.167 -65.834 -39.5 -87.501s-64.833 -32.5 -115.5 -32.5z" />
    <glyph glyph-name="questiondown" unicode="&#xbf;" horiz-adv-x="500" 
d="M302 296c0 -39.333 -5.83008 -72.832 -17.4971 -100.499s-25.667 -49.167 -42 -64.5s-32.833 -29.333 -49.5 -42s-30.834 -28 -42.501 -46s-17.5 -39 -17.5 -63c0 -29.333 10.167 -53 30.5 -71s49.166 -27 86.499 -27c79.333 0 121.666 37.667 126.999 113h98
c-2.66699 -61.333 -23.5 -110.5 -62.5 -147.5s-91.5 -55.5 -157.5 -55.5c-69.333 0 -123.333 17 -162 51s-58 78 -58 132c0 33.333 6 62.166 18 86.499s26.333 43.833 43 58.5l50.5 43.5c17 14.333 31.5 32.5 43.5 54.5s18 48 18 78h94zM255.003 508.001
c20 0 36.667 -6.66699 50 -20s20 -30 20 -50s-6.66699 -36.667 -20 -50s-30 -20 -50 -20s-36.667 6.66699 -50 20s-20 30 -20 50s6.66699 36.667 20 50s30 20 50 20z" />
    <glyph glyph-name="Agrave" unicode="&#xc0;" horiz-adv-x="650" 
d="M533 0l-68 192h-284l-68 -192h-98l255 700h110l255 -700h-102zM272 446l-60 -168h222l-59 168l-51 149zM278 760l-128 150h108l112 -150h-92z" />
    <glyph glyph-name="Aacute" unicode="&#xc1;" horiz-adv-x="650" 
d="M533 0l-68 192h-284l-68 -192h-98l255 700h110l255 -700h-102zM272 446l-60 -168h222l-59 168l-51 149zM279 760l112 150h108l-128 -150h-92z" />
    <glyph glyph-name="Acircumflex" unicode="&#xc2;" horiz-adv-x="650" 
d="M533 0l-68 192h-284l-68 -192h-98l255 700h110l255 -700h-102zM272 446l-60 -168h222l-59 168l-51 149zM398 760l-73 86l-73 -86h-92l112 150h106l112 -150h-92z" />
    <glyph glyph-name="Atilde" unicode="&#xc3;" horiz-adv-x="650" 
d="M533 0l-68 192h-284l-68 -192h-98l255 700h110l255 -700h-102zM272 446l-60 -168h222l-59 168l-51 149zM395 765c-21.333 0 -40.8311 5.5 -58.498 16.5s-33 22.167 -46 33.5s-24.833 17 -35.5 17c-24.667 0 -37 -17.333 -37 -52h-63c0 83.333 33.333 125 100 125
c21.333 0 40.666 -5.5 57.999 -16.5s32.666 -21.833 45.999 -32.5s25.333 -16 36 -16c24.667 0 37 16.667 37 50h63c0 -83.333 -33.333 -125 -100 -125z" />
    <glyph glyph-name="Adieresis" unicode="&#xc4;" horiz-adv-x="650" 
d="M533 0l-68 192h-284l-68 -192h-98l255 700h110l255 -700h-102zM272 446l-60 -168h222l-59 168l-51 149zM220 775c-17.333 0 -31.666 5.83301 -42.999 17.5s-17 25.834 -17 42.501s5.66699 30.834 17 42.501s25.666 17.5 42.999 17.5s31.666 -5.83301 42.999 -17.5
s17 -25.834 17 -42.501s-5.66699 -30.834 -17 -42.501s-25.666 -17.5 -42.999 -17.5zM430 775c-17.333 0 -31.666 5.83301 -42.999 17.5s-17 25.834 -17 42.501s5.66699 30.834 17 42.501s25.666 17.5 42.999 17.5s31.666 -5.83301 42.999 -17.5s17 -25.834 17 -42.501
s-5.66699 -30.834 -17 -42.501s-25.666 -17.5 -42.999 -17.5z" />
    <glyph glyph-name="Aring" unicode="&#xc5;" horiz-adv-x="650" 
d="M533 0l-68 192h-284l-68 -192h-98l255 700h110l255 -700h-102zM272 446l-60 -168h222l-59 168l-51 149zM325 730c-32 0 -58.333 10 -79 30s-31 45 -31 75s10.333 55 31 75s47 30 79 30s58.333 -10 79 -30s31 -45 31 -75s-10.333 -55 -31 -75s-47 -30 -79 -30zM325 790
c12.667 0 23.167 4.33301 31.5 13s12.5 19.334 12.5 32.001s-4.16699 23.334 -12.5 32.001s-18.833 13 -31.5 13s-23.167 -4.33301 -31.5 -13s-12.5 -19.334 -12.5 -32.001s4.16699 -23.334 12.5 -32.001s18.833 -13 31.5 -13z" />
    <glyph glyph-name="AE" unicode="&#xc6;" horiz-adv-x="930" 
d="M10 0l390 700h485v-86h-341v-211h281v-86h-281v-231h341v-86h-435v192h-231l-105 -192h-104zM266 278h184v334z" />
    <glyph glyph-name="Ccedilla" unicode="&#xc7;" horiz-adv-x="670" 
d="M298 -86l18.999 79.9971c-79.333 7.33301 -142.833 39.833 -190.5 97.5s-71.5 134.167 -71.5 229.5v58c0 101.333 27.333 181.5 82 240.5s125.667 88.5 213 88.5c74 0 135.667 -20.667 185 -62s79.333 -91.666 90 -150.999h-102
c-10.667 34.667 -31.167 63.834 -61.5 87.501s-67.5 35.5 -111.5 35.5c-58 0 -105.333 -21 -142 -63s-55 -100.667 -55 -176v-58c0 -74.667 18.333 -133.167 55 -175.5s84 -63.5 142 -63.5c45.333 0 82.833 13 112.5 39s49.834 60.667 60.501 104h102
c-10 -63.333 -37 -116.5 -81 -159.5s-99.667 -67.167 -167 -72.5l-7 -28c43.333 -8.66699 65 -33.667 65 -75c0 -27.333 -8.5 -49.166 -25.5 -65.499s-40.167 -24.5 -69.5 -24.5h-75v66h65c18 0 27 8 27 24c0 14.667 -7.33301 22.667 -22 24h-37z" />
    <glyph glyph-name="Egrave" unicode="&#xc8;" horiz-adv-x="560" 
d="M80 0v700h435v-86h-341v-211h281v-86h-281v-231h341v-86h-435zM251 760l-128 150h108l112 -150h-92z" />
    <glyph glyph-name="Eacute" unicode="&#xc9;" horiz-adv-x="560" 
d="M80 0v700h435v-86h-341v-211h281v-86h-281v-231h341v-86h-435zM251 760l112 150h108l-128 -150h-92z" />
    <glyph glyph-name="Ecircumflex" unicode="&#xca;" horiz-adv-x="560" 
d="M80 0v700h435v-86h-341v-211h281v-86h-281v-231h341v-86h-435zM370 760l-73 86l-73 -86h-92l112 150h106l112 -150h-92z" />
    <glyph glyph-name="Edieresis" unicode="&#xcb;" horiz-adv-x="560" 
d="M80 0v700h435v-86h-341v-211h281v-86h-281v-231h341v-86h-435zM192 775c-17.333 0 -31.666 5.83301 -42.999 17.5s-17 25.834 -17 42.501s5.66699 30.834 17 42.501s25.666 17.5 42.999 17.5s31.666 -5.83301 42.999 -17.5s17 -25.834 17 -42.501
s-5.66699 -30.834 -17 -42.501s-25.666 -17.5 -42.999 -17.5zM402 775c-17.333 0 -31.666 5.83301 -42.999 17.5s-17 25.834 -17 42.501s5.66699 30.834 17 42.501s25.666 17.5 42.999 17.5s31.666 -5.83301 42.999 -17.5s17 -25.834 17 -42.501
s-5.66699 -30.834 -17 -42.501s-25.666 -17.5 -42.999 -17.5z" />
    <glyph glyph-name="Igrave" unicode="&#xcc;" horiz-adv-x="270" 
d="M88 0v700h94v-700h-94zM89 760l-128 150h108l112 -150h-92z" />
    <glyph glyph-name="Iacute" unicode="&#xcd;" horiz-adv-x="270" 
d="M88 0v700h94v-700h-94zM89 760l112 150h108l-128 -150h-92z" />
    <glyph glyph-name="Icircumflex" unicode="&#xce;" horiz-adv-x="270" 
d="M88 0v700h94v-700h-94zM208 760l-73 86l-73 -86h-92l112 150h106l112 -150h-92z" />
    <glyph glyph-name="Idieresis" unicode="&#xcf;" horiz-adv-x="270" 
d="M88 0v700h94v-700h-94zM30 775c-17.333 0 -31.666 5.83301 -42.999 17.5s-17 25.834 -17 42.501s5.66699 30.834 17 42.501s25.666 17.5 42.999 17.5s31.666 -5.83301 42.999 -17.5s17 -25.834 17 -42.501s-5.66699 -30.834 -17 -42.501s-25.666 -17.5 -42.999 -17.5z
M240 775c-17.333 0 -31.666 5.83301 -42.999 17.5s-17 25.834 -17 42.501s5.66699 30.834 17 42.501s25.666 17.5 42.999 17.5s31.666 -5.83301 42.999 -17.5s17 -25.834 17 -42.501s-5.66699 -30.834 -17 -42.501s-25.666 -17.5 -42.999 -17.5z" />
    <glyph glyph-name="Eth" unicode="&#xd0;" horiz-adv-x="705" 
d="M15 312v76h90v312h220c104 0 184.167 -27.833 240.5 -83.5s84.5 -134.5 84.5 -236.5v-60c0 -100.667 -28.5 -179.167 -85.5 -235.5s-136.833 -84.5 -239.5 -84.5h-220v312h-90zM325 614l-126 -0.000976562v-226h176v-76h-176v-226h126c151.333 0 227 78 227 234v60
c0 76.667 -19.5 134.834 -58.5 174.501s-95.167 59.5 -168.5 59.5z" />
    <glyph glyph-name="Ntilde" unicode="&#xd1;" horiz-adv-x="710" 
d="M496 0l-271 490l-51 102v-592h-94v700h134l271 -490l51 -102v592h94v-700h-134zM425 765c-21.333 0 -40.8311 5.5 -58.498 16.5s-33 22.167 -46 33.5s-24.833 17 -35.5 17c-24.667 0 -37 -17.333 -37 -52h-63c0 83.333 33.333 125 100 125
c21.333 0 40.666 -5.5 57.999 -16.5s32.666 -21.833 45.999 -32.5s25.333 -16 36 -16c24.667 0 37 16.667 37 50h63c0 -83.333 -33.333 -125 -100 -125z" />
    <glyph glyph-name="Ograve" unicode="&#xd2;" horiz-adv-x="710" 
d="M355 -8c-90 0 -162.5 29.333 -217.5 88s-82.5 139 -82.5 241v58c0 101.333 27.667 181.5 83 240.5s127.666 88.5 216.999 88.5c90 0 162.5 -29.333 217.5 -88s82.5 -139 82.5 -241v-58c0 -101.333 -27.667 -181.5 -83 -240.5s-127.666 -88.5 -216.999 -88.5zM355 82
c60.667 0 109.5 20.833 146.5 62.5s55.5 100.5 55.5 176.5v58c0 75.333 -18.667 134 -56 176s-86 63 -146 63c-60.667 0 -109.5 -20.833 -146.5 -62.5s-55.5 -100.5 -55.5 -176.5v-58c0 -75.333 18.667 -134 56 -176s86 -63 146 -63zM309 760l-128 150h108l112 -150h-92z
" />
    <glyph glyph-name="Oacute" unicode="&#xd3;" horiz-adv-x="710" 
d="M355 -8c-90 0 -162.5 29.333 -217.5 88s-82.5 139 -82.5 241v58c0 101.333 27.667 181.5 83 240.5s127.666 88.5 216.999 88.5c90 0 162.5 -29.333 217.5 -88s82.5 -139 82.5 -241v-58c0 -101.333 -27.667 -181.5 -83 -240.5s-127.666 -88.5 -216.999 -88.5zM355 82
c60.667 0 109.5 20.833 146.5 62.5s55.5 100.5 55.5 176.5v58c0 75.333 -18.667 134 -56 176s-86 63 -146 63c-60.667 0 -109.5 -20.833 -146.5 -62.5s-55.5 -100.5 -55.5 -176.5v-58c0 -75.333 18.667 -134 56 -176s86 -63 146 -63zM309 760l112 150h108l-128 -150h-92z
" />
    <glyph glyph-name="Ocircumflex" unicode="&#xd4;" horiz-adv-x="710" 
d="M355 -8c-90 0 -162.5 29.333 -217.5 88s-82.5 139 -82.5 241v58c0 101.333 27.667 181.5 83 240.5s127.666 88.5 216.999 88.5c90 0 162.5 -29.333 217.5 -88s82.5 -139 82.5 -241v-58c0 -101.333 -27.667 -181.5 -83 -240.5s-127.666 -88.5 -216.999 -88.5zM355 82
c60.667 0 109.5 20.833 146.5 62.5s55.5 100.5 55.5 176.5v58c0 75.333 -18.667 134 -56 176s-86 63 -146 63c-60.667 0 -109.5 -20.833 -146.5 -62.5s-55.5 -100.5 -55.5 -176.5v-58c0 -75.333 18.667 -134 56 -176s86 -63 146 -63zM428 760l-73 86l-73 -86h-92l112 150
h106l112 -150h-92z" />
    <glyph glyph-name="Otilde" unicode="&#xd5;" horiz-adv-x="710" 
d="M355 -8c-90 0 -162.5 29.333 -217.5 88s-82.5 139 -82.5 241v58c0 101.333 27.667 181.5 83 240.5s127.666 88.5 216.999 88.5c90 0 162.5 -29.333 217.5 -88s82.5 -139 82.5 -241v-58c0 -101.333 -27.667 -181.5 -83 -240.5s-127.666 -88.5 -216.999 -88.5zM355 82
c60.667 0 109.5 20.833 146.5 62.5s55.5 100.5 55.5 176.5v58c0 75.333 -18.667 134 -56 176s-86 63 -146 63c-60.667 0 -109.5 -20.833 -146.5 -62.5s-55.5 -100.5 -55.5 -176.5v-58c0 -75.333 18.667 -134 56 -176s86 -63 146 -63zM425 765
c-21.333 0 -40.8311 5.5 -58.498 16.5s-33 22.167 -46 33.5s-24.833 17 -35.5 17c-24.667 0 -37 -17.333 -37 -52h-63c0 83.333 33.333 125 100 125c21.333 0 40.666 -5.5 57.999 -16.5s32.666 -21.833 45.999 -32.5s25.333 -16 36 -16c24.667 0 37 16.667 37 50h63
c0 -83.333 -33.333 -125 -100 -125z" />
    <glyph glyph-name="Odieresis" unicode="&#xd6;" horiz-adv-x="710" 
d="M355 -8c-90 0 -162.5 29.333 -217.5 88s-82.5 139 -82.5 241v58c0 101.333 27.667 181.5 83 240.5s127.666 88.5 216.999 88.5c90 0 162.5 -29.333 217.5 -88s82.5 -139 82.5 -241v-58c0 -101.333 -27.667 -181.5 -83 -240.5s-127.666 -88.5 -216.999 -88.5zM355 82
c60.667 0 109.5 20.833 146.5 62.5s55.5 100.5 55.5 176.5v58c0 75.333 -18.667 134 -56 176s-86 63 -146 63c-60.667 0 -109.5 -20.833 -146.5 -62.5s-55.5 -100.5 -55.5 -176.5v-58c0 -75.333 18.667 -134 56 -176s86 -63 146 -63zM250 775
c-17.333 0 -31.666 5.83301 -42.999 17.5s-17 25.834 -17 42.501s5.66699 30.834 17 42.501s25.666 17.5 42.999 17.5s31.666 -5.83301 42.999 -17.5s17 -25.834 17 -42.501s-5.66699 -30.834 -17 -42.501s-25.666 -17.5 -42.999 -17.5zM460 775
c-17.333 0 -31.666 5.83301 -42.999 17.5s-17 25.834 -17 42.501s5.66699 30.834 17 42.501s25.666 17.5 42.999 17.5s31.666 -5.83301 42.999 -17.5s17 -25.834 17 -42.501s-5.66699 -30.834 -17 -42.501s-25.666 -17.5 -42.999 -17.5z" />
    <glyph glyph-name="multiply" unicode="&#xd7;" 
d="M156 159l-61 62l138 138l-138 139l61 61l139 -138l138 138l62 -61l-139 -139l139 -138l-62 -62l-138 139z" />
    <glyph glyph-name="Oslash" unicode="&#xd8;" horiz-adv-x="710" 
d="M107 -8l-52 42l60 73c-40 56.667 -60 128 -60 214v58c0 101.333 27.667 181.5 83 240.5s127.666 88.5 216.999 88.5c78 0 142.667 -22 194 -66l54 66l52 -42l-60 -74c40 -56.667 60 -127.667 60 -213v-58c0 -101.333 -27.667 -181.5 -83 -240.5
s-127.666 -88.5 -216.999 -88.5c-78.667 0 -143.667 21.667 -195 65zM153 321c0 -50.667 9 -95 27 -133l308 379c-34.667 34 -79 51 -133 51c-60.667 0 -109.5 -20.833 -146.5 -62.5s-55.5 -100.5 -55.5 -176.5v-58zM355 82c60 0 108.5 20.833 145.5 62.5
s55.5 100.5 55.5 176.5v58c0 50 -9 94 -27 132l-308 -379c35.333 -33.333 80 -50 134 -50z" />
    <glyph glyph-name="Ugrave" unicode="&#xd9;" horiz-adv-x="690" 
d="M345 -8c-83.333 0 -149.166 25.332 -197.499 75.999s-72.5 121.334 -72.5 212.001v420h94v-420c0 -63.333 15.667 -112.166 47 -146.499s74.333 -51.5 129 -51.5s97.667 17.167 129 51.5s47 83.166 47 146.499v420h94v-420c0 -90 -24.333 -160.5 -73 -211.5
s-114.334 -76.5 -197.001 -76.5zM299 759.999l-128 150h108l112 -150h-92z" />
    <glyph glyph-name="Uacute" unicode="&#xda;" horiz-adv-x="690" 
d="M345 -8c-83.333 0 -149.166 25.332 -197.499 75.999s-72.5 121.334 -72.5 212.001v420h94v-420c0 -63.333 15.667 -112.166 47 -146.499s74.333 -51.5 129 -51.5s97.667 17.167 129 51.5s47 83.166 47 146.499v420h94v-420c0 -90 -24.333 -160.5 -73 -211.5
s-114.334 -76.5 -197.001 -76.5zM299 759.999l112 150h108l-128 -150h-92z" />
    <glyph glyph-name="Ucircumflex" unicode="&#xdb;" horiz-adv-x="690" 
d="M345 -8c-83.333 0 -149.166 25.332 -197.499 75.999s-72.5 121.334 -72.5 212.001v420h94v-420c0 -63.333 15.667 -112.166 47 -146.499s74.333 -51.5 129 -51.5s97.667 17.167 129 51.5s47 83.166 47 146.499v420h94v-420c0 -90 -24.333 -160.5 -73 -211.5
s-114.334 -76.5 -197.001 -76.5zM418 759.999l-73 86l-73 -86h-92l112 150h106l112 -150h-92z" />
    <glyph glyph-name="Udieresis" unicode="&#xdc;" horiz-adv-x="690" 
d="M345 -8c-83.333 0 -149.166 25.332 -197.499 75.999s-72.5 121.334 -72.5 212.001v420h94v-420c0 -63.333 15.667 -112.166 47 -146.499s74.333 -51.5 129 -51.5s97.667 17.167 129 51.5s47 83.166 47 146.499v420h94v-420c0 -90 -24.333 -160.5 -73 -211.5
s-114.334 -76.5 -197.001 -76.5zM240 774.999c-17.333 0 -31.666 5.83301 -42.999 17.5s-17 25.834 -17 42.501s5.66699 30.834 17 42.501s25.666 17.5 42.999 17.5s31.666 -5.83301 42.999 -17.5s17 -25.834 17 -42.501s-5.66699 -30.834 -17 -42.501
s-25.666 -17.5 -42.999 -17.5zM450 774.999c-17.333 0 -31.666 5.83301 -42.999 17.5s-17 25.834 -17 42.501s5.66699 30.834 17 42.501s25.666 17.5 42.999 17.5s31.666 -5.83301 42.999 -17.5s17 -25.834 17 -42.501s-5.66699 -30.834 -17 -42.501
s-25.666 -17.5 -42.999 -17.5z" />
    <glyph glyph-name="Yacute" unicode="&#xdd;" horiz-adv-x="650" 
d="M283 0v245l-263 455h108l202 -355l196 355h104l-253 -455v-245h-94zM281 760l112 150h108l-128 -150h-92z" />
    <glyph glyph-name="Thorn" unicode="&#xde;" horiz-adv-x="600" 
d="M80 0v700h94v-116h136c173.333 0 260 -74.667 260 -224c0 -70.667 -21.833 -125.667 -65.5 -165s-108.5 -59 -194.5 -59h-136v-136h-94zM310 498l-136 -0.000976562v-276h136c56.667 0 98 11.5 124 34.5s39 57.5 39 103.5c0 46.667 -12.833 81.334 -38.5 104.001
s-67.167 34 -124.5 34z" />
    <glyph glyph-name="germandbls" unicode="&#xdf;" horiz-adv-x="560" 
d="M75 0l0.000976562 490c0 66.667 19.5 119.667 58.5 159s91.167 59 156.5 59c61.333 0 110.833 -18 148.5 -54s56.5 -81.667 56.5 -137c0 -58.667 -26.667 -105.667 -80 -141c66.667 -28 100 -79 100 -153v-38c0 -58 -17.833 -103.333 -53.5 -136
s-87.834 -49 -156.501 -49h-60v82h60c36.667 0 65.167 9.5 85.5 28.5s30.5 44.167 30.5 75.5v37c0 31.333 -10.167 56.5 -30.5 75.5s-48.833 28.5 -85.5 28.5h-60v84h45c34 0 61 9.66699 81 29s30 45 30 77c0 31.333 -10 56.666 -30 75.999s-47 29 -81 29
c-38 0 -68.333 -11.667 -91 -35s-34 -55.666 -34 -96.999v-490h-90z" />
    <glyph glyph-name="agrave" unicode="&#xe0;" horiz-adv-x="520" 
d="M200 -8c-51.333 0 -90.835 13.001 -118.502 39.001s-41.5 62.333 -41.5 109c0 108.667 73.333 163 220 163h100v37c0 58.667 -33.333 88 -100 88c-61.333 0 -94.666 -22.667 -99.999 -68h-100c2.66699 44.667 20.834 80.5 54.501 107.5s82.167 40.5 145.5 40.5
c61.333 0 108.333 -14.833 141 -44.5s49 -70.834 49 -123.501v-340h-70l-11 82c-38 -60 -94.333 -90 -169 -90zM209.998 72.001c42.667 0 78.333 13.5 107 40.5s43 59.167 43 96.5v18h-100c-84 0 -126 -28.333 -126 -85c0 -21.333 6.66699 -38.333 20 -51s32 -19 56 -19z
M209.997 560.001l-130 150h104l116 -150h-90z" />
    <glyph glyph-name="aacute" unicode="&#xe1;" horiz-adv-x="520" 
d="M200 -8c-51.333 0 -90.835 13.001 -118.502 39.001s-41.5 62.333 -41.5 109c0 108.667 73.333 163 220 163h100v37c0 58.667 -33.333 88 -100 88c-61.333 0 -94.666 -22.667 -99.999 -68h-100c2.66699 44.667 20.834 80.5 54.501 107.5s82.167 40.5 145.5 40.5
c61.333 0 108.333 -14.833 141 -44.5s49 -70.834 49 -123.501v-340h-70l-11 82c-38 -60 -94.333 -90 -169 -90zM209.998 72.001c42.667 0 78.333 13.5 107 40.5s43 59.167 43 96.5v18h-100c-84 0 -126 -28.333 -126 -85c0 -21.333 6.66699 -38.333 20 -51s32 -19 56 -19z
M209.997 560.001l116 150h104l-130 -150h-90z" />
    <glyph glyph-name="acircumflex" unicode="&#xe2;" horiz-adv-x="520" 
d="M200 -8c-51.333 0 -90.835 13.001 -118.502 39.001s-41.5 62.333 -41.5 109c0 108.667 73.333 163 220 163h100v37c0 58.667 -33.333 88 -100 88c-61.333 0 -94.666 -22.667 -99.999 -68h-100c2.66699 44.667 20.834 80.5 54.501 107.5s82.167 40.5 145.5 40.5
c61.333 0 108.333 -14.833 141 -44.5s49 -70.834 49 -123.501v-340h-70l-11 82c-38 -60 -94.333 -90 -169 -90zM209.998 72.001c42.667 0 78.333 13.5 107 40.5s43 59.167 43 96.5v18h-100c-84 0 -126 -28.333 -126 -85c0 -21.333 6.66699 -38.333 20 -51s32 -19 56 -19z
M331.997 560.001l-77 87l-77 -87h-88l116 150h98l116 -150h-88z" />
    <glyph glyph-name="atilde" unicode="&#xe3;" horiz-adv-x="520" 
d="M200 -8c-51.333 0 -90.835 13.001 -118.502 39.001s-41.5 62.333 -41.5 109c0 108.667 73.333 163 220 163h100v37c0 58.667 -33.333 88 -100 88c-61.333 0 -94.666 -22.667 -99.999 -68h-100c2.66699 44.667 20.834 80.5 54.501 107.5s82.167 40.5 145.5 40.5
c61.333 0 108.333 -14.833 141 -44.5s49 -70.834 49 -123.501v-340h-70l-11 82c-38 -60 -94.333 -90 -169 -90zM209.998 72.001c42.667 0 78.333 13.5 107 40.5s43 59.167 43 96.5v18h-100c-84 0 -126 -28.333 -126 -85c0 -21.333 6.66699 -38.333 20 -51s32 -19 56 -19z
M319.997 565.001c-20 0 -38.3311 5.5 -54.998 16.5s-31 22 -43 33s-22.667 16.5 -32 16.5c-21.333 0 -32 -17 -32 -51h-63c0 41.333 8.5 72.5 25.5 93.5s40.167 31.5 69.5 31.5c20 0 38.167 -5.5 54.5 -16.5s30.666 -22 42.999 -33s23.166 -16.5 32.499 -16.5
c21.333 0 32 17 32 51h63c0 -41.333 -8.5 -72.5 -25.5 -93.5s-40.167 -31.5 -69.5 -31.5z" />
    <glyph glyph-name="adieresis" unicode="&#xe4;" horiz-adv-x="520" 
d="M200 -8c-51.333 0 -90.835 13.001 -118.502 39.001s-41.5 62.333 -41.5 109c0 108.667 73.333 163 220 163h100v37c0 58.667 -33.333 88 -100 88c-61.333 0 -94.666 -22.667 -99.999 -68h-100c2.66699 44.667 20.834 80.5 54.501 107.5s82.167 40.5 145.5 40.5
c61.333 0 108.333 -14.833 141 -44.5s49 -70.834 49 -123.501v-340h-70l-11 82c-38 -60 -94.333 -90 -169 -90zM209.998 72.001c42.667 0 78.333 13.5 107 40.5s43 59.167 43 96.5v18h-100c-84 0 -126 -28.333 -126 -85c0 -21.333 6.66699 -38.333 20 -51s32 -19 56 -19z
M159.997 575.001c-17.333 0 -31.666 5.83301 -42.999 17.5s-17 25.834 -17 42.501s5.66699 30.834 17 42.501s25.666 17.5 42.999 17.5s31.666 -5.83301 42.999 -17.5s17 -25.834 17 -42.501s-5.66699 -30.834 -17 -42.501s-25.666 -17.5 -42.999 -17.5zM349.997 575.001
c-17.333 0 -31.666 5.83301 -42.999 17.5s-17 25.834 -17 42.501s5.66699 30.834 17 42.501s25.666 17.5 42.999 17.5s31.666 -5.83301 42.999 -17.5s17 -25.834 17 -42.501s-5.66699 -30.834 -17 -42.501s-25.666 -17.5 -42.999 -17.5z" />
    <glyph glyph-name="aring" unicode="&#xe5;" horiz-adv-x="520" 
d="M200 -8c-51.333 0 -90.835 13.001 -118.502 39.001s-41.5 62.333 -41.5 109c0 108.667 73.333 163 220 163h100v37c0 58.667 -33.333 88 -100 88c-61.333 0 -94.666 -22.667 -99.999 -68h-100c2.66699 44.667 20.834 80.5 54.501 107.5s82.167 40.5 145.5 40.5
c61.333 0 108.333 -14.833 141 -44.5s49 -70.834 49 -123.501v-340h-70l-11 82c-38 -60 -94.333 -90 -169 -90zM209.998 72.001c42.667 0 78.333 13.5 107 40.5s43 59.167 43 96.5v18h-100c-84 0 -126 -28.333 -126 -85c0 -21.333 6.66699 -38.333 20 -51s32 -19 56 -19z
M254.997 530.001c-32 0 -58.333 10 -79 30s-31 45 -31 75s10.333 55 31 75s47 30 79 30s58.333 -10 79 -30s31 -45 31 -75s-10.333 -55 -31 -75s-47 -30 -79 -30zM254.997 586.001c14 0 25.5 4.5 34.5 13.5s13.5 20.833 13.5 35.5s-4.5 26.5 -13.5 35.5
s-20.5 13.5 -34.5 13.5s-25.5 -4.5 -34.5 -13.5s-13.5 -20.833 -13.5 -35.5s4.5 -26.5 13.5 -35.5s20.5 -13.5 34.5 -13.5z" />
    <glyph glyph-name="ae" unicode="&#xe6;" horiz-adv-x="855" 
d="M212 -8c-56.667 0 -99.498 13 -128.498 39s-43.5 62.333 -43.5 109c0 105.333 74 158 222 158h102v42c0 58.667 -34 88 -102 88c-62.667 0 -96.667 -22.667 -102 -68h-100c2.66699 44.667 21 80.5 55 107.5s83 40.5 147 40.5c77.333 0 130 -26.667 158 -80
c40 53.333 95 80 165 80c67.333 0 121.666 -21.667 162.999 -65s62 -101.333 62 -174v-47h-356c1.33301 -48 13.833 -84.667 37.5 -110s54.834 -38 93.501 -38c37.333 0 65.333 6.16699 84 18.5s33.334 31.5 44.001 57.5h92c-22.667 -105.333 -96 -158 -220 -158
c-40.667 0 -76.834 9.16699 -108.501 27.5s-56.5 44.5 -74.5 78.5c-18.667 -33.333 -44.834 -59.333 -78.501 -78s-70.834 -28 -111.501 -28zM212.002 72c43.333 0 79.499 13.332 108.499 39.999s43.5 59.334 43.5 98.001v12h-102c-46.667 0 -79.667 -6.66699 -99 -20
s-29 -33.333 -29 -60c0 -21.333 6.83301 -38.333 20.5 -51s32.834 -19 57.501 -19zM585.001 425.999c-36.667 0 -66.332 -10.833 -88.999 -32.5s-36.334 -53.5 -41.001 -95.5h259c-8 85.333 -51 128 -129 128z" />
    <glyph glyph-name="ccedilla" unicode="&#xe7;" horiz-adv-x="505" 
d="M218 -86l20.0029 79.998c-60 6 -107.167 29.667 -141.5 71s-51.5 96.666 -51.5 165.999v38c0 74.667 20.167 133.167 60.5 175.5s95.166 63.5 164.499 63.5c56 0 101.5 -14.167 136.5 -42.5s57.833 -65.166 68.5 -110.499h-96c-19.333 44.667 -57.333 67 -114 67
c-38.667 0 -69.334 -13 -92.001 -39s-34 -64 -34 -114v-38c0 -49.333 11.5 -87.166 34.5 -113.499s53.5 -39.5 91.5 -39.5c59.333 0 97.333 25.667 114 77h96c-10 -46 -29.833 -83.167 -59.5 -111.5s-68.834 -44.833 -117.501 -49.5l-7 -29
c42.667 -8.66699 64 -33.667 64 -75c0 -27.333 -8.5 -49.166 -25.5 -65.499s-40.167 -24.5 -69.5 -24.5h-75v66h65c18 0 27 8 27 24s-9 24 -27 24h-32z" />
    <glyph glyph-name="egrave" unicode="&#xe8;" horiz-adv-x="540" 
d="M270 -8c-67.333 0 -121.669 21.499 -163.002 64.499s-62 101.167 -62 174.5v38c0 72 20.833 129.833 62.5 173.5s95.834 65.5 162.501 65.5c67.333 0 121.666 -21.667 162.999 -65s62 -101.333 62 -174v-48h-356c1.33301 -47.333 13.833 -83.666 37.5 -108.999
s54.834 -38 93.501 -38c37.333 0 65.333 6.5 84 19.5s33.334 33.5 44.001 61.5h92c-22 -108.667 -95.333 -163 -220 -163zM269.997 425.999c-36.667 0 -66.332 -10.833 -88.999 -32.5s-36.334 -53.167 -41.001 -94.5h259c-8 84.667 -51 127 -129 127zM224.999 559.999
l-130 150h104l116 -150h-90z" />
    <glyph glyph-name="eacute" unicode="&#xe9;" horiz-adv-x="540" 
d="M270 -8c-67.333 0 -121.669 21.499 -163.002 64.499s-62 101.167 -62 174.5v38c0 72 20.833 129.833 62.5 173.5s95.834 65.5 162.501 65.5c67.333 0 121.666 -21.667 162.999 -65s62 -101.333 62 -174v-48h-356c1.33301 -47.333 13.833 -83.666 37.5 -108.999
s54.834 -38 93.501 -38c37.333 0 65.333 6.5 84 19.5s33.334 33.5 44.001 61.5h92c-22 -108.667 -95.333 -163 -220 -163zM269.997 425.999c-36.667 0 -66.332 -10.833 -88.999 -32.5s-36.334 -53.167 -41.001 -94.5h259c-8 84.667 -51 127 -129 127zM224.999 559.999
l116 150h104l-130 -150h-90z" />
    <glyph glyph-name="ecircumflex" unicode="&#xea;" horiz-adv-x="540" 
d="M270 -8c-67.333 0 -121.669 21.499 -163.002 64.499s-62 101.167 -62 174.5v38c0 72 20.833 129.833 62.5 173.5s95.834 65.5 162.501 65.5c67.333 0 121.666 -21.667 162.999 -65s62 -101.333 62 -174v-48h-356c1.33301 -47.333 13.833 -83.666 37.5 -108.999
s54.834 -38 93.501 -38c37.333 0 65.333 6.5 84 19.5s33.334 33.5 44.001 61.5h92c-22 -108.667 -95.333 -163 -220 -163zM269.997 425.999c-36.667 0 -66.332 -10.833 -88.999 -32.5s-36.334 -53.167 -41.001 -94.5h259c-8 84.667 -51 127 -129 127zM346.999 559.999
l-77 87l-77 -87h-88l116 150h98l116 -150h-88z" />
    <glyph glyph-name="edieresis" unicode="&#xeb;" horiz-adv-x="540" 
d="M270 -8c-67.333 0 -121.669 21.499 -163.002 64.499s-62 101.167 -62 174.5v38c0 72 20.833 129.833 62.5 173.5s95.834 65.5 162.501 65.5c67.333 0 121.666 -21.667 162.999 -65s62 -101.333 62 -174v-48h-356c1.33301 -47.333 13.833 -83.666 37.5 -108.999
s54.834 -38 93.501 -38c37.333 0 65.333 6.5 84 19.5s33.334 33.5 44.001 61.5h92c-22 -108.667 -95.333 -163 -220 -163zM269.997 425.999c-36.667 0 -66.332 -10.833 -88.999 -32.5s-36.334 -53.167 -41.001 -94.5h259c-8 84.667 -51 127 -129 127zM174.999 574.999
c-16.667 0 -30.834 5.83301 -42.501 17.5s-17.5 25.834 -17.5 42.501s5.83301 30.834 17.5 42.501s25.834 17.5 42.501 17.5s30.834 -5.83301 42.501 -17.5s17.5 -25.834 17.5 -42.501s-5.83301 -30.834 -17.5 -42.501s-25.834 -17.5 -42.501 -17.5zM364.999 574.999
c-16.667 0 -30.834 5.83301 -42.501 17.5s-17.5 25.834 -17.5 42.501s5.83301 30.834 17.5 42.501s25.834 17.5 42.501 17.5s30.834 -5.83301 42.501 -17.5s17.5 -25.834 17.5 -42.501s-5.83301 -30.834 -17.5 -42.501s-25.834 -17.5 -42.501 -17.5z" />
    <glyph glyph-name="igrave" unicode="&#xec;" horiz-adv-x="256" 
d="M83 0v500h90v-500h-90zM83 560l-130 150h104l116 -150h-90z" />
    <glyph glyph-name="iacute" unicode="&#xed;" horiz-adv-x="256" 
d="M83 0v500h90v-500h-90zM83 560l116 150h104l-130 -150h-90z" />
    <glyph glyph-name="icircumflex" unicode="&#xee;" horiz-adv-x="256" 
d="M83 0v500h90v-500h-90zM205 560l-77 87l-77 -87h-88l116 150h98l116 -150h-88z" />
    <glyph glyph-name="idieresis" unicode="&#xef;" horiz-adv-x="256" 
d="M83 0v500h90v-500h-90zM33 575c-16.667 0 -30.834 5.83301 -42.501 17.5s-17.5 25.834 -17.5 42.501s5.83301 30.834 17.5 42.501s25.834 17.5 42.501 17.5s30.834 -5.83301 42.501 -17.5s17.5 -25.834 17.5 -42.501s-5.83301 -30.834 -17.5 -42.501
s-25.834 -17.5 -42.501 -17.5zM223 575c-16.667 0 -30.834 5.83301 -42.501 17.5s-17.5 25.834 -17.5 42.501s5.83301 30.834 17.5 42.501s25.834 17.5 42.501 17.5s30.834 -5.83301 42.501 -17.5s17.5 -25.834 17.5 -42.501s-5.83301 -30.834 -17.5 -42.501
s-25.834 -17.5 -42.501 -17.5z" />
    <glyph glyph-name="eth" unicode="&#xf0;" horiz-adv-x="545" 
d="M155 518l-0.00195312 61.001l67 36c-42.667 38.667 -75 67 -97 85h113l53 -48l104 56v-61l-64 -35c109.333 -114.667 164 -232.334 164 -353.001v-38c0 -68.667 -20.667 -124 -62 -166s-95.666 -63 -162.999 -63c-68 0 -122.5 20.833 -163.5 62.5
s-61.5 97.167 -61.5 166.5v38c0 68 20 123.167 60 165.5s90 63.5 150 63.5c36.667 0 69.334 -7.66699 98.001 -23c-22 34 -52.333 70.667 -91 110zM269.998 78.001c40.667 0 72.665 12.5 95.998 37.5s35 60.167 35 105.5v45c-1.33301 43.333 -13.666 76.833 -36.999 100.5
s-54.666 35.5 -93.999 35.5c-40 0 -71.833 -12.667 -95.5 -38s-35.5 -60.333 -35.5 -105v-38c0 -44 12 -78.833 36 -104.5s55.667 -38.5 95 -38.5z" />
    <glyph glyph-name="ntilde" unicode="&#xf1;" horiz-adv-x="575" 
d="M75 0l-0.00195312 500h70l9 -69c36.667 51.333 90.334 77 161.001 77c58.667 0 105 -18.5 139 -55.5s51 -89.5 51 -157.5v-295h-90v295c0 84.667 -38.333 127 -115 127c-40 0 -72.167 -11.167 -96.5 -33.5s-37.166 -51.833 -38.499 -88.5v-300h-90zM354.998 565
c-20 0 -38.3311 5.5 -54.998 16.5s-31 22 -43 33s-22.667 16.5 -32 16.5c-21.333 0 -32 -17 -32 -51h-63c0 41.333 8.5 72.5 25.5 93.5s40.167 31.5 69.5 31.5c20 0 38.167 -5.5 54.5 -16.5s30.666 -22 42.999 -33s23.166 -16.5 32.499 -16.5c21.333 0 32 17 32 51h63
c0 -41.333 -8.5 -72.5 -25.5 -93.5s-40.167 -31.5 -69.5 -31.5z" />
    <glyph glyph-name="ograve" unicode="&#xf2;" horiz-adv-x="550" 
d="M275 -8c-70.667 0 -126.667 21.333 -168 64s-62 101 -62 175v38c0 73.333 20.833 131.5 62.5 174.5s97.5 64.5 167.5 64.5c70.667 0 126.667 -21.333 168 -64s62 -101 62 -175v-38c0 -73.333 -20.833 -131.5 -62.5 -174.5s-97.5 -64.5 -167.5 -64.5zM275 78
c42.667 0 76 13 100 39s36 64 36 114v38c0 49.333 -12.167 87.166 -36.5 113.499s-57.5 39.5 -99.5 39.5c-42.667 0 -76 -13 -100 -39s-36 -64 -36 -114v-38c0 -49.333 12.167 -87.166 36.5 -113.499s57.5 -39.5 99.5 -39.5zM230 560l-130 150h104l116 -150h-90z" />
    <glyph glyph-name="oacute" unicode="&#xf3;" horiz-adv-x="550" 
d="M275 -8c-70.667 0 -126.667 21.333 -168 64s-62 101 -62 175v38c0 73.333 20.833 131.5 62.5 174.5s97.5 64.5 167.5 64.5c70.667 0 126.667 -21.333 168 -64s62 -101 62 -175v-38c0 -73.333 -20.833 -131.5 -62.5 -174.5s-97.5 -64.5 -167.5 -64.5zM275 78
c42.667 0 76 13 100 39s36 64 36 114v38c0 49.333 -12.167 87.166 -36.5 113.499s-57.5 39.5 -99.5 39.5c-42.667 0 -76 -13 -100 -39s-36 -64 -36 -114v-38c0 -49.333 12.167 -87.166 36.5 -113.499s57.5 -39.5 99.5 -39.5zM230 560l116 150h104l-130 -150h-90z" />
    <glyph glyph-name="ocircumflex" unicode="&#xf4;" horiz-adv-x="550" 
d="M275 -8c-70.667 0 -126.667 21.333 -168 64s-62 101 -62 175v38c0 73.333 20.833 131.5 62.5 174.5s97.5 64.5 167.5 64.5c70.667 0 126.667 -21.333 168 -64s62 -101 62 -175v-38c0 -73.333 -20.833 -131.5 -62.5 -174.5s-97.5 -64.5 -167.5 -64.5zM275 78
c42.667 0 76 13 100 39s36 64 36 114v38c0 49.333 -12.167 87.166 -36.5 113.499s-57.5 39.5 -99.5 39.5c-42.667 0 -76 -13 -100 -39s-36 -64 -36 -114v-38c0 -49.333 12.167 -87.166 36.5 -113.499s57.5 -39.5 99.5 -39.5zM352 560l-77 87l-77 -87h-88l116 150h98
l116 -150h-88z" />
    <glyph glyph-name="otilde" unicode="&#xf5;" horiz-adv-x="550" 
d="M275 -8c-70.667 0 -126.667 21.333 -168 64s-62 101 -62 175v38c0 73.333 20.833 131.5 62.5 174.5s97.5 64.5 167.5 64.5c70.667 0 126.667 -21.333 168 -64s62 -101 62 -175v-38c0 -73.333 -20.833 -131.5 -62.5 -174.5s-97.5 -64.5 -167.5 -64.5zM275 78
c42.667 0 76 13 100 39s36 64 36 114v38c0 49.333 -12.167 87.166 -36.5 113.499s-57.5 39.5 -99.5 39.5c-42.667 0 -76 -13 -100 -39s-36 -64 -36 -114v-38c0 -49.333 12.167 -87.166 36.5 -113.499s57.5 -39.5 99.5 -39.5zM340 565c-20 0 -38.3311 5.5 -54.998 16.5
s-31 22 -43 33s-22.667 16.5 -32 16.5c-21.333 0 -32 -17 -32 -51h-63c0 41.333 8.5 72.5 25.5 93.5s40.167 31.5 69.5 31.5c20 0 38.167 -5.5 54.5 -16.5s30.666 -22 42.999 -33s23.166 -16.5 32.499 -16.5c21.333 0 32 17 32 51h63c0 -41.333 -8.5 -72.5 -25.5 -93.5
s-40.167 -31.5 -69.5 -31.5z" />
    <glyph glyph-name="odieresis" unicode="&#xf6;" horiz-adv-x="550" 
d="M275 -8c-70.667 0 -126.667 21.333 -168 64s-62 101 -62 175v38c0 73.333 20.833 131.5 62.5 174.5s97.5 64.5 167.5 64.5c70.667 0 126.667 -21.333 168 -64s62 -101 62 -175v-38c0 -73.333 -20.833 -131.5 -62.5 -174.5s-97.5 -64.5 -167.5 -64.5zM275 78
c42.667 0 76 13 100 39s36 64 36 114v38c0 49.333 -12.167 87.166 -36.5 113.499s-57.5 39.5 -99.5 39.5c-42.667 0 -76 -13 -100 -39s-36 -64 -36 -114v-38c0 -49.333 12.167 -87.166 36.5 -113.499s57.5 -39.5 99.5 -39.5zM180 575
c-17.333 0 -31.666 5.83301 -42.999 17.5s-17 25.834 -17 42.501s5.66699 30.834 17 42.501s25.666 17.5 42.999 17.5s31.666 -5.83301 42.999 -17.5s17 -25.834 17 -42.501s-5.66699 -30.834 -17 -42.501s-25.666 -17.5 -42.999 -17.5zM370 575
c-17.333 0 -31.666 5.83301 -42.999 17.5s-17 25.834 -17 42.501s5.66699 30.834 17 42.501s25.666 17.5 42.999 17.5s31.666 -5.83301 42.999 -17.5s17 -25.834 17 -42.501s-5.66699 -30.834 -17 -42.501s-25.666 -17.5 -42.999 -17.5z" />
    <glyph glyph-name="divide" unicode="&#xf7;" 
d="M70 317v86h450v-86h-450zM295 490c-20 0 -36.667 6.66699 -50 20s-20 30 -20 50s6.66699 36.667 20 50s30 20 50 20s36.667 -6.66699 50 -20s20 -30 20 -50s-6.66699 -36.667 -20 -50s-30 -20 -50 -20zM295 90c-20 0 -36.667 6.66699 -50 20s-20 30 -20 50
s6.66699 36.667 20 50s30 20 50 20s36.667 -6.66699 50 -20s20 -30 20 -50s-6.66699 -36.667 -20 -50s-30 -20 -50 -20z" />
    <glyph glyph-name="oslash" unicode="&#xf8;" horiz-adv-x="550" 
d="M92 -8l-47 41.001l41 48c-27.333 39.333 -41 89.333 -41 150v38c0 74 20.667 132.333 62 175s97.333 64 168 64c56.667 0 105 -14.667 145 -44l38 44l47 -42l-42 -48c28 -40.667 42 -90.334 42 -149.001v-38c0 -74 -20.667 -132.333 -62 -175s-97.333 -64 -168 -64
c-58 0 -106.333 14.333 -145 43zM139 231.001c0 -30 4.33301 -55.001 13 -75.001l208 239c-22 18 -50.333 27 -85 27c-42 0 -75.167 -13.167 -99.5 -39.5s-36.5 -64.166 -36.5 -113.499v-38zM275 78c42 0 75.167 13.168 99.5 39.501s36.5 64.166 36.5 113.499v38
c0 29.333 -4.33301 54 -13 74l-208 -239c22.667 -17.333 51 -26 85 -26z" />
    <glyph glyph-name="ugrave" unicode="&#xf9;" horiz-adv-x="565" 
d="M255 -8c-56 0 -100.833 18.668 -134.5 56.001s-50.5 89.666 -50.5 156.999v295h90v-295c0 -42 9.66699 -73.667 29 -95s46.333 -32 81 -32c38 0 68.833 11.167 92.5 33.5s36.167 51.5 37.5 87.5v301h90v-500h-70l-9 69c-36.667 -51.333 -88.667 -77 -156 -77z
M235 560.001l-130 150h104l116 -150h-90z" />
    <glyph glyph-name="uacute" unicode="&#xfa;" horiz-adv-x="565" 
d="M255 -8c-56 0 -100.833 18.668 -134.5 56.001s-50.5 89.666 -50.5 156.999v295h90v-295c0 -42 9.66699 -73.667 29 -95s46.333 -32 81 -32c38 0 68.833 11.167 92.5 33.5s36.167 51.5 37.5 87.5v301h90v-500h-70l-9 69c-36.667 -51.333 -88.667 -77 -156 -77z
M235 560.001l116 150h104l-130 -150h-90z" />
    <glyph glyph-name="ucircumflex" unicode="&#xfb;" horiz-adv-x="565" 
d="M255 -8c-56 0 -100.833 18.668 -134.5 56.001s-50.5 89.666 -50.5 156.999v295h90v-295c0 -42 9.66699 -73.667 29 -95s46.333 -32 81 -32c38 0 68.833 11.167 92.5 33.5s36.167 51.5 37.5 87.5v301h90v-500h-70l-9 69c-36.667 -51.333 -88.667 -77 -156 -77z
M357 560.001l-77 87l-77 -87h-88l116 150h98l116 -150h-88z" />
    <glyph glyph-name="udieresis" unicode="&#xfc;" horiz-adv-x="565" 
d="M255 -8c-56 0 -100.833 18.668 -134.5 56.001s-50.5 89.666 -50.5 156.999v295h90v-295c0 -42 9.66699 -73.667 29 -95s46.333 -32 81 -32c38 0 68.833 11.167 92.5 33.5s36.167 51.5 37.5 87.5v301h90v-500h-70l-9 69c-36.667 -51.333 -88.667 -77 -156 -77z
M185 575.001c-16.667 0 -30.834 5.83301 -42.501 17.5s-17.5 25.834 -17.5 42.501s5.83301 30.834 17.5 42.501s25.834 17.5 42.501 17.5s30.834 -5.83301 42.501 -17.5s17.5 -25.834 17.5 -42.501s-5.83301 -30.834 -17.5 -42.501s-25.834 -17.5 -42.501 -17.5z
M375 575.001c-16.667 0 -30.834 5.83301 -42.501 17.5s-17.5 25.834 -17.5 42.501s5.83301 30.834 17.5 42.501s25.834 17.5 42.501 17.5s30.834 -5.83301 42.501 -17.5s17.5 -25.834 17.5 -42.501s-5.83301 -30.834 -17.5 -42.501s-25.834 -17.5 -42.501 -17.5z" />
    <glyph glyph-name="yacute" unicode="&#xfd;" horiz-adv-x="520" 
d="M140 -200l77 200l-202 500h98l152 -387l144 387h96l-269 -700h-96zM216 560l116 150h104l-130 -150h-90z" />
    <glyph glyph-name="thorn" unicode="&#xfe;" horiz-adv-x="560" 
d="M317 -8c-66 0 -116.666 21.667 -151.999 65v-257h-90v900h90v-258c35.333 44 86.333 66 153 66c58.667 0 106.167 -20.833 142.5 -62.5s54.5 -100.5 54.5 -176.5v-38c0 -75.333 -18.333 -134 -55 -176s-84.334 -63 -143.001 -63zM293.001 78
c40 0 71.334 12.999 94.001 38.999s34 64 34 114v38c0 50.667 -11.167 88.834 -33.5 114.501s-53.833 38.5 -94.5 38.5c-37.333 0 -67.833 -12.833 -91.5 -38.5s-35.834 -61.5 -36.501 -107.5v-45c0 -48 11.833 -85.5 35.5 -112.5s54.5 -40.5 92.5 -40.5z" />
    <glyph glyph-name="ydieresis" unicode="&#xff;" horiz-adv-x="520" 
d="M140 -200l77 200l-202 500h98l152 -387l144 387h96l-269 -700h-96zM166 575c-17.333 0 -31.666 5.83301 -42.999 17.5s-17 25.834 -17 42.501s5.66699 30.834 17 42.501s25.666 17.5 42.999 17.5s31.666 -5.83301 42.999 -17.5s17 -25.834 17 -42.501
s-5.66699 -30.834 -17 -42.501s-25.666 -17.5 -42.999 -17.5zM356 575c-17.333 0 -31.666 5.83301 -42.999 17.5s-17 25.834 -17 42.501s5.66699 30.834 17 42.501s25.666 17.5 42.999 17.5s31.666 -5.83301 42.999 -17.5s17 -25.834 17 -42.501
s-5.66699 -30.834 -17 -42.501s-25.666 -17.5 -42.999 -17.5z" />
    <glyph glyph-name="Amacron" unicode="&#x100;" horiz-adv-x="650" 
d="M533 0l-68 192h-284l-68 -192h-98l255 700h110l255 -700h-102zM272 446l-60 -168h222l-59 168l-51 149zM175 797v76h300v-76h-300z" />
    <glyph glyph-name="amacron" unicode="&#x101;" horiz-adv-x="520" 
d="M200 -8c-51.333 0 -90.835 13.001 -118.502 39.001s-41.5 62.333 -41.5 109c0 108.667 73.333 163 220 163h100v37c0 58.667 -33.333 88 -100 88c-61.333 0 -94.666 -22.667 -99.999 -68h-100c2.66699 44.667 20.834 80.5 54.501 107.5s82.167 40.5 145.5 40.5
c61.333 0 108.333 -14.833 141 -44.5s49 -70.834 49 -123.501v-340h-70l-11 82c-38 -60 -94.333 -90 -169 -90zM209.998 72.001c42.667 0 78.333 13.5 107 40.5s43 59.167 43 96.5v18h-100c-84 0 -126 -28.333 -126 -85c0 -21.333 6.66699 -38.333 20 -51s32 -19 56 -19z
M114.997 598.001v74h280v-74h-280z" />
    <glyph glyph-name="Abreve" unicode="&#x102;" horiz-adv-x="650" 
d="M533 0l-68 192h-284l-68 -192h-98l255 700h110l255 -700h-102zM272 446l-60 -168h222l-59 168l-51 149zM325 762c-48.667 0 -85.832 12.167 -111.499 36.5s-38.5 58.166 -38.5 101.499h74c0 -21.333 6.5 -38 19.5 -50s31.833 -18 56.5 -18c52 0 78 22.667 78 68h72
c0 -43.333 -12.833 -77.166 -38.5 -101.499s-62.834 -36.5 -111.501 -36.5z" />
    <glyph glyph-name="abreve" unicode="&#x103;" horiz-adv-x="520" 
d="M200 -8c-51.333 0 -90.835 13.001 -118.502 39.001s-41.5 62.333 -41.5 109c0 108.667 73.333 163 220 163h100v37c0 58.667 -33.333 88 -100 88c-61.333 0 -94.666 -22.667 -99.999 -68h-100c2.66699 44.667 20.834 80.5 54.501 107.5s82.167 40.5 145.5 40.5
c61.333 0 108.333 -14.833 141 -44.5s49 -70.834 49 -123.501v-340h-70l-11 82c-38 -60 -94.333 -90 -169 -90zM209.998 72.001c42.667 0 78.333 13.5 107 40.5s43 59.167 43 96.5v18h-100c-84 0 -126 -28.333 -126 -85c0 -21.333 6.66699 -38.333 20 -51s32 -19 56 -19z
M254.997 562.001c-44 0 -78.333 12.167 -103 36.5s-37 58.166 -37 101.499h72c0 -22 6 -39.167 18 -51.5s28.667 -18.5 50 -18.5c22 0 39.167 6.16699 51.5 18.5s18.5 29.5 18.5 51.5h70c0 -43.333 -12.333 -77.166 -37 -101.499s-59 -36.5 -103 -36.5z" />
    <glyph glyph-name="Aogonek" unicode="&#x104;" horiz-adv-x="650" 
d="M635 -200h-54.999c-70 0 -105 28.333 -105 85c0 18.667 3.66699 36.5 11 53.5s23 37.5 47 61.5l-68 192h-284l-68 -192h-98l255 700h110l255 -700c-32.667 -28.667 -53.834 -49.667 -63.501 -63s-14.5 -26.333 -14.5 -39c0 -18.667 11 -28 33 -28h45v-70zM272.001 446
l-60 -168h222l-59 168l-51 149z" />
    <glyph glyph-name="aogonek" unicode="&#x105;" horiz-adv-x="520" 
d="M450 -200h-55.001c-70 0 -105 26.667 -105 80c0 23.333 5.66699 45.333 17 66s34.666 46.334 69.999 77.001l-8 59c-38 -60 -94.333 -90 -169 -90c-51.333 0 -90.833 13 -118.5 39s-41.5 62.333 -41.5 109c0 108.667 73.333 163 220 163h100v37
c0 58.667 -33.333 88 -100 88c-61.333 0 -94.666 -22.667 -99.999 -68h-100c2.66699 44.667 20.834 80.5 54.501 107.5s82.167 40.5 145.5 40.5c61.333 0 108.333 -14.833 141 -44.5s49 -70.834 49 -123.501v-340c-34 -28 -56.167 -49.5 -66.5 -64.5
s-15.5 -28.5 -15.5 -40.5c0 -19.333 12.333 -29 37 -29h45v-66zM209.999 72c42.667 0 78.333 13.5 107 40.5s43 59.167 43 96.5v18h-100c-84 0 -126 -28.333 -126 -85c0 -21.333 6.66699 -38.333 20 -51s32 -19 56 -19z" />
    <glyph glyph-name="Cacute" unicode="&#x106;" horiz-adv-x="670" 
d="M350 -8c-88 0 -159.168 29.3311 -213.501 87.998s-81.5 139 -81.5 241v58c0 101.333 27.333 181.5 82 240.5s125.667 88.5 213 88.5c74 0 135.667 -20.667 185 -62s79.333 -91.666 90 -150.999h-102c-10.667 34.667 -31.167 63.834 -61.5 87.501s-67.5 35.5 -111.5 35.5
c-58 0 -105.333 -21 -142 -63s-55 -100.667 -55 -176v-58c0 -74.667 18.333 -133.167 55 -175.5s84 -63.5 142 -63.5c45.333 0 82.833 13 112.5 39s49.834 60.667 60.501 104h102c-10.667 -68 -40.5 -123.833 -89.5 -167.5s-110.833 -65.5 -185.5 -65.5zM303.999 759.998
l112 150h108l-128 -150h-92z" />
    <glyph glyph-name="cacute" unicode="&#x107;" horiz-adv-x="505" 
d="M270 -8c-69.333 0 -124.163 20.998 -164.496 62.998s-60.5 100.667 -60.5 176v38c0 74.667 20.167 133.167 60.5 175.5s95.166 63.5 164.499 63.5c56 0 101.5 -14.167 136.5 -42.5s57.833 -65.166 68.5 -110.499h-96c-19.333 44.667 -57.333 67 -114 67
c-38.667 0 -69.334 -13 -92.001 -39s-34 -64 -34 -114v-38c0 -49.333 11.5 -87.166 34.5 -113.499s53.5 -39.5 91.5 -39.5c59.333 0 97.333 25.667 114 77h96c-10.667 -50 -33.334 -89.667 -68.001 -119s-80.334 -44 -137.001 -44zM225.003 559.998l116 150h104l-130 -150
h-90z" />
    <glyph glyph-name="Ccircumflex" unicode="&#x108;" horiz-adv-x="670" 
d="M350 -8c-88 0 -159.168 29.3311 -213.501 87.998s-81.5 139 -81.5 241v58c0 101.333 27.333 181.5 82 240.5s125.667 88.5 213 88.5c74 0 135.667 -20.667 185 -62s79.333 -91.666 90 -150.999h-102c-10.667 34.667 -31.167 63.834 -61.5 87.501s-67.5 35.5 -111.5 35.5
c-58 0 -105.333 -21 -142 -63s-55 -100.667 -55 -176v-58c0 -74.667 18.333 -133.167 55 -175.5s84 -63.5 142 -63.5c45.333 0 82.833 13 112.5 39s49.834 60.667 60.501 104h102c-10.667 -68 -40.5 -123.833 -89.5 -167.5s-110.833 -65.5 -185.5 -65.5zM422.999 759.998
l-73 86l-73 -86h-92l112 150h106l112 -150h-92z" />
    <glyph glyph-name="ccircumflex" unicode="&#x109;" horiz-adv-x="505" 
d="M270 -8c-69.333 0 -124.163 20.998 -164.496 62.998s-60.5 100.667 -60.5 176v38c0 74.667 20.167 133.167 60.5 175.5s95.166 63.5 164.499 63.5c56 0 101.5 -14.167 136.5 -42.5s57.833 -65.166 68.5 -110.499h-96c-19.333 44.667 -57.333 67 -114 67
c-38.667 0 -69.334 -13 -92.001 -39s-34 -64 -34 -114v-38c0 -49.333 11.5 -87.166 34.5 -113.499s53.5 -39.5 91.5 -39.5c59.333 0 97.333 25.667 114 77h96c-10.667 -50 -33.334 -89.667 -68.001 -119s-80.334 -44 -137.001 -44zM347.003 559.998l-77 87l-77 -87h-88
l116 150h98l116 -150h-88z" />
    <glyph glyph-name="Cdotaccent" unicode="&#x10a;" horiz-adv-x="670" 
d="M350 -8c-88 0 -159.168 29.3311 -213.501 87.998s-81.5 139 -81.5 241v58c0 101.333 27.333 181.5 82 240.5s125.667 88.5 213 88.5c74 0 135.667 -20.667 185 -62s79.333 -91.666 90 -150.999h-102c-10.667 34.667 -31.167 63.834 -61.5 87.501s-67.5 35.5 -111.5 35.5
c-58 0 -105.333 -21 -142 -63s-55 -100.667 -55 -176v-58c0 -74.667 18.333 -133.167 55 -175.5s84 -63.5 142 -63.5c45.333 0 82.833 13 112.5 39s49.834 60.667 60.501 104h102c-10.667 -68 -40.5 -123.833 -89.5 -167.5s-110.833 -65.5 -185.5 -65.5zM349.999 774.998
c-17.333 0 -31.666 5.83301 -42.999 17.5s-17 25.834 -17 42.501s5.66699 30.834 17 42.501s25.666 17.5 42.999 17.5s31.666 -5.83301 42.999 -17.5s17 -25.834 17 -42.501s-5.66699 -30.834 -17 -42.501s-25.666 -17.5 -42.999 -17.5z" />
    <glyph glyph-name="cdotaccent" unicode="&#x10b;" horiz-adv-x="505" 
d="M270 -8c-69.333 0 -124.163 20.998 -164.496 62.998s-60.5 100.667 -60.5 176v38c0 74.667 20.167 133.167 60.5 175.5s95.166 63.5 164.499 63.5c56 0 101.5 -14.167 136.5 -42.5s57.833 -65.166 68.5 -110.499h-96c-19.333 44.667 -57.333 67 -114 67
c-38.667 0 -69.334 -13 -92.001 -39s-34 -64 -34 -114v-38c0 -49.333 11.5 -87.166 34.5 -113.499s53.5 -39.5 91.5 -39.5c59.333 0 97.333 25.667 114 77h96c-10.667 -50 -33.334 -89.667 -68.001 -119s-80.334 -44 -137.001 -44zM270.003 575.998
c-17.333 0 -31.666 5.66699 -42.999 17s-17 25.666 -17 42.999s5.66699 31.666 17 42.999s25.666 17 42.999 17s31.666 -5.66699 42.999 -17s17 -25.666 17 -42.999s-5.66699 -31.666 -17 -42.999s-25.666 -17 -42.999 -17z" />
    <glyph glyph-name="Ccaron" unicode="&#x10c;" horiz-adv-x="670" 
d="M350 -8c-88 0 -159.168 29.3311 -213.501 87.998s-81.5 139 -81.5 241v58c0 101.333 27.333 181.5 82 240.5s125.667 88.5 213 88.5c74 0 135.667 -20.667 185 -62s79.333 -91.666 90 -150.999h-102c-10.667 34.667 -31.167 63.834 -61.5 87.501s-67.5 35.5 -111.5 35.5
c-58 0 -105.333 -21 -142 -63s-55 -100.667 -55 -176v-58c0 -74.667 18.333 -133.167 55 -175.5s84 -63.5 142 -63.5c45.333 0 82.833 13 112.5 39s49.834 60.667 60.501 104h102c-10.667 -68 -40.5 -123.833 -89.5 -167.5s-110.833 -65.5 -185.5 -65.5zM296.999 759.998
l-112 150h92l73 -87l73 87h92l-112 -150h-106z" />
    <glyph glyph-name="ccaron" unicode="&#x10d;" horiz-adv-x="505" 
d="M270 -8c-69.333 0 -124.163 20.998 -164.496 62.998s-60.5 100.667 -60.5 176v38c0 74.667 20.167 133.167 60.5 175.5s95.166 63.5 164.499 63.5c56 0 101.5 -14.167 136.5 -42.5s57.833 -65.166 68.5 -110.499h-96c-19.333 44.667 -57.333 67 -114 67
c-38.667 0 -69.334 -13 -92.001 -39s-34 -64 -34 -114v-38c0 -49.333 11.5 -87.166 34.5 -113.499s53.5 -39.5 91.5 -39.5c59.333 0 97.333 25.667 114 77h96c-10.667 -50 -33.334 -89.667 -68.001 -119s-80.334 -44 -137.001 -44zM221.003 559.998l-116 150h88l77 -88
l77 88h88l-116 -150h-98z" />
    <glyph glyph-name="Dcaron" unicode="&#x10e;" horiz-adv-x="680" 
d="M80 0v700h220c104 0 184.167 -27.833 240.5 -83.5s84.5 -134.5 84.5 -236.5v-60c0 -100.667 -28.5 -179.167 -85.5 -235.5s-136.833 -84.5 -239.5 -84.5h-220zM300 614l-126 -0.000976562v-528h126c151.333 0 227 78 227 234v60c0 76.667 -19.5 134.834 -58.5 174.501
s-95.167 59.5 -168.5 59.5zM267 759.999l-112 150h92l73 -87l73 87h92l-112 -150h-106z" />
    <glyph glyph-name="dcaron" unicode="&#x10f;" horiz-adv-x="560" 
d="M242 -8c-58.667 0 -106.168 20.833 -142.501 62.5s-54.5 100.5 -54.5 176.5v38c0 75.333 18.333 134 55 176s84.334 63 143.001 63c65.333 0 116 -22 152 -66v258h90v-700h-70l-10 71c-34.667 -52.667 -89 -79 -163 -79zM266.999 78c38 0 68.8311 13.501 92.498 40.501
s35.5 64.5 35.5 112.5v45c-1.33301 46.667 -13.666 82.667 -36.999 108s-53.666 38 -90.999 38c-40.667 0 -72.167 -12.833 -94.5 -38.5s-33.5 -63.834 -33.5 -114.501v-38c0 -50 11.333 -88 34 -114s54 -39 94 -39zM544.997 530.001v170h90l-20 -170h-70z" />
    <glyph glyph-name="Dcroat" unicode="&#x110;" horiz-adv-x="705" 
d="M15 312v76h90v312h220c104 0 184.167 -27.833 240.5 -83.5s84.5 -134.5 84.5 -236.5v-60c0 -100.667 -28.5 -179.167 -85.5 -235.5s-136.833 -84.5 -239.5 -84.5h-220v312h-90zM325 614l-126 -0.000976562v-226h176v-76h-176v-226h126c151.333 0 227 78 227 234v60
c0 76.667 -19.5 134.834 -58.5 174.501s-95.167 59.5 -168.5 59.5z" />
    <glyph glyph-name="dcroat" unicode="&#x111;" horiz-adv-x="560" 
d="M225 524l-0.000976562 72h160v104h90v-104h85v-72h-85v-524h-70l-10 69c-36 -51.333 -90.333 -77 -163 -77c-58 0 -105.333 20.167 -142 60.5s-55 94.833 -55 163.5v38c0 68.667 18.5 123.167 55.5 163.5s84.5 60.5 142.5 60.5c64.667 0 115.334 -21.333 152.001 -64v110
h-160zM256.999 78c37.333 0 68 12.666 92 37.999s36 58.666 36 99.999v44c-1.33301 40 -14 72 -38 96s-54 36 -90 36c-39.333 0 -70.5 -12.167 -93.5 -36.5s-34.5 -58.166 -34.5 -101.499v-38c0 -43.333 11.333 -77.166 34 -101.499s54 -36.5 94 -36.5z" />
    <glyph glyph-name="Emacron" unicode="&#x112;" horiz-adv-x="560" 
d="M80 0v700h435v-86h-341v-211h281v-86h-281v-231h341v-86h-435zM147 797v76h300v-76h-300z" />
    <glyph glyph-name="emacron" unicode="&#x113;" horiz-adv-x="540" 
d="M270 -8c-67.333 0 -121.669 21.499 -163.002 64.499s-62 101.167 -62 174.5v38c0 72 20.833 129.833 62.5 173.5s95.834 65.5 162.501 65.5c67.333 0 121.666 -21.667 162.999 -65s62 -101.333 62 -174v-48h-356c1.33301 -47.333 13.833 -83.666 37.5 -108.999
s54.834 -38 93.501 -38c37.333 0 65.333 6.5 84 19.5s33.334 33.5 44.001 61.5h92c-22 -108.667 -95.333 -163 -220 -163zM269.997 425.999c-36.667 0 -66.332 -10.833 -88.999 -32.5s-36.334 -53.167 -41.001 -94.5h259c-8 84.667 -51 127 -129 127zM129.999 597.999v74
h280v-74h-280z" />
    <glyph glyph-name="Ebreve" unicode="&#x114;" horiz-adv-x="560" 
d="M80 0v700h435v-86h-341v-211h281v-86h-281v-231h341v-86h-435zM297 762c-48.667 0 -85.832 12.167 -111.499 36.5s-38.5 58.166 -38.5 101.499h74c0 -21.333 6.5 -38 19.5 -50s31.833 -18 56.5 -18c52 0 78 22.667 78 68h72c0 -43.333 -12.833 -77.166 -38.5 -101.499
s-62.834 -36.5 -111.501 -36.5z" />
    <glyph glyph-name="ebreve" unicode="&#x115;" horiz-adv-x="540" 
d="M270 -8c-67.333 0 -121.669 21.499 -163.002 64.499s-62 101.167 -62 174.5v38c0 72 20.833 129.833 62.5 173.5s95.834 65.5 162.501 65.5c67.333 0 121.666 -21.667 162.999 -65s62 -101.333 62 -174v-48h-356c1.33301 -47.333 13.833 -83.666 37.5 -108.999
s54.834 -38 93.501 -38c37.333 0 65.333 6.5 84 19.5s33.334 33.5 44.001 61.5h92c-22 -108.667 -95.333 -163 -220 -163zM269.997 425.999c-36.667 0 -66.332 -10.833 -88.999 -32.5s-36.334 -53.167 -41.001 -94.5h259c-8 84.667 -51 127 -129 127zM269.999 561.999
c-44 0 -78.333 12.167 -103 36.5s-37 58.166 -37 101.499h72c0 -22 6 -39.167 18 -51.5s28.667 -18.5 50 -18.5c22 0 39.167 6.16699 51.5 18.5s18.5 29.5 18.5 51.5h70c0 -43.333 -12.333 -77.166 -37 -101.499s-59 -36.5 -103 -36.5z" />
    <glyph glyph-name="Edotaccent" unicode="&#x116;" horiz-adv-x="560" 
d="M80 0v700h435v-86h-341v-211h281v-86h-281v-231h341v-86h-435zM297 775c-16.667 0 -30.834 5.83301 -42.501 17.5s-17.5 25.834 -17.5 42.501s5.83301 30.834 17.5 42.501s25.834 17.5 42.501 17.5s30.834 -5.83301 42.501 -17.5s17.5 -25.834 17.5 -42.501
s-5.83301 -30.834 -17.5 -42.501s-25.834 -17.5 -42.501 -17.5z" />
    <glyph glyph-name="edotaccent" unicode="&#x117;" horiz-adv-x="540" 
d="M270 -8c-67.333 0 -121.669 21.499 -163.002 64.499s-62 101.167 -62 174.5v38c0 72 20.833 129.833 62.5 173.5s95.834 65.5 162.501 65.5c67.333 0 121.666 -21.667 162.999 -65s62 -101.333 62 -174v-48h-356c1.33301 -47.333 13.833 -83.666 37.5 -108.999
s54.834 -38 93.501 -38c37.333 0 65.333 6.5 84 19.5s33.334 33.5 44.001 61.5h92c-22 -108.667 -95.333 -163 -220 -163zM269.997 425.999c-36.667 0 -66.332 -10.833 -88.999 -32.5s-36.334 -53.167 -41.001 -94.5h259c-8 84.667 -51 127 -129 127zM269.999 575.999
c-17.333 0 -31.666 5.66699 -42.999 17s-17 25.666 -17 42.999s5.66699 31.666 17 42.999s25.666 17 42.999 17s31.666 -5.66699 42.999 -17s17 -25.666 17 -42.999s-5.66699 -31.666 -17 -42.999s-25.666 -17 -42.999 -17z" />
    <glyph glyph-name="Eogonek" unicode="&#x118;" horiz-adv-x="560" 
d="M80 0l0.000976562 700h435v-86h-341v-211h281v-86h-281v-231h341v-86c-32.667 -28.667 -53.834 -49.667 -63.501 -63s-14.5 -26.333 -14.5 -39c0 -18.667 11 -28 33 -28h45v-70h-55c-70 0 -105 28.333 -105 85c0 18.667 3.66699 36.5 11 53.5s23 37.5 47 61.5h-333z" />
    <glyph glyph-name="eogonek" unicode="&#x119;" horiz-adv-x="540" 
d="M455 -200l-55.002 -0.000976562c-70 0 -105 26.667 -105 80c0 20 3.16699 38.5 9.5 55.5s18.166 39.5 35.499 67.5c-20 -7.33301 -43.333 -11 -70 -11c-67.333 0 -121.666 21.5 -162.999 64.5s-62 101.167 -62 174.5v38c0 72 20.833 129.833 62.5 173.5
s95.834 65.5 162.501 65.5c67.333 0 121.666 -21.667 162.999 -65s62 -101.333 62 -174v-48h-356c1.33301 -47.333 13.833 -83.666 37.5 -108.999s54.834 -38 93.501 -38c37.333 0 65.333 6.16699 84 18.5s33.334 31.5 44.001 57.5h92c-4.66699 -24 -14 -47.667 -28 -71
l-23.5 -38.5c-9.66699 -15.667 -16.5 -27 -20.5 -34l-15.5 -26.5c-6.33301 -10.667 -10.833 -19 -13.5 -25s-5.5 -12.833 -8.5 -20.5s-5 -14.5 -6 -20.5s-1.5 -12.333 -1.5 -19c0 -19.333 12.333 -29 37 -29h45v-66zM269.998 425.999
c-36.667 0 -66.332 -10.833 -88.999 -32.5s-36.334 -53.167 -41.001 -94.5h259c-8 84.667 -51 127 -129 127z" />
    <glyph glyph-name="Ecaron" unicode="&#x11a;" horiz-adv-x="560" 
d="M80 0v700h435v-86h-341v-211h281v-86h-281v-231h341v-86h-435zM244 760l-112 150h92l73 -87l73 87h92l-112 -150h-106z" />
    <glyph glyph-name="ecaron" unicode="&#x11b;" horiz-adv-x="540" 
d="M270 -8c-67.333 0 -121.669 21.499 -163.002 64.499s-62 101.167 -62 174.5v38c0 72 20.833 129.833 62.5 173.5s95.834 65.5 162.501 65.5c67.333 0 121.666 -21.667 162.999 -65s62 -101.333 62 -174v-48h-356c1.33301 -47.333 13.833 -83.666 37.5 -108.999
s54.834 -38 93.501 -38c37.333 0 65.333 6.5 84 19.5s33.334 33.5 44.001 61.5h92c-22 -108.667 -95.333 -163 -220 -163zM269.997 425.999c-36.667 0 -66.332 -10.833 -88.999 -32.5s-36.334 -53.167 -41.001 -94.5h259c-8 84.667 -51 127 -129 127zM220.999 559.999
l-116 150h88l77 -88l77 88h88l-116 -150h-98z" />
    <glyph glyph-name="Gcircumflex" unicode="&#x11c;" horiz-adv-x="680" 
d="M340 267v86h285v-43c0 -102 -24.667 -180.5 -74 -235.5s-116.333 -82.5 -201 -82.5c-89.333 0 -160.833 29.167 -214.5 87.5s-80.5 138.833 -80.5 241.5v58c0 102.667 27 183.167 81 241.5s125.333 87.5 214 87.5c74.667 0 135.667 -20 183 -60s76.333 -91 87 -153h-100
c-10.667 36 -30.5 65.5 -59.5 88.5s-65.833 34.5 -110.5 34.5c-60 0 -107.833 -20.667 -143.5 -62s-53.5 -100.333 -53.5 -177v-58c0 -75.333 18.333 -134 55 -176s84 -63 142 -63c56 0 99.333 14.833 130 44.5s48.667 76.5 54 140.5h-194zM423 760l-73 86l-73 -86h-92
l112 150h106l112 -150h-92z" />
    <glyph glyph-name="gcircumflex" unicode="&#x11d;" horiz-adv-x="560" 
d="M243 12c-58.667 0 -106.333 20.334 -143 61.001s-55 96.667 -55 168v38c0 70.667 18.333 126.5 55 167.5s84.334 61.5 143.001 61.5c72.667 0 126.667 -26.333 162 -79l10 71h70v-500c0 -68 -18 -119.667 -54 -155s-88.667 -53 -158 -53
c-124.667 0 -192.334 52.667 -203.001 158h90c5.33301 -26.667 16.333 -46.334 33 -59.001s43.334 -19 80.001 -19c43.333 0 74.5 9.83301 93.5 29.5s28.5 52.5 28.5 98.5v76c-36.667 -42.667 -87.334 -64 -152.001 -64zM267.001 98.001c38 0 68.833 12.833 92.5 38.5
s35.5 60.5 35.5 104.5v38c0 44 -11.833 78.833 -35.5 104.5s-54.5 38.5 -92.5 38.5c-40 0 -71.333 -12.333 -94 -37s-34 -60 -34 -106v-38c0 -46 11.333 -81.333 34 -106s54 -37 94 -37zM344.001 560.001l-77 87l-77 -87h-88l116 150h98l116 -150h-88z" />
    <glyph glyph-name="Gbreve" unicode="&#x11e;" horiz-adv-x="680" 
d="M340 267v86h285v-43c0 -102 -24.667 -180.5 -74 -235.5s-116.333 -82.5 -201 -82.5c-89.333 0 -160.833 29.167 -214.5 87.5s-80.5 138.833 -80.5 241.5v58c0 102.667 27 183.167 81 241.5s125.333 87.5 214 87.5c74.667 0 135.667 -20 183 -60s76.333 -91 87 -153h-100
c-10.667 36 -30.5 65.5 -59.5 88.5s-65.833 34.5 -110.5 34.5c-60 0 -107.833 -20.667 -143.5 -62s-53.5 -100.333 -53.5 -177v-58c0 -75.333 18.333 -134 55 -176s84 -63 142 -63c56 0 99.333 14.833 130 44.5s48.667 76.5 54 140.5h-194zM350 762
c-48.667 0 -85.832 12.167 -111.499 36.5s-38.5 58.166 -38.5 101.499h74c0 -21.333 6.5 -38 19.5 -50s31.833 -18 56.5 -18c52 0 78 22.667 78 68h72c0 -43.333 -12.833 -77.166 -38.5 -101.499s-62.834 -36.5 -111.501 -36.5z" />
    <glyph glyph-name="gbreve" unicode="&#x11f;" horiz-adv-x="560" 
d="M243 12c-58.667 0 -106.333 20.334 -143 61.001s-55 96.667 -55 168v38c0 70.667 18.333 126.5 55 167.5s84.334 61.5 143.001 61.5c72.667 0 126.667 -26.333 162 -79l10 71h70v-500c0 -68 -18 -119.667 -54 -155s-88.667 -53 -158 -53
c-124.667 0 -192.334 52.667 -203.001 158h90c5.33301 -26.667 16.333 -46.334 33 -59.001s43.334 -19 80.001 -19c43.333 0 74.5 9.83301 93.5 29.5s28.5 52.5 28.5 98.5v76c-36.667 -42.667 -87.334 -64 -152.001 -64zM267.001 98.001c38 0 68.833 12.833 92.5 38.5
s35.5 60.5 35.5 104.5v38c0 44 -11.833 78.833 -35.5 104.5s-54.5 38.5 -92.5 38.5c-40 0 -71.333 -12.333 -94 -37s-34 -60 -34 -106v-38c0 -46 11.333 -81.333 34 -106s54 -37 94 -37zM265.001 562.001c-44 0 -78.333 12.167 -103 36.5s-37 58.166 -37 101.499h72
c0 -22 6 -39.167 18 -51.5s28.667 -18.5 50 -18.5c22 0 39.167 6.16699 51.5 18.5s18.5 29.5 18.5 51.5h70c0 -43.333 -12.333 -77.166 -37 -101.499s-59 -36.5 -103 -36.5z" />
    <glyph glyph-name="Gdotaccent" unicode="&#x120;" horiz-adv-x="680" 
d="M340 267v86h285v-43c0 -102 -24.667 -180.5 -74 -235.5s-116.333 -82.5 -201 -82.5c-89.333 0 -160.833 29.167 -214.5 87.5s-80.5 138.833 -80.5 241.5v58c0 102.667 27 183.167 81 241.5s125.333 87.5 214 87.5c74.667 0 135.667 -20 183 -60s76.333 -91 87 -153h-100
c-10.667 36 -30.5 65.5 -59.5 88.5s-65.833 34.5 -110.5 34.5c-60 0 -107.833 -20.667 -143.5 -62s-53.5 -100.333 -53.5 -177v-58c0 -75.333 18.333 -134 55 -176s84 -63 142 -63c56 0 99.333 14.833 130 44.5s48.667 76.5 54 140.5h-194zM350 775
c-17.333 0 -31.666 5.83301 -42.999 17.5s-17 25.834 -17 42.501s5.66699 30.834 17 42.501s25.666 17.5 42.999 17.5s31.666 -5.83301 42.999 -17.5s17 -25.834 17 -42.501s-5.66699 -30.834 -17 -42.501s-25.666 -17.5 -42.999 -17.5z" />
    <glyph glyph-name="gdotaccent" unicode="&#x121;" horiz-adv-x="560" 
d="M243 12c-58.667 0 -106.333 20.334 -143 61.001s-55 96.667 -55 168v38c0 70.667 18.333 126.5 55 167.5s84.334 61.5 143.001 61.5c72.667 0 126.667 -26.333 162 -79l10 71h70v-500c0 -68 -18 -119.667 -54 -155s-88.667 -53 -158 -53
c-124.667 0 -192.334 52.667 -203.001 158h90c5.33301 -26.667 16.333 -46.334 33 -59.001s43.334 -19 80.001 -19c43.333 0 74.5 9.83301 93.5 29.5s28.5 52.5 28.5 98.5v76c-36.667 -42.667 -87.334 -64 -152.001 -64zM267.001 98.001c38 0 68.833 12.833 92.5 38.5
s35.5 60.5 35.5 104.5v38c0 44 -11.833 78.833 -35.5 104.5s-54.5 38.5 -92.5 38.5c-40 0 -71.333 -12.333 -94 -37s-34 -60 -34 -106v-38c0 -46 11.333 -81.333 34 -106s54 -37 94 -37zM265.001 576.001c-16.667 0 -30.834 5.66699 -42.501 17s-17.5 25.666 -17.5 42.999
s5.83301 31.666 17.5 42.999s25.834 17 42.501 17s30.834 -5.66699 42.501 -17s17.5 -25.666 17.5 -42.999s-5.83301 -31.666 -17.5 -42.999s-25.834 -17 -42.501 -17z" />
    <glyph glyph-name="Gcommaaccent" unicode="&#x122;" horiz-adv-x="680" 
d="M340 267v86h285v-43c0 -102 -24.667 -180.5 -74 -235.5s-116.333 -82.5 -201 -82.5c-89.333 0 -160.833 29.167 -214.5 87.5s-80.5 138.833 -80.5 241.5v58c0 102.667 27 183.167 81 241.5s125.333 87.5 214 87.5c74.667 0 135.667 -20 183 -60s76.333 -91 87 -153h-100
c-10.667 36 -30.5 65.5 -59.5 88.5s-65.833 34.5 -110.5 34.5c-60 0 -107.833 -20.667 -143.5 -62s-53.5 -100.333 -53.5 -177v-58c0 -75.333 18.333 -134 55 -176s84 -63 142 -63c56 0 99.333 14.833 130 44.5s48.667 76.5 54 140.5h-194zM232 -200l66 150h104l-96 -150
h-74z" />
    <glyph glyph-name="gcommaaccent" unicode="&#x123;" horiz-adv-x="560" 
d="M243 12c-58.667 0 -106.333 20.334 -143 61.001s-55 96.667 -55 168v38c0 70.667 18.333 126.5 55 167.5s84.334 61.5 143.001 61.5c72.667 0 126.667 -26.333 162 -79l10 71h70v-500c0 -68 -18 -119.667 -54 -155s-88.667 -53 -158 -53
c-124.667 0 -192.334 52.667 -203.001 158h90c5.33301 -26.667 16.333 -46.334 33 -59.001s43.334 -19 80.001 -19c43.333 0 74.5 9.83301 93.5 29.5s28.5 52.5 28.5 98.5v76c-36.667 -42.667 -87.334 -64 -152.001 -64zM267.001 98.001c38 0 68.833 12.833 92.5 38.5
s35.5 60.5 35.5 104.5v38c0 44 -11.833 78.833 -35.5 104.5s-54.5 38.5 -92.5 38.5c-40 0 -71.333 -12.333 -94 -37s-34 -60 -34 -106v-38c0 -46 11.333 -81.333 34 -106s54 -37 94 -37zM385.001 700.001l-70 -150h-100l100 150h70z" />
    <glyph glyph-name="Hcircumflex" unicode="&#x124;" horiz-adv-x="710" 
d="M536 0v317h-362v-317h-94v700h94v-297h362v297h94v-700h-94zM428 760l-73 86l-73 -86h-92l112 150h106l112 -150h-92z" />
    <glyph glyph-name="hcircumflex" unicode="&#x125;" horiz-adv-x="575" 
d="M75 0l-0.000976562 700h90v-259c34 44.667 84 67 150 67c58.667 0 105 -18.5 139 -55.5s51 -89.5 51 -157.5v-295h-90v295c0 84.667 -38.333 127 -115 127c-40 0 -72.167 -11.167 -96.5 -33.5s-37.166 -51.833 -38.499 -88.5v-300h-90zM196.999 760l-77 87l-77 -87h-88
l116 150h98l116 -150h-88z" />
    <glyph glyph-name="Hbar" unicode="&#x126;" horiz-adv-x="760" 
d="M10 523v74h95v103h94v-103h362v103h94v-103h95v-74h-95v-523h-94v317h-362v-317h-94v523h-95zM199 403h362v120h-362v-120z" />
    <glyph glyph-name="hbar" unicode="&#x127;" horiz-adv-x="575" 
d="M415 0l-0.000976562 265c0 84.667 -38.333 127 -115 127c-40 0 -72.167 -11.333 -96.5 -34s-37.166 -52 -38.499 -88v-270h-90v524h-85v72h85v104h90v-104h160v-72h-160v-113c34 44.667 84 67 150 67c58.667 0 105 -18.5 139 -55.5s51 -89.5 51 -157.5v-265h-90z" />
    <glyph glyph-name="Itilde" unicode="&#x128;" horiz-adv-x="270" 
d="M88 0v700h94v-700h-94zM205 765c-21.333 0 -40.8311 5.5 -58.498 16.5s-33 22.167 -46 33.5s-24.833 17 -35.5 17c-24.667 0 -37 -17.333 -37 -52h-63c0 83.333 33.333 125 100 125c21.333 0 40.666 -5.5 57.999 -16.5s32.666 -21.833 45.999 -32.5s25.333 -16 36 -16
c24.667 0 37 16.667 37 50h63c0 -83.333 -33.333 -125 -100 -125z" />
    <glyph glyph-name="itilde" unicode="&#x129;" horiz-adv-x="256" 
d="M83 0v500h90v-500h-90zM193 565c-20 0 -38.3311 5.5 -54.998 16.5s-31 22 -43 33s-22.667 16.5 -32 16.5c-21.333 0 -32 -17 -32 -51h-63c0 41.333 8.5 72.5 25.5 93.5s40.167 31.5 69.5 31.5c20 0 38.167 -5.5 54.5 -16.5s30.666 -22 42.999 -33
s23.166 -16.5 32.499 -16.5c21.333 0 32 17 32 51h63c0 -41.333 -8.5 -72.5 -25.5 -93.5s-40.167 -31.5 -69.5 -31.5z" />
    <glyph glyph-name="Imacron" unicode="&#x12a;" horiz-adv-x="270" 
d="M88 0v700h94v-700h-94zM-15 797v76h300v-76h-300z" />
    <glyph glyph-name="imacron" unicode="&#x12b;" horiz-adv-x="256" 
d="M83 0v500h90v-500h-90zM-12 598v74h280v-74h-280z" />
    <glyph glyph-name="Ibreve" unicode="&#x12c;" horiz-adv-x="270" 
d="M88 0v700h94v-700h-94zM135 762c-48.667 0 -85.832 12.167 -111.499 36.5s-38.5 58.166 -38.5 101.499h74c0 -21.333 6.5 -38 19.5 -50s31.833 -18 56.5 -18c52 0 78 22.667 78 68h72c0 -43.333 -12.833 -77.166 -38.5 -101.499s-62.834 -36.5 -111.501 -36.5z" />
    <glyph glyph-name="ibreve" unicode="&#x12d;" horiz-adv-x="256" 
d="M83 0v500h90v-500h-90zM128 562c-44 0 -78.333 12.167 -103 36.5s-37 58.166 -37 101.499h72c0 -22 6 -39.167 18 -51.5s28.667 -18.5 50 -18.5c22 0 39.167 6.16699 51.5 18.5s18.5 29.5 18.5 51.5h70c0 -43.333 -12.333 -77.166 -37 -101.499s-59 -36.5 -103 -36.5z
" />
    <glyph glyph-name="Iogonek" unicode="&#x12e;" horiz-adv-x="270" 
d="M182 -200h-54.998c-70 0 -105 28.333 -105 85c0 20 4.16699 39 12.5 57s26.166 40 53.499 66v692h94v-700c-32.667 -28.667 -53.834 -49.667 -63.501 -63s-14.5 -26.333 -14.5 -39c0 -18.667 11 -28 33 -28h45v-70z" />
    <glyph glyph-name="iogonek" unicode="&#x12f;" horiz-adv-x="256" 
d="M173 -200h-55c-70 0 -105 26.667 -105 80c0 22 4.5 42.333 13.5 61s27.833 41 56.5 67v492h90v-500c-34 -28 -56.167 -49.5 -66.5 -64.5s-15.5 -28.5 -15.5 -40.5c0 -19.333 12.333 -29 37 -29h45v-66zM129 576c-16.667 0 -30.834 5.66699 -42.501 17
s-17.5 25.666 -17.5 42.999s5.83301 31.666 17.5 42.999s25.834 17 42.501 17s30.834 -5.66699 42.501 -17s17.5 -25.666 17.5 -42.999s-5.83301 -31.666 -17.5 -42.999s-25.834 -17 -42.501 -17z" />
    <glyph glyph-name="Idotaccent" unicode="&#x130;" horiz-adv-x="270" 
d="M88 0v700h94v-700h-94zM135 775c-16.667 0 -30.834 5.83301 -42.501 17.5s-17.5 25.834 -17.5 42.501s5.83301 30.834 17.5 42.501s25.834 17.5 42.501 17.5s30.834 -5.83301 42.501 -17.5s17.5 -25.834 17.5 -42.501s-5.83301 -30.834 -17.5 -42.501
s-25.834 -17.5 -42.501 -17.5z" />
    <glyph glyph-name="dotlessi" unicode="&#x131;" horiz-adv-x="256" 
d="M83 0v500h90v-500h-90z" />
    <glyph glyph-name="IJ" unicode="&#x132;" horiz-adv-x="800" 
d="M88 0v700h94v-700h-94zM505 -8c-65.333 0 -117 20.5 -155 61.5s-59.667 98.167 -65 171.5h94c2.66699 -46 14.667 -81.333 36 -106s51.333 -37 90 -37c84 0 126 56 126 168v450h94v-450c0 -84 -19.5 -148 -58.5 -192s-92.833 -66 -161.5 -66z" />
    <glyph glyph-name="ij" unicode="&#x133;" horiz-adv-x="492" 
d="M82 0v500h90v-500h-90zM208 -200v82h33c26.667 0 46.167 8 58.5 24s18.5 42.333 18.5 79v515h90v-515c0 -66 -13.167 -113.333 -39.5 -142s-68.833 -43 -127.5 -43h-33zM364 576c-17.333 0 -31.666 5.66699 -42.999 17s-17 25.666 -17 42.999s5.66699 31.666 17 42.999
s25.666 17 42.999 17s31.666 -5.66699 42.999 -17s17 -25.666 17 -42.999s-5.66699 -31.666 -17 -42.999s-25.666 -17 -42.999 -17zM128 576c-17.333 0 -31.666 5.66699 -42.999 17s-17 25.666 -17 42.999s5.66699 31.666 17 42.999s25.666 17 42.999 17
s31.666 -5.66699 42.999 -17s17 -25.666 17 -42.999s-5.66699 -31.666 -17 -42.999s-25.666 -17 -42.999 -17z" />
    <glyph glyph-name="Jcircumflex" unicode="&#x134;" horiz-adv-x="535" 
d="M240 -8c-65.333 0 -117 20.5 -155 61.5s-59.667 98.167 -65 171.5h94c2.66699 -46 14.667 -81.333 36 -106s51.333 -37 90 -37c84 0 126 56 126 168v450h94v-450c0 -84 -19.5 -148 -58.5 -192s-92.833 -66 -161.5 -66zM486 760l-73 86l-73 -86h-92l112 150h106l112 -150
h-92z" />
    <glyph glyph-name="jcircumflex" unicode="&#x135;" horiz-adv-x="256" 
d="M-27 -200v82h33c26.667 0 46.167 8 58.5 24s18.5 42.333 18.5 79v515h90v-515c0 -66 -13.167 -113.333 -39.5 -142s-68.833 -43 -127.5 -43h-33zM205 560l-77 87l-77 -87h-88l116 150h98l116 -150h-88z" />
    <glyph glyph-name="Kcommaaccent" unicode="&#x136;" horiz-adv-x="635" 
d="M492 0l-225 319l-93 -110v-209h-94v700h94v-367l300 367h116l-258 -311l278 -389h-118zM215 -200l66 150h104l-96 -150h-74z" />
    <glyph glyph-name="kcommaaccent" unicode="&#x137;" horiz-adv-x="510" 
d="M385 0l-142 215l-78 -96v-119h-90v700h90v-457l202 257h108l-173 -219l193 -281h-110zM155 -200l70 150h100l-100 -150h-70z" />
    <glyph glyph-name="kgreenlandic" unicode="&#x138;" horiz-adv-x="510" 
d="M385 0l-142 215l-78 -96v-119h-90v500h90v-257l202 257h108l-173 -219l193 -281h-110z" />
    <glyph glyph-name="Lacute" unicode="&#x139;" horiz-adv-x="515" 
d="M80 0v700h94v-614h321v-86h-415zM81 760l112 150h108l-128 -150h-92z" />
    <glyph glyph-name="lacute" unicode="&#x13a;" horiz-adv-x="285" 
d="M221 0c-47.333 0 -83.5 12.668 -108.5 38.001s-37.5 61.666 -37.5 108.999v553h90v-543c0 -50 23 -75 69 -75h31v-82h-44zM75 760.001l116 150h104l-130 -150h-90z" />
    <glyph glyph-name="Lcommaaccent" unicode="&#x13b;" horiz-adv-x="515" 
d="M80 0v700h94v-614h321v-86h-415zM169 -200l66 150h104l-96 -150h-74z" />
    <glyph glyph-name="lcommaaccent" unicode="&#x13c;" horiz-adv-x="285" 
d="M221 0c-47.333 0 -83.5 12.668 -108.5 38.001s-37.5 61.666 -37.5 108.999v553h90v-543c0 -50 23 -75 69 -75h31v-82h-44zM60 -199.999l70 150h100l-100 -150h-70z" />
    <glyph glyph-name="Lcaron" unicode="&#x13d;" horiz-adv-x="515" 
d="M294 450v250h94l-25 -250h-69zM80 0v700h94v-614h321v-86h-415z" />
    <glyph glyph-name="lcaron" unicode="&#x13e;" horiz-adv-x="285" 
d="M225 530v170h90l-20 -170h-70zM221 0c-47.333 0 -83.5 12.668 -108.5 38.001s-37.5 61.666 -37.5 108.999v553h90v-543c0 -50 23 -75 69 -75h31v-82h-44z" />
    <glyph glyph-name="Ldot" unicode="&#x13f;" horiz-adv-x="515" 
d="M80 0v700h94v-614h321v-86h-415zM384 335c-17.333 0 -31.666 5.83301 -42.999 17.5s-17 25.834 -17 42.501s5.66699 30.834 17 42.501s25.666 17.5 42.999 17.5s31.666 -5.83301 42.999 -17.5s17 -25.834 17 -42.501s-5.66699 -30.834 -17 -42.501
s-25.666 -17.5 -42.999 -17.5z" />
    <glyph glyph-name="ldot" unicode="&#x140;" horiz-adv-x="325" 
d="M221 0c-47.333 0 -83.5 12.668 -108.5 38.001s-37.5 61.666 -37.5 108.999v553h90v-543c0 -50 23 -75 69 -75h31v-82h-44zM282 305.001c-17.333 0 -31.666 5.83301 -42.999 17.5s-17 25.834 -17 42.501s5.66699 30.834 17 42.501s25.666 17.5 42.999 17.5
s31.666 -5.83301 42.999 -17.5s17 -25.834 17 -42.501s-5.66699 -30.834 -17 -42.501s-25.666 -17.5 -42.999 -17.5z" />
    <glyph glyph-name="Lslash" unicode="&#x141;" horiz-adv-x="540" 
d="M10 223v84l95 54v339h94v-286l166 94v-84l-166 -94v-244h321v-86h-415v277z" />
    <glyph glyph-name="lslash" unicode="&#x142;" horiz-adv-x="305" 
d="M10 273v84.001l85 49v294h90v-242l85 50v-84l-85 -50v-217c0 -50 23 -75 69 -75h31v-82h-44c-47.333 0 -83.5 12.667 -108.5 38s-37.5 61.666 -37.5 108.999v175z" />
    <glyph glyph-name="Nacute" unicode="&#x143;" horiz-adv-x="710" 
d="M496 0l-271 490l-51 102v-592h-94v700h134l271 -490l51 -102v592h94v-700h-134zM309 760l112 150h108l-128 -150h-92z" />
    <glyph glyph-name="nacute" unicode="&#x144;" horiz-adv-x="575" 
d="M75 0l-0.00195312 500h70l9 -69c36.667 51.333 90.334 77 161.001 77c58.667 0 105 -18.5 139 -55.5s51 -89.5 51 -157.5v-295h-90v295c0 84.667 -38.333 127 -115 127c-40 0 -72.167 -11.167 -96.5 -33.5s-37.166 -51.833 -38.499 -88.5v-300h-90zM244.998 560l116 150
h104l-130 -150h-90z" />
    <glyph glyph-name="Ncommaaccent" unicode="&#x145;" horiz-adv-x="710" 
d="M496 0l-271 490l-51 102v-592h-94v700h134l271 -490l51 -102v592h94v-700h-134zM237 -200l66 150h104l-96 -150h-74z" />
    <glyph glyph-name="ncommaaccent" unicode="&#x146;" horiz-adv-x="575" 
d="M75 0l-0.00195312 500h70l9 -69c36.667 51.333 90.334 77 161.001 77c58.667 0 105 -18.5 139 -55.5s51 -89.5 51 -157.5v-295h-90v295c0 84.667 -38.333 127 -115 127c-40 0 -72.167 -11.167 -96.5 -33.5s-37.166 -51.833 -38.499 -88.5v-300h-90zM169.998 -200l70 150
h100l-100 -150h-70z" />
    <glyph glyph-name="Ncaron" unicode="&#x147;" horiz-adv-x="710" 
d="M496 0l-271 490l-51 102v-592h-94v700h134l271 -490l51 -102v592h94v-700h-134zM302 760l-112 150h92l73 -87l73 87h92l-112 -150h-106z" />
    <glyph glyph-name="ncaron" unicode="&#x148;" horiz-adv-x="575" 
d="M75 0l-0.00195312 500h70l9 -69c36.667 51.333 90.334 77 161.001 77c58.667 0 105 -18.5 139 -55.5s51 -89.5 51 -157.5v-295h-90v295c0 84.667 -38.333 127 -115 127c-40 0 -72.167 -11.167 -96.5 -33.5s-37.166 -51.833 -38.499 -88.5v-300h-90zM240.998 560l-116 150
h88l77 -88l77 88h88l-116 -150h-98z" />
    <glyph glyph-name="napostrophe" unicode="&#x149;" horiz-adv-x="660" 
d="M160 0l-0.00195312 500h70l9 -69c36.667 51.333 90.334 77 161.001 77c58.667 0 105 -18.5 139 -55.5s51 -89.5 51 -157.5v-295h-90v295c0 84.667 -38.333 127 -115 127c-40 0 -72.167 -11.167 -96.5 -33.5s-37.166 -51.833 -38.499 -88.5v-300h-90zM-0.00195312 450
l62 250h98l-78 -250h-82z" />
    <glyph glyph-name="Eng" unicode="&#x14a;" horiz-adv-x="710" 
d="M430 -200v86h33c26 0 44.667 7.5 56 22.5s17 40.5 17 76.5v15l-302 490l-60 100v-590h-94v700h133l265 -430l58 -102v532h94v-715c0 -66 -13.167 -113.333 -39.5 -142s-68.833 -43 -127.5 -43h-33z" />
    <glyph glyph-name="eng" unicode="&#x14b;" horiz-adv-x="575" 
d="M305 -200l-0.00195312 82h33c26.667 0 46.167 8 58.5 24s18.5 42.333 18.5 79v310c0 84.667 -38.333 127 -115 127c-40 0 -72.167 -11.167 -96.5 -33.5s-37.166 -51.833 -38.499 -88.5v-300h-90v500h70l9 -69c36.667 51.333 90.334 77 161.001 77
c58.667 0 105 -18.5 139 -55.5s51 -89.5 51 -157.5v-310c0 -66 -13.167 -113.333 -39.5 -142s-68.833 -43 -127.5 -43h-33z" />
    <glyph glyph-name="Omacron" unicode="&#x14c;" horiz-adv-x="710" 
d="M355 -8c-90 0 -162.5 29.333 -217.5 88s-82.5 139 -82.5 241v58c0 101.333 27.667 181.5 83 240.5s127.666 88.5 216.999 88.5c90 0 162.5 -29.333 217.5 -88s82.5 -139 82.5 -241v-58c0 -101.333 -27.667 -181.5 -83 -240.5s-127.666 -88.5 -216.999 -88.5zM355 82
c60.667 0 109.5 20.833 146.5 62.5s55.5 100.5 55.5 176.5v58c0 75.333 -18.667 134 -56 176s-86 63 -146 63c-60.667 0 -109.5 -20.833 -146.5 -62.5s-55.5 -100.5 -55.5 -176.5v-58c0 -75.333 18.667 -134 56 -176s86 -63 146 -63zM205 797v76h300v-76h-300z" />
    <glyph glyph-name="omacron" unicode="&#x14d;" horiz-adv-x="550" 
d="M275 -8c-70.667 0 -126.667 21.333 -168 64s-62 101 -62 175v38c0 73.333 20.833 131.5 62.5 174.5s97.5 64.5 167.5 64.5c70.667 0 126.667 -21.333 168 -64s62 -101 62 -175v-38c0 -73.333 -20.833 -131.5 -62.5 -174.5s-97.5 -64.5 -167.5 -64.5zM275 78
c42.667 0 76 13 100 39s36 64 36 114v38c0 49.333 -12.167 87.166 -36.5 113.499s-57.5 39.5 -99.5 39.5c-42.667 0 -76 -13 -100 -39s-36 -64 -36 -114v-38c0 -49.333 12.167 -87.166 36.5 -113.499s57.5 -39.5 99.5 -39.5zM135 598v74h280v-74h-280z" />
    <glyph glyph-name="Obreve" unicode="&#x14e;" horiz-adv-x="710" 
d="M355 -8c-90 0 -162.5 29.333 -217.5 88s-82.5 139 -82.5 241v58c0 101.333 27.667 181.5 83 240.5s127.666 88.5 216.999 88.5c90 0 162.5 -29.333 217.5 -88s82.5 -139 82.5 -241v-58c0 -101.333 -27.667 -181.5 -83 -240.5s-127.666 -88.5 -216.999 -88.5zM355 82
c60.667 0 109.5 20.833 146.5 62.5s55.5 100.5 55.5 176.5v58c0 75.333 -18.667 134 -56 176s-86 63 -146 63c-60.667 0 -109.5 -20.833 -146.5 -62.5s-55.5 -100.5 -55.5 -176.5v-58c0 -75.333 18.667 -134 56 -176s86 -63 146 -63zM355 762
c-48.667 0 -85.832 12.167 -111.499 36.5s-38.5 58.166 -38.5 101.499h74c0 -21.333 6.5 -38 19.5 -50s31.833 -18 56.5 -18c52 0 78 22.667 78 68h72c0 -43.333 -12.833 -77.166 -38.5 -101.499s-62.834 -36.5 -111.501 -36.5z" />
    <glyph glyph-name="obreve" unicode="&#x14f;" horiz-adv-x="550" 
d="M275 -8c-70.667 0 -126.667 21.333 -168 64s-62 101 -62 175v38c0 73.333 20.833 131.5 62.5 174.5s97.5 64.5 167.5 64.5c70.667 0 126.667 -21.333 168 -64s62 -101 62 -175v-38c0 -73.333 -20.833 -131.5 -62.5 -174.5s-97.5 -64.5 -167.5 -64.5zM275 78
c42.667 0 76 13 100 39s36 64 36 114v38c0 49.333 -12.167 87.166 -36.5 113.499s-57.5 39.5 -99.5 39.5c-42.667 0 -76 -13 -100 -39s-36 -64 -36 -114v-38c0 -49.333 12.167 -87.166 36.5 -113.499s57.5 -39.5 99.5 -39.5zM275 562c-44 0 -78.333 12.167 -103 36.5
s-37 58.166 -37 101.499h72c0 -22 6 -39.167 18 -51.5s28.667 -18.5 50 -18.5c22 0 39.167 6.16699 51.5 18.5s18.5 29.5 18.5 51.5h70c0 -43.333 -12.333 -77.166 -37 -101.499s-59 -36.5 -103 -36.5z" />
    <glyph glyph-name="Ohungarumlaut" unicode="&#x150;" horiz-adv-x="710" 
d="M355 -8c-90 0 -162.5 29.333 -217.5 88s-82.5 139 -82.5 241v58c0 101.333 27.667 181.5 83 240.5s127.666 88.5 216.999 88.5c90 0 162.5 -29.333 217.5 -88s82.5 -139 82.5 -241v-58c0 -101.333 -27.667 -181.5 -83 -240.5s-127.666 -88.5 -216.999 -88.5zM355 82
c60.667 0 109.5 20.833 146.5 62.5s55.5 100.5 55.5 176.5v58c0 75.333 -18.667 134 -56 176s-86 63 -146 63c-60.667 0 -109.5 -20.833 -146.5 -62.5s-55.5 -100.5 -55.5 -176.5v-58c0 -75.333 18.667 -134 56 -176s86 -63 146 -63zM239 760l96 150h102l-112 -150h-86z
M379 760l112 150h108l-128 -150h-92z" />
    <glyph glyph-name="ohungarumlaut" unicode="&#x151;" horiz-adv-x="550" 
d="M275 -8c-70.667 0 -126.667 21.333 -168 64s-62 101 -62 175v38c0 73.333 20.833 131.5 62.5 174.5s97.5 64.5 167.5 64.5c70.667 0 126.667 -21.333 168 -64s62 -101 62 -175v-38c0 -73.333 -20.833 -131.5 -62.5 -174.5s-97.5 -64.5 -167.5 -64.5zM275 78
c42.667 0 76 13 100 39s36 64 36 114v38c0 49.333 -12.167 87.166 -36.5 113.499s-57.5 39.5 -99.5 39.5c-42.667 0 -76 -13 -100 -39s-36 -64 -36 -114v-38c0 -49.333 12.167 -87.166 36.5 -113.499s57.5 -39.5 99.5 -39.5zM160 560l102 150h98l-116 -150h-84zM300 560
l116 150h104l-130 -150h-90z" />
    <glyph glyph-name="OE" unicode="&#x152;" horiz-adv-x="960" 
d="M483 0l-0.000976562 18c-36.667 -17.333 -78.334 -26 -125.001 -26c-92 0 -165.5 29.333 -220.5 88s-82.5 139 -82.5 241v58c0 101.333 27.833 181.5 83.5 240.5s128.834 88.5 219.501 88.5c46.667 0 88.334 -8.66699 125.001 -26v18h432v-86h-338v-211h278v-86h-278
v-231h338v-86h-432zM357.999 82c44.667 0 86.333 12 125 36v463c-39.333 24.667 -81 37 -125 37c-62 0 -111.667 -20.833 -149 -62.5s-56 -100.5 -56 -176.5v-58c0 -75.333 18.833 -134 56.5 -176s87.167 -63 148.5 -63z" />
    <glyph glyph-name="oe" unicode="&#x153;" horiz-adv-x="910" 
d="M638 -8c-80.667 0 -140.666 31.666 -179.999 94.999c-39.333 -63.333 -100.333 -95 -183 -95c-70.667 0 -126.667 21.333 -168 64s-62 101 -62 175v38c0 74 20.667 132.333 62 175s97.333 64 168 64c82.667 0 143.667 -32.333 183 -97c40.667 64.667 100.667 97 180 97
c68 0 122.833 -21.667 164.5 -65s62.5 -101.333 62.5 -174v-48h-360c1.33301 -47.333 14 -83.666 38 -108.999s55.667 -38 95 -38c37.333 0 65.666 6.33301 84.999 19s34.333 31.667 45 57h92c-22.667 -105.333 -96.667 -158 -222 -158zM275.001 77.999
c42 0 75.167 13.167 99.5 39.5s36.5 64.166 36.5 113.499v38c0 49.333 -12.167 87.166 -36.5 113.499s-57.5 39.5 -99.5 39.5s-75.167 -13.167 -99.5 -39.5s-36.5 -64.166 -36.5 -113.499v-38c0 -49.333 12.167 -87.166 36.5 -113.499s57.5 -39.5 99.5 -39.5z
M638.001 425.999c-36.667 0 -66.667 -10.667 -90 -32s-37.333 -53 -42 -95h263c-8 84.667 -51.667 127 -131 127z" />
    <glyph glyph-name="Racute" unicode="&#x154;" horiz-adv-x="620" 
d="M484 0l-138 275.001c-8 -0.666992 -20 -1 -36 -1h-136v-274h-94v700h230c87.333 0 152.5 -18.5 195.5 -55.5s64.5 -89.5 64.5 -157.5c0 -98.667 -44.333 -163.334 -133 -194.001l153 -293h-106zM310 614.001h-136v-254h136c108 0 162 42.333 162 127s-54 127 -162 127z
M244 760.001l112 150h108l-128 -150h-92z" />
    <glyph glyph-name="racute" unicode="&#x155;" horiz-adv-x="380" 
d="M75 0v500h70l9 -68c35.333 50.667 87.333 76 156 76h50v-86h-50c-45.333 0 -80.5 -11.167 -105.5 -33.5s-38.167 -51.833 -39.5 -88.5v-300h-90zM172 560l116 150h104l-130 -150h-90z" />
    <glyph glyph-name="Rcommaaccent" unicode="&#x156;" horiz-adv-x="620" 
d="M484 0l-138 275.001c-8 -0.666992 -20 -1 -36 -1h-136v-274h-94v700h230c87.333 0 152.5 -18.5 195.5 -55.5s64.5 -89.5 64.5 -157.5c0 -98.667 -44.333 -163.334 -133 -194.001l153 -293h-106zM310 614.001h-136v-254h136c108 0 162 42.333 162 127s-54 127 -162 127z
M211 -199.999l66 150h104l-96 -150h-74z" />
    <glyph glyph-name="rcommaaccent" unicode="&#x157;" horiz-adv-x="380" 
d="M75 0v500h70l9 -68c35.333 50.667 87.333 76 156 76h50v-86h-50c-45.333 0 -80.5 -11.167 -105.5 -33.5s-38.167 -51.833 -39.5 -88.5v-300h-90zM0 -200l70 150h100l-100 -150h-70z" />
    <glyph glyph-name="Rcaron" unicode="&#x158;" horiz-adv-x="620" 
d="M484 0l-138 275.001c-8 -0.666992 -20 -1 -36 -1h-136v-274h-94v700h230c87.333 0 152.5 -18.5 195.5 -55.5s64.5 -89.5 64.5 -157.5c0 -98.667 -44.333 -163.334 -133 -194.001l153 -293h-106zM310 614.001h-136v-254h136c108 0 162 42.333 162 127s-54 127 -162 127z
M237 760.001l-112 150h92l73 -87l73 87h92l-112 -150h-106z" />
    <glyph glyph-name="rcaron" unicode="&#x159;" horiz-adv-x="380" 
d="M75 0v500h70l9 -68c35.333 50.667 87.333 76 156 76h50v-86h-50c-45.333 0 -80.5 -11.167 -105.5 -33.5s-38.167 -51.833 -39.5 -88.5v-300h-90zM168 560l-116 150h88l77 -88l77 88h88l-116 -150h-98z" />
    <glyph glyph-name="Sacute" unicode="&#x15a;" horiz-adv-x="610" 
d="M305 -8c-82 0 -143.662 19.1699 -184.995 57.5029s-64.666 96.833 -69.999 175.5h100c4.66699 -50.667 19 -87.167 43 -109.5s61.333 -33.5 112 -33.5c51.333 0 90.333 10.167 117 30.5s40 46.833 40 79.5c0 23.333 -7.33301 43 -22 59s-33.834 28.5 -57.501 37.5
s-49.834 17.167 -78.501 24.5s-57.334 15.666 -86.001 24.999s-54.834 20.666 -78.501 33.999s-42.834 32.333 -57.501 57s-22 54.334 -22 89.001c0 56 21.167 101.667 63.5 137s102.833 53 181.5 53c79.333 0 138.666 -17.833 177.999 -53.5
s61.666 -88.834 66.999 -159.501h-100c-5.33301 44 -18.833 75.5 -40.5 94.5s-56.5 28.5 -104.5 28.5c-48.667 0 -85.334 -9.16699 -110.001 -27.5s-37 -42.5 -37 -72.5c0 -19.333 5.83301 -36.166 17.5 -50.499s26.834 -25.333 45.501 -33s40 -15.167 64 -22.5
s48.667 -13.833 74 -19.5s50 -13.834 74 -24.501s45.333 -22.834 64 -36.501s33.834 -32.5 45.501 -56.5s17.5 -52 17.5 -84c0 -60.667 -21.5 -109 -64.5 -145s-106.5 -54 -190.5 -54zM259.005 760.003l112 150h108l-128 -150h-92z" />
    <glyph glyph-name="sacute" unicode="&#x15b;" horiz-adv-x="490" 
d="M245 -8c-122.667 0 -189.333 54.3311 -200 162.998h94c5.33301 -30.667 15.5 -52.167 30.5 -64.5s40.167 -18.5 75.5 -18.5c39.333 0 66.833 5.5 82.5 16.5s23.5 28.167 23.5 51.5c0 22 -10.167 39 -30.5 51s-45 20.833 -74 26.5s-58 12.334 -87 20.001
s-53.667 22 -74 43s-30.5 49.167 -30.5 84.5c0 42.667 16.167 77.167 48.5 103.5s79.5 39.5 141.5 39.5c58 0 102.833 -13.5 134.5 -40.5s50.167 -64.5 55.5 -112.5h-94c-5.33301 25.333 -15 43.833 -29 55.5s-36.333 17.5 -67 17.5c-64 0 -96 -21 -96 -63
c0 -19.333 10.167 -34 30.5 -44s45 -17.667 74 -23s58 -12.166 87 -20.499s53.667 -23.833 74 -46.5s30.5 -53 30.5 -91c0 -45.333 -16.667 -81.333 -50 -108s-83.333 -40 -150 -40zM200.001 559.998l116 150h104l-130 -150h-90z" />
    <glyph glyph-name="Scircumflex" unicode="&#x15c;" horiz-adv-x="610" 
d="M305 -8c-82 0 -143.662 19.1699 -184.995 57.5029s-64.666 96.833 -69.999 175.5h100c4.66699 -50.667 19 -87.167 43 -109.5s61.333 -33.5 112 -33.5c51.333 0 90.333 10.167 117 30.5s40 46.833 40 79.5c0 23.333 -7.33301 43 -22 59s-33.834 28.5 -57.501 37.5
s-49.834 17.167 -78.501 24.5s-57.334 15.666 -86.001 24.999s-54.834 20.666 -78.501 33.999s-42.834 32.333 -57.501 57s-22 54.334 -22 89.001c0 56 21.167 101.667 63.5 137s102.833 53 181.5 53c79.333 0 138.666 -17.833 177.999 -53.5
s61.666 -88.834 66.999 -159.501h-100c-5.33301 44 -18.833 75.5 -40.5 94.5s-56.5 28.5 -104.5 28.5c-48.667 0 -85.334 -9.16699 -110.001 -27.5s-37 -42.5 -37 -72.5c0 -19.333 5.83301 -36.166 17.5 -50.499s26.834 -25.333 45.501 -33s40 -15.167 64 -22.5
s48.667 -13.833 74 -19.5s50 -13.834 74 -24.501s45.333 -22.834 64 -36.501s33.834 -32.5 45.501 -56.5s17.5 -52 17.5 -84c0 -60.667 -21.5 -109 -64.5 -145s-106.5 -54 -190.5 -54zM378.005 760.003l-73 86l-73 -86h-92l112 150h106l112 -150h-92z" />
    <glyph glyph-name="scircumflex" unicode="&#x15d;" horiz-adv-x="490" 
d="M245 -8c-122.667 0 -189.333 54.3311 -200 162.998h94c5.33301 -30.667 15.5 -52.167 30.5 -64.5s40.167 -18.5 75.5 -18.5c39.333 0 66.833 5.5 82.5 16.5s23.5 28.167 23.5 51.5c0 22 -10.167 39 -30.5 51s-45 20.833 -74 26.5s-58 12.334 -87 20.001
s-53.667 22 -74 43s-30.5 49.167 -30.5 84.5c0 42.667 16.167 77.167 48.5 103.5s79.5 39.5 141.5 39.5c58 0 102.833 -13.5 134.5 -40.5s50.167 -64.5 55.5 -112.5h-94c-5.33301 25.333 -15 43.833 -29 55.5s-36.333 17.5 -67 17.5c-64 0 -96 -21 -96 -63
c0 -19.333 10.167 -34 30.5 -44s45 -17.667 74 -23s58 -12.166 87 -20.499s53.667 -23.833 74 -46.5s30.5 -53 30.5 -91c0 -45.333 -16.667 -81.333 -50 -108s-83.333 -40 -150 -40zM322.001 559.998l-77 87l-77 -87h-88l116 150h98l116 -150h-88z" />
    <glyph glyph-name="Scedilla" unicode="&#x15e;" horiz-adv-x="610" 
d="M253 -86l19.0068 79.002c-139.333 8.66699 -213.333 86 -222 232h100c4.66699 -50.667 19 -87.167 43 -109.5s61.333 -33.5 112 -33.5c51.333 0 90.333 10.167 117 30.5s40 46.833 40 79.5c0 23.333 -7.33301 43 -22 59s-33.834 28.5 -57.501 37.5
s-49.834 17.167 -78.501 24.5s-57.334 15.666 -86.001 24.999s-54.834 20.666 -78.501 33.999s-42.834 32.333 -57.501 57s-22 54.334 -22 89.001c0 56 21.167 101.667 63.5 137s102.833 53 181.5 53c79.333 0 138.666 -17.833 177.999 -53.5
s61.666 -88.834 66.999 -159.501h-100c-5.33301 44 -18.833 75.5 -40.5 94.5s-56.5 28.5 -104.5 28.5c-48.667 0 -85.334 -9.16699 -110.001 -27.5s-37 -42.5 -37 -72.5c0 -19.333 5.83301 -36.166 17.5 -50.499s26.834 -25.333 45.501 -33s40 -15.167 64 -22.5
s48.667 -13.833 74 -19.5s50 -13.834 74 -24.501s45.333 -22.834 64 -36.501s33.834 -32.5 45.501 -56.5s17.5 -52 17.5 -84c0 -57.333 -19.333 -103.833 -58 -139.5s-95.334 -55.167 -170.001 -58.5l-7 -28c43.333 -8.66699 65 -33.667 65 -75
c0 -27.333 -8.5 -49.166 -25.5 -65.499s-40.167 -24.5 -69.5 -24.5h-75v66h65c18 0 27 8 27 24s-9 24 -27 24h-32z" />
    <glyph glyph-name="scedilla" unicode="&#x15f;" horiz-adv-x="490" 
d="M193 -86l20 79.9961c-102.667 8.66699 -158.667 62.334 -168 161.001h94c5.33301 -30.667 15.5 -52.167 30.5 -64.5s40.167 -18.5 75.5 -18.5c39.333 0 66.833 5.5 82.5 16.5s23.5 28.167 23.5 51.5c0 22 -10.167 39 -30.5 51s-45 20.833 -74 26.5s-58 12.334 -87 20.001
s-53.667 22 -74 43s-30.5 49.167 -30.5 84.5c0 42.667 16.167 77.167 48.5 103.5s79.5 39.5 141.5 39.5c58 0 102.833 -13.5 134.5 -40.5s50.167 -64.5 55.5 -112.5h-94c-5.33301 25.333 -15 43.833 -29 55.5s-36.333 17.5 -67 17.5c-64 0 -96 -21 -96 -63
c0 -19.333 10.167 -34 30.5 -44s45 -17.667 74 -23s58 -12.166 87 -20.499s53.667 -23.833 74 -46.5s30.5 -53 30.5 -91c0 -42 -14.333 -76 -43 -102s-71.667 -41 -129 -45l-7 -28c42.667 -8.66699 64 -33.667 64 -75c0 -27.333 -8.5 -49.166 -25.5 -65.499
s-40.167 -24.5 -69.5 -24.5h-75v66h65c18 0 27 8 27 24s-9 24 -27 24h-32z" />
    <glyph glyph-name="Scaron" unicode="&#x160;" horiz-adv-x="610" 
d="M305 -8c-82 0 -143.662 19.1699 -184.995 57.5029s-64.666 96.833 -69.999 175.5h100c4.66699 -50.667 19 -87.167 43 -109.5s61.333 -33.5 112 -33.5c51.333 0 90.333 10.167 117 30.5s40 46.833 40 79.5c0 23.333 -7.33301 43 -22 59s-33.834 28.5 -57.501 37.5
s-49.834 17.167 -78.501 24.5s-57.334 15.666 -86.001 24.999s-54.834 20.666 -78.501 33.999s-42.834 32.333 -57.501 57s-22 54.334 -22 89.001c0 56 21.167 101.667 63.5 137s102.833 53 181.5 53c79.333 0 138.666 -17.833 177.999 -53.5
s61.666 -88.834 66.999 -159.501h-100c-5.33301 44 -18.833 75.5 -40.5 94.5s-56.5 28.5 -104.5 28.5c-48.667 0 -85.334 -9.16699 -110.001 -27.5s-37 -42.5 -37 -72.5c0 -19.333 5.83301 -36.166 17.5 -50.499s26.834 -25.333 45.501 -33s40 -15.167 64 -22.5
s48.667 -13.833 74 -19.5s50 -13.834 74 -24.501s45.333 -22.834 64 -36.501s33.834 -32.5 45.501 -56.5s17.5 -52 17.5 -84c0 -60.667 -21.5 -109 -64.5 -145s-106.5 -54 -190.5 -54zM252.005 760.003l-112 150h92l73 -87l73 87h92l-112 -150h-106z" />
    <glyph glyph-name="scaron" unicode="&#x161;" horiz-adv-x="490" 
d="M245 -8c-122.667 0 -189.333 54.3311 -200 162.998h94c5.33301 -30.667 15.5 -52.167 30.5 -64.5s40.167 -18.5 75.5 -18.5c39.333 0 66.833 5.5 82.5 16.5s23.5 28.167 23.5 51.5c0 22 -10.167 39 -30.5 51s-45 20.833 -74 26.5s-58 12.334 -87 20.001
s-53.667 22 -74 43s-30.5 49.167 -30.5 84.5c0 42.667 16.167 77.167 48.5 103.5s79.5 39.5 141.5 39.5c58 0 102.833 -13.5 134.5 -40.5s50.167 -64.5 55.5 -112.5h-94c-5.33301 25.333 -15 43.833 -29 55.5s-36.333 17.5 -67 17.5c-64 0 -96 -21 -96 -63
c0 -19.333 10.167 -34 30.5 -44s45 -17.667 74 -23s58 -12.166 87 -20.499s53.667 -23.833 74 -46.5s30.5 -53 30.5 -91c0 -45.333 -16.667 -81.333 -50 -108s-83.333 -40 -150 -40zM196.001 559.998l-116 150h88l77 -88l77 88h88l-116 -150h-98z" />
    <glyph glyph-name="Tcedilla" unicode="&#x162;" horiz-adv-x="580" 
d="M238 -86l21 85.999h-16v614h-223v86h540v-86h-223v-614h-18l-9 -35c43.333 -8.66699 65 -33.667 65 -75c0 -27.333 -8.5 -49.166 -25.5 -65.499s-40.167 -24.5 -69.5 -24.5h-75v66h65c18 0 27 8 27 24s-9 24 -27 24h-32z" />
    <glyph glyph-name="tcedilla" unicode="&#x163;" horiz-adv-x="360" 
d="M178 -86l24 91.999c-64.667 16.667 -97 63.667 -97 141v271h-90v82h90v140h90v-140h130v-82h-130v-261c0 -50 23.333 -75 70 -75h70v-82h-75l-9 -35c42.667 -8.66699 64 -33.667 64 -75c0 -27.333 -8.5 -49.166 -25.5 -65.499s-40.167 -24.5 -69.5 -24.5h-75v66h65
c18 0 27 8 27 24s-9 24 -27 24h-32z" />
    <glyph glyph-name="Tcaron" unicode="&#x164;" horiz-adv-x="580" 
d="M20 614v86h540v-86h-223v-614h-94v614h-223zM237 760l-112 150h92l73 -87l73 87h92l-112 -150h-106z" />
    <glyph glyph-name="tcaron" unicode="&#x165;" horiz-adv-x="360" 
d="M15 418l0.000976562 82.001h90v140h90v-140h130v-82h-130v-261c0 -50 23.333 -75 70 -75h70v-82h-83c-46.667 0 -82.834 12.667 -108.501 38s-38.5 61.666 -38.5 108.999v271h-90zM255.001 550.001v170h90l-20 -170h-70z" />
    <glyph glyph-name="Tbar" unicode="&#x166;" horiz-adv-x="580" 
d="M20 614v86h540v-86h-223v-227h113v-74h-113v-313h-94v313h-113v74h113v227h-223z" />
    <glyph glyph-name="tbar" unicode="&#x167;" horiz-adv-x="380" 
d="M25 418l0.000976562 82.001h90v140h90v-140h130v-82h-130v-117h130v-82h-130v-62c0 -50 23.333 -75 70 -75h70v-82h-83c-46.667 0 -82.834 12.667 -108.501 38s-38.5 61.666 -38.5 108.999v72h-90v82h90v117h-90z" />
    <glyph glyph-name="Utilde" unicode="&#x168;" horiz-adv-x="690" 
d="M345 -8c-83.333 0 -149.166 25.332 -197.499 75.999s-72.5 121.334 -72.5 212.001v420h94v-420c0 -63.333 15.667 -112.166 47 -146.499s74.333 -51.5 129 -51.5s97.667 17.167 129 51.5s47 83.166 47 146.499v420h94v-420c0 -90 -24.333 -160.5 -73 -211.5
s-114.334 -76.5 -197.001 -76.5zM415 764.999c-21.333 0 -40.8311 5.5 -58.498 16.5s-33 22.167 -46 33.5s-24.833 17 -35.5 17c-24.667 0 -37 -17.333 -37 -52h-63c0 83.333 33.333 125 100 125c21.333 0 40.666 -5.5 57.999 -16.5s32.666 -21.833 45.999 -32.5
s25.333 -16 36 -16c24.667 0 37 16.667 37 50h63c0 -83.333 -33.333 -125 -100 -125z" />
    <glyph glyph-name="utilde" unicode="&#x169;" horiz-adv-x="565" 
d="M255 -8c-56 0 -100.833 18.668 -134.5 56.001s-50.5 89.666 -50.5 156.999v295h90v-295c0 -42 9.66699 -73.667 29 -95s46.333 -32 81 -32c38 0 68.833 11.167 92.5 33.5s36.167 51.5 37.5 87.5v301h90v-500h-70l-9 69c-36.667 -51.333 -88.667 -77 -156 -77z
M345 565.001c-20 0 -38.3311 5.5 -54.998 16.5s-31 22 -43 33s-22.667 16.5 -32 16.5c-21.333 0 -32 -17 -32 -51h-63c0 41.333 8.5 72.5 25.5 93.5s40.167 31.5 69.5 31.5c20 0 38.167 -5.5 54.5 -16.5s30.666 -22 42.999 -33s23.166 -16.5 32.499 -16.5
c21.333 0 32 17 32 51h63c0 -41.333 -8.5 -72.5 -25.5 -93.5s-40.167 -31.5 -69.5 -31.5z" />
    <glyph glyph-name="Umacron" unicode="&#x16a;" horiz-adv-x="690" 
d="M345 -8c-83.333 0 -149.166 25.332 -197.499 75.999s-72.5 121.334 -72.5 212.001v420h94v-420c0 -63.333 15.667 -112.166 47 -146.499s74.333 -51.5 129 -51.5s97.667 17.167 129 51.5s47 83.166 47 146.499v420h94v-420c0 -90 -24.333 -160.5 -73 -211.5
s-114.334 -76.5 -197.001 -76.5zM195 796.999v76h300v-76h-300z" />
    <glyph glyph-name="umacron" unicode="&#x16b;" horiz-adv-x="565" 
d="M255 -8c-56 0 -100.833 18.668 -134.5 56.001s-50.5 89.666 -50.5 156.999v295h90v-295c0 -42 9.66699 -73.667 29 -95s46.333 -32 81 -32c38 0 68.833 11.167 92.5 33.5s36.167 51.5 37.5 87.5v301h90v-500h-70l-9 69c-36.667 -51.333 -88.667 -77 -156 -77z
M140 598.001v74h280v-74h-280z" />
    <glyph glyph-name="Ubreve" unicode="&#x16c;" horiz-adv-x="690" 
d="M345 -8c-83.333 0 -149.166 25.332 -197.499 75.999s-72.5 121.334 -72.5 212.001v420h94v-420c0 -63.333 15.667 -112.166 47 -146.499s74.333 -51.5 129 -51.5s97.667 17.167 129 51.5s47 83.166 47 146.499v420h94v-420c0 -90 -24.333 -160.5 -73 -211.5
s-114.334 -76.5 -197.001 -76.5zM345 761.999c-48.667 0 -85.832 12.167 -111.499 36.5s-38.5 58.166 -38.5 101.499h74c0 -21.333 6.5 -38 19.5 -50s31.833 -18 56.5 -18c52 0 78 22.667 78 68h72c0 -43.333 -12.833 -77.166 -38.5 -101.499s-62.834 -36.5 -111.501 -36.5z
" />
    <glyph glyph-name="ubreve" unicode="&#x16d;" horiz-adv-x="565" 
d="M255 -8c-56 0 -100.833 18.668 -134.5 56.001s-50.5 89.666 -50.5 156.999v295h90v-295c0 -42 9.66699 -73.667 29 -95s46.333 -32 81 -32c38 0 68.833 11.167 92.5 33.5s36.167 51.5 37.5 87.5v301h90v-500h-70l-9 69c-36.667 -51.333 -88.667 -77 -156 -77z
M280 562.001c-44 0 -78.333 12.167 -103 36.5s-37 58.166 -37 101.499h72c0 -22 6 -39.167 18 -51.5s28.667 -18.5 50 -18.5c22 0 39.167 6.16699 51.5 18.5s18.5 29.5 18.5 51.5h70c0 -43.333 -12.333 -77.166 -37 -101.499s-59 -36.5 -103 -36.5z" />
    <glyph glyph-name="Uring" unicode="&#x16e;" horiz-adv-x="690" 
d="M345 -8c-83.333 0 -149.166 25.332 -197.499 75.999s-72.5 121.334 -72.5 212.001v420h94v-420c0 -63.333 15.667 -112.166 47 -146.499s74.333 -51.5 129 -51.5s97.667 17.167 129 51.5s47 83.166 47 146.499v420h94v-420c0 -90 -24.333 -160.5 -73 -211.5
s-114.334 -76.5 -197.001 -76.5zM345 729.999c-32 0 -58.333 10 -79 30s-31 45 -31 75s10.333 55 31 75s47 30 79 30s58.333 -10 79 -30s31 -45 31 -75s-10.333 -55 -31 -75s-47 -30 -79 -30zM345 789.999c12.667 0 23.167 4.33301 31.5 13s12.5 19.334 12.5 32.001
s-4.16699 23.334 -12.5 32.001s-18.833 13 -31.5 13s-23.167 -4.33301 -31.5 -13s-12.5 -19.334 -12.5 -32.001s4.16699 -23.334 12.5 -32.001s18.833 -13 31.5 -13z" />
    <glyph glyph-name="uring" unicode="&#x16f;" horiz-adv-x="565" 
d="M255 -8c-56 0 -100.833 18.668 -134.5 56.001s-50.5 89.666 -50.5 156.999v295h90v-295c0 -42 9.66699 -73.667 29 -95s46.333 -32 81 -32c38 0 68.833 11.167 92.5 33.5s36.167 51.5 37.5 87.5v301h90v-500h-70l-9 69c-36.667 -51.333 -88.667 -77 -156 -77z
M280 530.001c-32 0 -58.333 10 -79 30s-31 45 -31 75s10.333 55 31 75s47 30 79 30s58.333 -10 79 -30s31 -45 31 -75s-10.333 -55 -31 -75s-47 -30 -79 -30zM280 586.001c14 0 25.5 4.5 34.5 13.5s13.5 20.833 13.5 35.5s-4.5 26.5 -13.5 35.5s-20.5 13.5 -34.5 13.5
s-25.5 -4.5 -34.5 -13.5s-13.5 -20.833 -13.5 -35.5s4.5 -26.5 13.5 -35.5s20.5 -13.5 34.5 -13.5z" />
    <glyph glyph-name="Uhungarumlaut" unicode="&#x170;" horiz-adv-x="690" 
d="M345 -8c-83.333 0 -149.166 25.332 -197.499 75.999s-72.5 121.334 -72.5 212.001v420h94v-420c0 -63.333 15.667 -112.166 47 -146.499s74.333 -51.5 129 -51.5s97.667 17.167 129 51.5s47 83.166 47 146.499v420h94v-420c0 -90 -24.333 -160.5 -73 -211.5
s-114.334 -76.5 -197.001 -76.5zM229 759.999l96 150h102l-112 -150h-86zM369 759.999l112 150h108l-128 -150h-92z" />
    <glyph glyph-name="uhungarumlaut" unicode="&#x171;" horiz-adv-x="565" 
d="M255 -8c-56 0 -100.833 18.668 -134.5 56.001s-50.5 89.666 -50.5 156.999v295h90v-295c0 -42 9.66699 -73.667 29 -95s46.333 -32 81 -32c38 0 68.833 11.167 92.5 33.5s36.167 51.5 37.5 87.5v301h90v-500h-70l-9 69c-36.667 -51.333 -88.667 -77 -156 -77z
M165 560.001l102 150h98l-116 -150h-84zM305 560.001l116 150h104l-130 -150h-90z" />
    <glyph glyph-name="Uogonek" unicode="&#x172;" horiz-adv-x="690" 
d="M345 -8c-83.333 0 -149.169 25.332 -197.502 75.999s-72.5 121.334 -72.5 212.001v420h94v-420c0 -63.333 15.667 -112.166 47 -146.499s74.333 -51.5 129 -51.5s97.667 17.167 129 51.5s47 83.166 47 146.499v420h94v-420c0 -112 -37 -193.333 -111 -244
c-43.333 -35.333 -73.666 -62.833 -90.999 -82.5s-26 -38.167 -26 -55.5c0 -18.667 11 -28 33 -28h45v-70h-55c-70 0 -105 28.333 -105 85c0 32.667 18.333 68.667 55 108c-1.33301 0 -3.66602 -0.166992 -6.99902 -0.5s-6 -0.5 -8 -0.5z" />
    <glyph glyph-name="uogonek" unicode="&#x173;" horiz-adv-x="565" 
d="M490 -200h-54.999c-70 0 -105 26.667 -105 80c0 23.333 5.66699 45.333 17 66s34.666 46.334 69.999 77.001l-6 46c-36.667 -51.333 -88.667 -77 -156 -77c-56 0 -100.833 18.667 -134.5 56s-50.5 89.666 -50.5 156.999v295h90v-295c0 -42 9.66699 -73.667 29 -95
s46.333 -32 81 -32c38 0 68.833 11.167 92.5 33.5s36.167 51.5 37.5 87.5v301h90v-500c-34 -28 -56.167 -49.5 -66.5 -64.5s-15.5 -28.5 -15.5 -40.5c0 -19.333 12.333 -29 37 -29h45v-66z" />
    <glyph glyph-name="Wcircumflex" unicode="&#x174;" horiz-adv-x="970" 
d="M640 0l-155 586l-145 -586h-120l-190 700h98l151 -589l146 589h120l156 -590l143 590h96l-180 -700h-120zM558 760l-73 86l-73 -86h-92l112 150h106l112 -150h-92z" />
    <glyph glyph-name="wcircumflex" unicode="&#x175;" horiz-adv-x="770" 
d="M500 0l-116 398l-104 -398h-110l-145 500h94l108 -389l102 389h110l114 -394l102 394h90l-135 -500h-110zM462 560l-77 87l-77 -87h-88l116 150h98l116 -150h-88z" />
    <glyph glyph-name="Ycircumflex" unicode="&#x176;" horiz-adv-x="650" 
d="M283 0v245l-263 455h108l202 -355l196 355h104l-253 -455v-245h-94zM400 760l-73 86l-73 -86h-92l112 150h106l112 -150h-92z" />
    <glyph glyph-name="ycircumflex" unicode="&#x177;" horiz-adv-x="520" 
d="M140 -200l77 200l-202 500h98l152 -387l144 387h96l-269 -700h-96zM338 560l-77 87l-77 -87h-88l116 150h98l116 -150h-88z" />
    <glyph glyph-name="Ydieresis" unicode="&#x178;" horiz-adv-x="650" 
d="M283 0v245l-263 455h108l202 -355l196 355h104l-253 -455v-245h-94zM222 775c-17.333 0 -31.666 5.83301 -42.999 17.5s-17 25.834 -17 42.501s5.66699 30.834 17 42.501s25.666 17.5 42.999 17.5s31.666 -5.83301 42.999 -17.5s17 -25.834 17 -42.501
s-5.66699 -30.834 -17 -42.501s-25.666 -17.5 -42.999 -17.5zM432 775c-17.333 0 -31.666 5.83301 -42.999 17.5s-17 25.834 -17 42.501s5.66699 30.834 17 42.501s25.666 17.5 42.999 17.5s31.666 -5.83301 42.999 -17.5s17 -25.834 17 -42.501
s-5.66699 -30.834 -17 -42.501s-25.666 -17.5 -42.999 -17.5z" />
    <glyph glyph-name="Zacute" unicode="&#x179;" horiz-adv-x="585" 
d="M55 614v86h490v-86l-392 -528h392v-86h-500v86l392 528h-382zM254 760l112 150h108l-128 -150h-92z" />
    <glyph glyph-name="zacute" unicode="&#x17a;" horiz-adv-x="455" 
d="M45 418v82h380v-82l-286 -336h286v-82h-390v82l286 336h-276zM190 560l116 150h104l-130 -150h-90z" />
    <glyph glyph-name="Zdotaccent" unicode="&#x17b;" horiz-adv-x="585" 
d="M55 614v86h490v-86l-392 -528h392v-86h-500v86l392 528h-382zM300 775c-17.333 0 -31.666 5.83301 -42.999 17.5s-17 25.834 -17 42.501s5.66699 30.834 17 42.501s25.666 17.5 42.999 17.5s31.666 -5.83301 42.999 -17.5s17 -25.834 17 -42.501
s-5.66699 -30.834 -17 -42.501s-25.666 -17.5 -42.999 -17.5z" />
    <glyph glyph-name="zdotaccent" unicode="&#x17c;" horiz-adv-x="455" 
d="M45 418v82h380v-82l-286 -336h286v-82h-390v82l286 336h-276zM235 576c-16.667 0 -30.834 5.66699 -42.501 17s-17.5 25.666 -17.5 42.999s5.83301 31.666 17.5 42.999s25.834 17 42.501 17s30.834 -5.66699 42.501 -17s17.5 -25.666 17.5 -42.999
s-5.83301 -31.666 -17.5 -42.999s-25.834 -17 -42.501 -17z" />
    <glyph glyph-name="Zcaron" unicode="&#x17d;" horiz-adv-x="585" 
d="M55 614v86h490v-86l-392 -528h392v-86h-500v86l392 528h-382zM247 760l-112 150h92l73 -87l73 87h92l-112 -150h-106z" />
    <glyph glyph-name="zcaron" unicode="&#x17e;" horiz-adv-x="455" 
d="M45 418v82h380v-82l-286 -336h286v-82h-390v82l286 336h-276zM186 560l-116 150h88l77 -88l77 88h88l-116 -150h-98z" />
    <glyph glyph-name="longs" unicode="&#x17f;" horiz-adv-x="305" 
d="M20 418l0.000976562 82.001h90v53c0 47.333 12.667 83.666 38 108.999s61.666 38 108.999 38h83v-82h-71c-46 0 -69 -24.667 -69 -74v-544h-90v418h-90z" />
    <glyph glyph-name="uni018F" unicode="&#x18f;" horiz-adv-x="710" 
d="M355 -8c-90 0 -162.501 29.335 -217.501 88.002s-82.5 139 -82.5 241v67h502c-1.33301 72 -20.666 128.333 -57.999 169s-85.333 61 -144 61c-46 0 -84.5 -11.833 -115.5 -35.5s-51.833 -52.834 -62.5 -87.501h-106c13.333 57.333 43.833 107.166 91.5 149.499
s111.834 63.5 192.501 63.5c90 0 162.5 -29.333 217.5 -88s82.5 -139 82.5 -241v-58c0 -100.667 -27.833 -180.667 -83.5 -240s-127.834 -89 -216.501 -89zM354.999 82.002c58 0 105.333 19.167 142 57.5s56.334 92.5 59.001 162.5h-403
c3.33301 -68.667 23.666 -122.5 60.999 -161.5s84.333 -58.5 141 -58.5z" />
    <glyph glyph-name="florin" unicode="&#x192;" horiz-adv-x="480" 
d="M86 428l12.999 72h108l8 45c9.33301 53.333 28.333 92.5 57 117.5s72.334 37.5 131.001 37.5h62l-15 -82h-57c-49.333 0 -78 -24.333 -86 -73l-8 -45h130l-12 -72h-130l-73 -423c-9.33301 -53.333 -28.333 -92.333 -57 -117s-72 -37 -130 -37h-42l15 82h37
c48.667 0 77 24 85 72l73 423h-109z" />
    <glyph glyph-name="uni01CF" unicode="&#x1cf;" horiz-adv-x="270" 
d="M88 0v700h94v-700h-94zM82 760l-112 150h92l73 -87l73 87h92l-112 -150h-106z" />
    <glyph glyph-name="uni01D0" unicode="&#x1d0;" horiz-adv-x="256" 
d="M83 0v500h90v-500h-90zM79 560l-116 150h88l77 -88l77 88h88l-116 -150h-98z" />
    <glyph glyph-name="uni01DD" unicode="&#x1dd;" horiz-adv-x="540" 
d="M270 -8c-67.333 0 -121.667 21.666 -163 64.999s-62 101.333 -62 174v48h356c-2 46.667 -14.833 82.834 -38.5 108.501s-54.5 38.5 -92.5 38.5c-36 0 -63 -6.16699 -81 -18.5s-33 -29.833 -45 -52.5h-94c10.667 46 34.334 83 71.001 111s86.334 42 149.001 42
c67.333 0 121.666 -21.5 162.999 -64.5s62 -101.167 62 -174.5v-38c0 -72 -20.833 -129.833 -62.5 -173.5s-95.834 -65.5 -162.501 -65.5zM269.999 73.999c36 0 65.332 10.833 87.999 32.5s36.334 53.167 41.001 94.5h-259c8.66699 -84.667 52 -127 130 -127z" />
    <glyph glyph-name="Gcaron" unicode="&#x1e6;" horiz-adv-x="680" 
d="M340 267v86h285v-43c0 -102 -24.667 -180.5 -74 -235.5s-116.333 -82.5 -201 -82.5c-89.333 0 -160.833 29.167 -214.5 87.5s-80.5 138.833 -80.5 241.5v58c0 102.667 27 183.167 81 241.5s125.333 87.5 214 87.5c74.667 0 135.667 -20 183 -60s76.333 -91 87 -153h-100
c-10.667 36 -30.5 65.5 -59.5 88.5s-65.833 34.5 -110.5 34.5c-60 0 -107.833 -20.667 -143.5 -62s-53.5 -100.333 -53.5 -177v-58c0 -75.333 18.333 -134 55 -176s84 -63 142 -63c56 0 99.333 14.833 130 44.5s48.667 76.5 54 140.5h-194zM297 760l-112 150h92l73 -87
l73 87h92l-112 -150h-106z" />
    <glyph glyph-name="gcaron" unicode="&#x1e7;" horiz-adv-x="560" 
d="M243 12c-58.667 0 -106.333 20.334 -143 61.001s-55 96.667 -55 168v38c0 70.667 18.333 126.5 55 167.5s84.334 61.5 143.001 61.5c72.667 0 126.667 -26.333 162 -79l10 71h70v-500c0 -68 -18 -119.667 -54 -155s-88.667 -53 -158 -53
c-124.667 0 -192.334 52.667 -203.001 158h90c5.33301 -26.667 16.333 -46.334 33 -59.001s43.334 -19 80.001 -19c43.333 0 74.5 9.83301 93.5 29.5s28.5 52.5 28.5 98.5v76c-36.667 -42.667 -87.334 -64 -152.001 -64zM267.001 98.001c38 0 68.833 12.833 92.5 38.5
s35.5 60.5 35.5 104.5v38c0 44 -11.833 78.833 -35.5 104.5s-54.5 38.5 -92.5 38.5c-40 0 -71.333 -12.333 -94 -37s-34 -60 -34 -106v-38c0 -46 11.333 -81.333 34 -106s54 -37 94 -37zM216.001 560.001l-116 150h88l77 -88l77 88h88l-116 -150h-98z" />
    <glyph glyph-name="Aringacute" unicode="&#x1fa;" horiz-adv-x="650" 
d="M533 0l-68 192.001h-284l-68 -192h-98l241 662c-27.333 20 -41 47.667 -41 83c0 30 10.333 55 31 75s47 30 79 30s58.333 -10 79 -30s31 -45 31 -75c0 -34.667 -13.667 -62.334 -41 -83.001l241 -662h-102zM272 446.001l-60 -168h222l-59 168l-51 149zM280 885.001
l110 106h120l-140 -106h-90zM325 700.001c12.667 0 23.167 4.33301 31.5 13s12.5 19.334 12.5 32.001s-4.16699 23.334 -12.5 32.001s-18.833 13 -31.5 13s-23.167 -4.33301 -31.5 -13s-12.5 -19.334 -12.5 -32.001s4.16699 -23.334 12.5 -32.001s18.833 -13 31.5 -13z" />
    <glyph glyph-name="aringacute" unicode="&#x1fb;" horiz-adv-x="520" 
d="M223 770l106 130h104l-126 -130h-84zM200 -8c-51.333 0 -90.835 13.001 -118.502 39.001s-41.5 62.333 -41.5 109c0 108.667 73.333 163 220 163h100v37c0 58.667 -33.333 88 -100 88c-61.333 0 -94.666 -22.667 -99.999 -68h-100
c2.66699 44.667 20.834 80.5 54.501 107.5s82.167 40.5 145.5 40.5c61.333 0 108.333 -14.833 141 -44.5s49 -70.834 49 -123.501v-340h-70l-11 82c-38 -60 -94.333 -90 -169 -90zM209.998 72.001c42.667 0 78.333 13.5 107 40.5s43 59.167 43 96.5v18h-100
c-84 0 -126 -28.333 -126 -85c0 -21.333 6.66699 -38.333 20 -51s32 -19 56 -19zM264.997 530.001c-32 0 -58.333 10 -79 30s-31 45 -31 75s10.333 55 31 75s47 30 79 30s58.333 -10 79 -30s31 -45 31 -75s-10.333 -55 -31 -75s-47 -30 -79 -30zM264.997 586.001
c14 0 25.5 4.5 34.5 13.5s13.5 20.833 13.5 35.5s-4.5 26.5 -13.5 35.5s-20.5 13.5 -34.5 13.5s-25.5 -4.5 -34.5 -13.5s-13.5 -20.833 -13.5 -35.5s4.5 -26.5 13.5 -35.5s20.5 -13.5 34.5 -13.5z" />
    <glyph glyph-name="AEacute" unicode="&#x1fc;" horiz-adv-x="930" 
d="M10 0l390 700h485v-86h-341v-211h281v-86h-281v-231h341v-86h-435v192h-231l-105 -192h-104zM266 278h184v334zM596 760l112 150h108l-128 -150h-92z" />
    <glyph glyph-name="aeacute" unicode="&#x1fd;" horiz-adv-x="855" 
d="M212 -8c-56.667 0 -99.498 13 -128.498 39s-43.5 62.333 -43.5 109c0 105.333 74 158 222 158h102v42c0 58.667 -34 88 -102 88c-62.667 0 -96.667 -22.667 -102 -68h-100c2.66699 44.667 21 80.5 55 107.5s83 40.5 147 40.5c77.333 0 130 -26.667 158 -80
c40 53.333 95 80 165 80c67.333 0 121.666 -21.667 162.999 -65s62 -101.333 62 -174v-47h-356c1.33301 -48 13.833 -84.667 37.5 -110s54.834 -38 93.501 -38c37.333 0 65.333 6.16699 84 18.5s33.334 31.5 44.001 57.5h92c-22.667 -105.333 -96 -158 -220 -158
c-40.667 0 -76.834 9.16699 -108.501 27.5s-56.5 44.5 -74.5 78.5c-18.667 -33.333 -44.834 -59.333 -78.501 -78s-70.834 -28 -111.501 -28zM212.002 72c43.333 0 79.499 13.332 108.499 39.999s43.5 59.334 43.5 98.001v12h-102c-46.667 0 -79.667 -6.66699 -99 -20
s-29 -33.333 -29 -60c0 -21.333 6.83301 -38.333 20.5 -51s32.834 -19 57.501 -19zM585.001 425.999c-36.667 0 -66.332 -10.833 -88.999 -32.5s-36.334 -53.5 -41.001 -95.5h259c-8 85.333 -51 128 -129 128zM380.003 559.999l116 150h104l-130 -150h-90z" />
    <glyph glyph-name="Oslashacute" unicode="&#x1fe;" horiz-adv-x="710" 
d="M107 -8l-52 42l60 73c-40 56.667 -60 128 -60 214v58c0 101.333 27.667 181.5 83 240.5s127.666 88.5 216.999 88.5c78 0 142.667 -22 194 -66l54 66l52 -42l-60 -74c40 -56.667 60 -127.667 60 -213v-58c0 -101.333 -27.667 -181.5 -83 -240.5
s-127.666 -88.5 -216.999 -88.5c-78.667 0 -143.667 21.667 -195 65zM153 321c0 -50.667 9 -95 27 -133l308 379c-34.667 34 -79 51 -133 51c-60.667 0 -109.5 -20.833 -146.5 -62.5s-55.5 -100.5 -55.5 -176.5v-58zM355 82c60 0 108.5 20.833 145.5 62.5
s55.5 100.5 55.5 176.5v58c0 50 -9 94 -27 132l-308 -379c35.333 -33.333 80 -50 134 -50zM309 760l112 150h108l-128 -150h-92z" />
    <glyph glyph-name="oslashacute" unicode="&#x1ff;" horiz-adv-x="550" 
d="M92 -8l-47 41.001l41 48c-27.333 39.333 -41 89.333 -41 150v38c0 74 20.667 132.333 62 175s97.333 64 168 64c56.667 0 105 -14.667 145 -44l38 44l47 -42l-42 -48c28 -40.667 42 -90.334 42 -149.001v-38c0 -74 -20.667 -132.333 -62 -175s-97.333 -64 -168 -64
c-58 0 -106.333 14.333 -145 43zM139 231.001c0 -30 4.33301 -55.001 13 -75.001l208 239c-22 18 -50.333 27 -85 27c-42 0 -75.167 -13.167 -99.5 -39.5s-36.5 -64.166 -36.5 -113.499v-38zM275 78c42 0 75.167 13.168 99.5 39.501s36.5 64.166 36.5 113.499v38
c0 29.333 -4.33301 54 -13 74l-208 -239c22.667 -17.333 51 -26 85 -26zM230 560.001l116 150h104l-130 -150h-90z" />
    <glyph glyph-name="Scommaaccent" unicode="&#x218;" horiz-adv-x="610" 
d="M305 -8c-82 0 -143.662 19.1699 -184.995 57.5029s-64.666 96.833 -69.999 175.5h100c4.66699 -50.667 19 -87.167 43 -109.5s61.333 -33.5 112 -33.5c51.333 0 90.333 10.167 117 30.5s40 46.833 40 79.5c0 23.333 -7.33301 43 -22 59s-33.834 28.5 -57.501 37.5
s-49.834 17.167 -78.501 24.5s-57.334 15.666 -86.001 24.999s-54.834 20.666 -78.501 33.999s-42.834 32.333 -57.501 57s-22 54.334 -22 89.001c0 56 21.167 101.667 63.5 137s102.833 53 181.5 53c79.333 0 138.666 -17.833 177.999 -53.5
s61.666 -88.834 66.999 -159.501h-100c-5.33301 44 -18.833 75.5 -40.5 94.5s-56.5 28.5 -104.5 28.5c-48.667 0 -85.334 -9.16699 -110.001 -27.5s-37 -42.5 -37 -72.5c0 -19.333 5.83301 -36.166 17.5 -50.499s26.834 -25.333 45.501 -33s40 -15.167 64 -22.5
s48.667 -13.833 74 -19.5s50 -13.834 74 -24.501s45.333 -22.834 64 -36.501s33.834 -32.5 45.501 -56.5s17.5 -52 17.5 -84c0 -60.667 -21.5 -109 -64.5 -145s-106.5 -54 -190.5 -54zM187.005 -199.997l66 150h104l-96 -150h-74z" />
    <glyph glyph-name="scommaaccent" unicode="&#x219;" horiz-adv-x="490" 
d="M245 -8c-122.667 0 -189.333 54.3311 -200 162.998h94c5.33301 -30.667 15.5 -52.167 30.5 -64.5s40.167 -18.5 75.5 -18.5c39.333 0 66.833 5.5 82.5 16.5s23.5 28.167 23.5 51.5c0 22 -10.167 39 -30.5 51s-45 20.833 -74 26.5s-58 12.334 -87 20.001
s-53.667 22 -74 43s-30.5 49.167 -30.5 84.5c0 42.667 16.167 77.167 48.5 103.5s79.5 39.5 141.5 39.5c58 0 102.833 -13.5 134.5 -40.5s50.167 -64.5 55.5 -112.5h-94c-5.33301 25.333 -15 43.833 -29 55.5s-36.333 17.5 -67 17.5c-64 0 -96 -21 -96 -63
c0 -19.333 10.167 -34 30.5 -44s45 -17.667 74 -23s58 -12.166 87 -20.499s53.667 -23.833 74 -46.5s30.5 -53 30.5 -91c0 -45.333 -16.667 -81.333 -50 -108s-83.333 -40 -150 -40zM125.001 -200.002l70 150h100l-100 -150h-70z" />
    <glyph glyph-name="Tcommaaccent" unicode="&#x21a;" horiz-adv-x="580" 
d="M20 614v86h540v-86h-223v-614h-94v614h-223zM172 -200l66 150h104l-96 -150h-74z" />
    <glyph glyph-name="tcommaaccent" unicode="&#x21b;" horiz-adv-x="360" 
d="M15 418l0.000976562 82.001h90v140h90v-140h130v-82h-130v-261c0 -50 23.333 -75 70 -75h70v-82h-83c-46.667 0 -82.834 12.667 -108.501 38s-38.5 61.666 -38.5 108.999v271h-90zM110.001 -199.999l70 150h100l-100 -150h-70z" />
    <glyph glyph-name="uni0237" unicode="&#x237;" horiz-adv-x="256" 
d="M-27 -200v82h33c26.667 0 46.167 8 58.5 24s18.5 42.333 18.5 79v515h90v-515c0 -66 -13.167 -113.333 -39.5 -142s-68.833 -43 -127.5 -43h-33z" />
    <glyph glyph-name="uni0259" unicode="&#x259;" horiz-adv-x="540" 
d="M270 -8c-67.333 0 -121.667 21.666 -163 64.999s-62 101.333 -62 174v48h356c-2 46.667 -14.833 82.834 -38.5 108.501s-54.5 38.5 -92.5 38.5c-36 0 -63 -6.16699 -81 -18.5s-33 -29.833 -45 -52.5h-94c10.667 46 34.334 83 71.001 111s86.334 42 149.001 42
c67.333 0 121.666 -21.5 162.999 -64.5s62 -101.167 62 -174.5v-38c0 -72 -20.833 -129.833 -62.5 -173.5s-95.834 -65.5 -162.501 -65.5zM269.999 73.999c36 0 65.332 10.833 87.999 32.5s36.334 53.167 41.001 94.5h-259c8.66699 -84.667 52 -127 130 -127z" />
    <glyph glyph-name="uni027C" unicode="&#x27c;" horiz-adv-x="370" 
d="M75 -200v700h70l9 -68c35.333 50.667 87.333 76 156 76h50v-86h-50c-45.333 0 -80.5 -11.167 -105.5 -33.5s-38.167 -51.833 -39.5 -88.5v-500h-90z" />
    <glyph glyph-name="afii57929" unicode="&#x2bc;" horiz-adv-x="190" 
d="M15 450l62 250h98l-78 -250h-82z" />
    <glyph glyph-name="circumflex" unicode="&#x2c6;" horiz-adv-x="360" 
d="M257 560l-77 87l-77 -87h-88l116 150h98l116 -150h-88z" />
    <glyph glyph-name="caron" unicode="&#x2c7;" horiz-adv-x="360" 
d="M131 560l-116 150h88l77 -88l77 88h88l-116 -150h-98z" />
    <glyph glyph-name="breve" unicode="&#x2d8;" horiz-adv-x="300" 
d="M150 562c-44 0 -78.333 12.167 -103 36.5s-37 58.166 -37 101.499h72c0 -22 6 -39.167 18 -51.5s28.667 -18.5 50 -18.5c22 0 39.167 6.16699 51.5 18.5s18.5 29.5 18.5 51.5h70c0 -43.333 -12.333 -77.166 -37 -101.499s-59 -36.5 -103 -36.5z" />
    <glyph glyph-name="dotaccent" unicode="&#x2d9;" horiz-adv-x="160" 
d="M80 576c-17.333 0 -31.666 5.66699 -42.999 17s-17 25.666 -17 42.999s5.66699 31.666 17 42.999s25.666 17 42.999 17s31.666 -5.66699 42.999 -17s17 -25.666 17 -42.999s-5.66699 -31.666 -17 -42.999s-25.666 -17 -42.999 -17z" />
    <glyph glyph-name="ring" unicode="&#x2da;" horiz-adv-x="240" 
d="M120 530c-32 0 -58.333 10 -79 30s-31 45 -31 75s10.333 55 31 75s47 30 79 30s58.333 -10 79 -30s31 -45 31 -75s-10.333 -55 -31 -75s-47 -30 -79 -30zM120 586c14 0 25.5 4.5 34.5 13.5s13.5 20.833 13.5 35.5s-4.5 26.5 -13.5 35.5s-20.5 13.5 -34.5 13.5
s-25.5 -4.5 -34.5 -13.5s-13.5 -20.833 -13.5 -35.5s4.5 -26.5 13.5 -35.5s20.5 -13.5 34.5 -13.5z" />
    <glyph glyph-name="ogonek" unicode="&#x2db;" horiz-adv-x="180" 
d="M170 -200l-54.999 0.000976562c-70 0 -105 26.667 -105 80c0 25.333 7.16699 49.666 21.5 72.999s45.166 54.333 92.499 93l46 -46c-34 -28 -56.167 -49.5 -66.5 -64.5s-15.5 -28.5 -15.5 -40.5c0 -19.333 12.333 -29 37 -29h45v-66z" />
    <glyph glyph-name="tilde" unicode="&#x2dc;" horiz-adv-x="340" 
d="M235 565c-20 0 -38.3311 5.5 -54.998 16.5s-31 22 -43 33s-22.667 16.5 -32 16.5c-21.333 0 -32 -17 -32 -51h-63c0 41.333 8.5 72.5 25.5 93.5s40.167 31.5 69.5 31.5c20 0 38.167 -5.5 54.5 -16.5s30.666 -22 42.999 -33s23.166 -16.5 32.499 -16.5
c21.333 0 32 17 32 51h63c0 -41.333 -8.5 -72.5 -25.5 -93.5s-40.167 -31.5 -69.5 -31.5z" />
    <glyph glyph-name="hungarumlaut" unicode="&#x2dd;" horiz-adv-x="390" 
d="M15 560l102 150h98l-116 -150h-84zM155 560l116 150h104l-130 -150h-90z" />
    <glyph glyph-name="acutecomb" unicode="&#x301;" horiz-adv-x="0" 
d="M-320 560l116 150h104l-130 -150h-90z" />
    <glyph glyph-name="uni039E" unicode="&#x39e;" horiz-adv-x="510" 
d="M35 0v86h440v-86h-440zM115 317v86h280v-86h-280zM35 614v86h440v-86h-440z" />
    <glyph glyph-name="pi" unicode="&#x3c0;" horiz-adv-x="620" 
d="M566 0c-47.333 0 -83.5 12.5 -108.5 37.5s-37.5 60.833 -37.5 107.5v273h-220v-418h-90v418h-90v82h580v-82h-90v-261c0 -50 23.333 -75 70 -75h30v-82h-44z" />
    <glyph glyph-name="uni0400" unicode="&#x400;" horiz-adv-x="560" 
d="M80 0v700h435v-86h-341v-211h281v-86h-281v-231h341v-86h-435zM251 760l-128 150h108l112 -150h-92z" />
    <glyph glyph-name="afii10023" unicode="&#x401;" horiz-adv-x="560" 
d="M80 0v700h435v-86h-341v-211h281v-86h-281v-231h341v-86h-435zM192 775c-17.333 0 -31.666 5.83301 -42.999 17.5s-17 25.834 -17 42.501s5.66699 30.834 17 42.501s25.666 17.5 42.999 17.5s31.666 -5.83301 42.999 -17.5s17 -25.834 17 -42.501
s-5.66699 -30.834 -17 -42.501s-25.666 -17.5 -42.999 -17.5zM402 775c-17.333 0 -31.666 5.83301 -42.999 17.5s-17 25.834 -17 42.501s5.66699 30.834 17 42.501s25.666 17.5 42.999 17.5s31.666 -5.83301 42.999 -17.5s17 -25.834 17 -42.501
s-5.66699 -30.834 -17 -42.501s-25.666 -17.5 -42.999 -17.5z" />
    <glyph glyph-name="afii10051" unicode="&#x402;" horiz-adv-x="740" 
d="M20 614v86h540v-86h-223v-192h123c82 0 144.167 -18.667 186.5 -56s63.5 -89 63.5 -155s-21.167 -117.667 -63.5 -155s-104.5 -56 -186.5 -56h-50v86h50c50.667 0 88.667 11 114 33s38 52.667 38 92s-12.667 70 -38 92s-63.333 33 -114 33h-123v-336h-94v614h-223z" />
    <glyph glyph-name="afii10052" unicode="&#x403;" horiz-adv-x="515" 
d="M80 0v700h415v-86h-321v-614h-94zM241 760l112 150h108l-128 -150h-92z" />
    <glyph glyph-name="afii10053" unicode="&#x404;" horiz-adv-x="670" 
d="M350 -8c-88 0 -159.168 29.832 -213.501 89.499s-81.5 141.167 -81.5 244.5v58c0 99.333 27.333 178.166 82 236.499s125.667 87.5 213 87.5c74 0 135.667 -20.667 185 -62s79.333 -91.666 90 -150.999h-102c-10.667 34.667 -31.167 63.834 -61.5 87.501
s-67.5 35.5 -111.5 35.5c-58.667 0 -105.667 -19 -141 -57s-54 -92.333 -56 -163h282v-86h-282c2 -75.333 20.667 -132.5 56 -171.5s82.333 -58.5 141 -58.5c45.333 0 82.833 13 112.5 39s49.834 60.667 60.501 104h102c-10.667 -68 -40.5 -123.833 -89.5 -167.5
s-110.833 -65.5 -185.5 -65.5z" />
    <glyph glyph-name="afii10054" unicode="&#x405;" horiz-adv-x="610" 
d="M305 -8c-82 0 -143.662 19.1699 -184.995 57.5029s-64.666 96.833 -69.999 175.5h100c4.66699 -50.667 19 -87.167 43 -109.5s61.333 -33.5 112 -33.5c51.333 0 90.333 10.167 117 30.5s40 46.833 40 79.5c0 23.333 -7.33301 43 -22 59s-33.834 28.5 -57.501 37.5
s-49.834 17.167 -78.501 24.5s-57.334 15.666 -86.001 24.999s-54.834 20.666 -78.501 33.999s-42.834 32.333 -57.501 57s-22 54.334 -22 89.001c0 56 21.167 101.667 63.5 137s102.833 53 181.5 53c79.333 0 138.666 -17.833 177.999 -53.5
s61.666 -88.834 66.999 -159.501h-100c-5.33301 44 -18.833 75.5 -40.5 94.5s-56.5 28.5 -104.5 28.5c-48.667 0 -85.334 -9.16699 -110.001 -27.5s-37 -42.5 -37 -72.5c0 -19.333 5.83301 -36.166 17.5 -50.499s26.834 -25.333 45.501 -33s40 -15.167 64 -22.5
s48.667 -13.833 74 -19.5s50 -13.834 74 -24.501s45.333 -22.834 64 -36.501s33.834 -32.5 45.501 -56.5s17.5 -52 17.5 -84c0 -60.667 -21.5 -109 -64.5 -145s-106.5 -54 -190.5 -54z" />
    <glyph glyph-name="afii10055" unicode="&#x406;" horiz-adv-x="270" 
d="M88 0v700h94v-700h-94z" />
    <glyph glyph-name="afii10056" unicode="&#x407;" horiz-adv-x="270" 
d="M88 0v700h94v-700h-94zM30 775c-17.333 0 -31.666 5.83301 -42.999 17.5s-17 25.834 -17 42.501s5.66699 30.834 17 42.501s25.666 17.5 42.999 17.5s31.666 -5.83301 42.999 -17.5s17 -25.834 17 -42.501s-5.66699 -30.834 -17 -42.501s-25.666 -17.5 -42.999 -17.5z
M240 775c-17.333 0 -31.666 5.83301 -42.999 17.5s-17 25.834 -17 42.501s5.66699 30.834 17 42.501s25.666 17.5 42.999 17.5s31.666 -5.83301 42.999 -17.5s17 -25.834 17 -42.501s-5.66699 -30.834 -17 -42.501s-25.666 -17.5 -42.999 -17.5z" />
    <glyph glyph-name="afii10057" unicode="&#x408;" horiz-adv-x="535" 
d="M240 -8c-65.333 0 -117 20.5 -155 61.5s-59.667 98.167 -65 171.5h94c2.66699 -46 14.667 -81.333 36 -106s51.333 -37 90 -37c84 0 126 56 126 168v450h94v-450c0 -84 -19.5 -148 -58.5 -192s-92.833 -66 -161.5 -66z" />
    <glyph glyph-name="afii10058" unicode="&#x409;" horiz-adv-x="1020" 
d="M15 -8v90h21c22.667 0 41.167 6.33301 55.5 19s26 39 35 79s13.5 95.333 13.5 166v354h457v-252h133c86 0 150.833 -19.667 194.5 -59s65.5 -94.666 65.5 -165.999c0 -148.667 -86.667 -223 -260 -223h-227v614h-269v-268c0 -92.667 -7.83301 -165.334 -23.5 -218.001
s-37.167 -88.5 -64.5 -107.5s-64 -28.5 -110 -28.5h-21zM735 362h-138v-276h138c55.333 0 95.5 11.333 120.5 34s37.5 57 37.5 103c0 92.667 -52.667 139 -158 139z" />
    <glyph glyph-name="afii10059" unicode="&#x40a;" horiz-adv-x="1030" 
d="M525 0v337h-351v-337h-94v700h94v-277h351v277h95v-277h130c84 0 146.667 -18.333 188 -55s62 -89 62 -157c0 -66.667 -20.833 -118.5 -62.5 -155.5s-104.167 -55.5 -187.5 -55.5h-225zM755 337h-135v-251h135c99.333 0 149 41.667 149 125c0 40 -12.5 71 -37.5 93
s-62.167 33 -111.5 33z" />
    <glyph glyph-name="afii10060" unicode="&#x40b;" horiz-adv-x="775" 
d="M20 614v86h540v-86h-223v-230c35.333 49.333 89.333 74 162 74c137.333 0 206 -82.667 206 -248v-210h-94v210c0 56 -10.833 96.333 -32.5 121s-54.834 37 -99.501 37c-43.333 0 -77.666 -13 -102.999 -39s-38.333 -63.333 -39 -112v-217h-94v614h-223z" />
    <glyph glyph-name="afii10061" unicode="&#x40c;" horiz-adv-x="635" 
d="M492 0l-229 317h-89v-317h-94v700h94v-297h91l211 297h114l-245 -339l265 -361h-118zM284 760l112 150h108l-128 -150h-92z" />
    <glyph glyph-name="uni040D" unicode="&#x40d;" horiz-adv-x="710" 
d="M536 0v593l-52 -103l-276 -490h-128v700h94v-593l52 103l276 490h128v-700h-94zM309 760l-128 150h108l112 -150h-92z" />
    <glyph glyph-name="afii10062" unicode="&#x40e;" horiz-adv-x="610" 
d="M185 0l86 197l-251 503h106l195 -400l167 400h102l-303 -700h-102zM307 762c-48.667 0 -85.832 12.167 -111.499 36.5s-38.5 58.166 -38.5 101.499h82c0 -49.333 22.667 -74 68 -74c46.667 0 70 24.667 70 74h80c0 -43.333 -12.833 -77.166 -38.5 -101.499
s-62.834 -36.5 -111.501 -36.5z" />
    <glyph glyph-name="afii10145" unicode="&#x40f;" horiz-adv-x="700" 
d="M80 0v700h94v-614h352v614h94v-700h-224v-150h-92v150h-224z" />
    <glyph glyph-name="afii10017" unicode="&#x410;" horiz-adv-x="650" 
d="M533 0l-68 192h-284l-68 -192h-98l255 700h110l255 -700h-102zM272 446l-60 -168h222l-59 168l-51 149z" />
    <glyph glyph-name="afii10018" unicode="&#x411;" horiz-adv-x="610" 
d="M80 0v699.999h440v-86h-346v-186h145c81.333 0 143.5 -19.167 186.5 -57.5s64.5 -90.833 64.5 -157.5c0 -67.333 -21 -119.666 -63 -156.999s-104.667 -56 -188 -56h-239zM319 341.999h-145v-256h145c102.667 0 154 42.333 154 127c0 86 -51.333 129 -154 129z" />
    <glyph glyph-name="afii10019" unicode="&#x412;" horiz-adv-x="620" 
d="M80 0v700h225c163.333 0 245 -62.333 245 -187c0 -68 -30 -117.667 -90 -149c73.333 -29.333 110 -85 110 -167c0 -65.333 -19.5 -114.5 -58.5 -147.5s-101.167 -49.5 -186.5 -49.5h-245zM325 318h-151v-232h151c52.667 0 90.334 9.5 113.001 28.5s34 48.167 34 87.5
s-11.333 68.5 -34 87.5s-60.334 28.5 -113.001 28.5zM305 614h-131v-212h131c52 0 89.5 9 112.5 27s34.5 44.333 34.5 79s-11.5 61 -34.5 79s-60.5 27 -112.5 27z" />
    <glyph glyph-name="afii10020" unicode="&#x413;" horiz-adv-x="515" 
d="M80 0v700h415v-86h-321v-614h-94z" />
    <glyph glyph-name="afii10021" unicode="&#x414;" horiz-adv-x="690" 
d="M576 -150v149.999h-467v-150h-94v236h59c29.333 36.667 48.5 79.834 57.5 129.501s13.5 134.5 13.5 254.5v230h455v-614h70v-236h-94zM239 469.999c0 -108 -3.66699 -189.668 -11 -245.001s-23 -101.666 -47 -138.999h325v528h-267v-144z" />
    <glyph glyph-name="afii10022" unicode="&#x415;" horiz-adv-x="560" 
d="M80 0v700h435v-86h-341v-211h281v-86h-281v-231h341v-86h-435z" />
    <glyph glyph-name="afii10024" unicode="&#x416;" horiz-adv-x="920" 
d="M781 0l-184 316h-90v-316h-94v316h-90l-186 -316h-112l215 357l-195 343h112l166 -298h90v298h94v-298h90l168 298h110l-194 -338l214 -362h-114z" />
    <glyph glyph-name="afii10025" unicode="&#x417;" horiz-adv-x="595" 
d="M300 -8c-79.333 0 -140.332 20.168 -182.999 60.501s-66.667 97.833 -72 172.5h98c5.33301 -48 20.666 -83.833 45.999 -107.5s62.333 -35.5 111 -35.5c48 0 84.5 10.667 109.5 32s37.5 50 37.5 86s-12.5 64.5 -37.5 85.5s-61.5 31.5 -109.5 31.5h-85v86h85
c43.333 0 76.166 9.66699 98.499 29s33.5 45.666 33.5 78.999s-11.167 59.5 -33.5 78.5s-55.166 28.5 -98.499 28.5c-84.667 0 -132 -41 -142 -123h-98c5.33301 67.333 28.333 119.666 69 156.999s97.667 56 171 56c72.667 0 129.167 -17.667 169.5 -53
s60.5 -81.666 60.5 -138.999c0 -71.333 -30 -123 -90 -155c70 -32 105 -87.333 105 -166c0 -60.667 -21.333 -109.667 -64 -147s-103 -56 -181 -56z" />
    <glyph glyph-name="afii10026" unicode="&#x418;" horiz-adv-x="710" 
d="M536 0v593l-52 -103l-276 -490h-128v700h94v-593l52 103l276 490h128v-700h-94z" />
    <glyph glyph-name="afii10027" unicode="&#x419;" horiz-adv-x="710" 
d="M536 0v593l-52 -103l-276 -490h-128v700h94v-593l52 103l276 490h128v-700h-94zM355 762c-48.667 0 -85.832 12.167 -111.499 36.5s-38.5 58.166 -38.5 101.499h82c0 -49.333 22.667 -74 68 -74c46.667 0 70 24.667 70 74h80c0 -43.333 -12.833 -77.166 -38.5 -101.499
s-62.834 -36.5 -111.501 -36.5z" />
    <glyph glyph-name="afii10028" unicode="&#x41a;" horiz-adv-x="635" 
d="M492 0l-229 317h-89v-317h-94v700h94v-297h91l211 297h114l-245 -339l265 -361h-118z" />
    <glyph glyph-name="afii10029" unicode="&#x41b;" horiz-adv-x="680" 
d="M15 -8l0.00195312 89.998h20c22.667 0 41.167 6.33301 55.5 19s26.166 38.834 35.499 78.501s14 94.834 14 165.501v355h460v-700h-94v614h-272v-269c0 -92.667 -7.83301 -165.167 -23.5 -217.5s-37.334 -88 -65.001 -107s-64.5 -28.5 -110.5 -28.5h-20z" />
    <glyph glyph-name="afii10030" unicode="&#x41c;" horiz-adv-x="810" 
d="M358 195l-140 295l-44 105v-595h-94v700h134l193 -405l191 405h132v-700h-94v596l-45 -106l-139 -295h-94z" />
    <glyph glyph-name="afii10031" unicode="&#x41d;" horiz-adv-x="710" 
d="M536 0v317h-362v-317h-94v700h94v-297h362v297h94v-700h-94z" />
    <glyph glyph-name="afii10032" unicode="&#x41e;" horiz-adv-x="710" 
d="M355 -8c-90 0 -162.5 29.333 -217.5 88s-82.5 139 -82.5 241v58c0 101.333 27.667 181.5 83 240.5s127.666 88.5 216.999 88.5c90 0 162.5 -29.333 217.5 -88s82.5 -139 82.5 -241v-58c0 -101.333 -27.667 -181.5 -83 -240.5s-127.666 -88.5 -216.999 -88.5zM355 82
c60.667 0 109.5 20.833 146.5 62.5s55.5 100.5 55.5 176.5v58c0 75.333 -18.667 134 -56 176s-86 63 -146 63c-60.667 0 -109.5 -20.833 -146.5 -62.5s-55.5 -100.5 -55.5 -176.5v-58c0 -75.333 18.667 -134 56 -176s86 -63 146 -63z" />
    <glyph glyph-name="afii10033" unicode="&#x41f;" horiz-adv-x="700" 
d="M526 0v614h-352v-614h-94v700h540v-700h-94z" />
    <glyph glyph-name="afii10034" unicode="&#x420;" horiz-adv-x="600" 
d="M80 0v700h230c173.333 0 260 -74.667 260 -224c0 -70.667 -21.833 -125.667 -65.5 -165s-108.5 -59 -194.5 -59h-136v-252h-94zM310 614l-136 -0.000976562v-276h136c56.667 0 98 11.5 124 34.5s39 57.5 39 103.5c0 46.667 -12.833 81.334 -38.5 104.001
s-67.167 34 -124.5 34z" />
    <glyph glyph-name="afii10035" unicode="&#x421;" horiz-adv-x="670" 
d="M350 -8c-88 0 -159.168 29.3311 -213.501 87.998s-81.5 139 -81.5 241v58c0 101.333 27.333 181.5 82 240.5s125.667 88.5 213 88.5c74 0 135.667 -20.667 185 -62s79.333 -91.666 90 -150.999h-102c-10.667 34.667 -31.167 63.834 -61.5 87.501s-67.5 35.5 -111.5 35.5
c-58 0 -105.333 -21 -142 -63s-55 -100.667 -55 -176v-58c0 -74.667 18.333 -133.167 55 -175.5s84 -63.5 142 -63.5c45.333 0 82.833 13 112.5 39s49.834 60.667 60.501 104h102c-10.667 -68 -40.5 -123.833 -89.5 -167.5s-110.833 -65.5 -185.5 -65.5z" />
    <glyph glyph-name="afii10036" unicode="&#x422;" horiz-adv-x="580" 
d="M20 614v86h540v-86h-223v-614h-94v614h-223z" />
    <glyph glyph-name="afii10037" unicode="&#x423;" horiz-adv-x="610" 
d="M185 0l86 197l-251 503h106l195 -400l167 400h102l-303 -700h-102z" />
    <glyph glyph-name="afii10038" unicode="&#x424;" horiz-adv-x="840" 
d="M795 331c0 -86 -28.5 -155.167 -85.5 -207.5s-136.167 -78.5 -237.5 -78.5h-5v-53h-94v53h-6c-101.333 0 -180.333 26 -237 78s-85 121.333 -85 208v38c0 86 28.5 155.167 85.5 207.5s135.833 78.5 236.5 78.5h6v53h94v-53h5c102 0 181.333 -26 238 -78
s85 -121.333 85 -208v-38zM143 331c0 -60.667 19.333 -108.5 58 -143.5s94 -52.5 166 -52.5h6v430h-6c-72 0 -127.333 -17.5 -166 -52.5s-58 -82.833 -58 -143.5v-38zM472 565h-5v-430h5c72.667 0 128.334 17.5 167.001 52.5s58 82.833 58 143.5v38
c0 60.667 -19.333 108.5 -58 143.5s-94.334 52.5 -167.001 52.5z" />
    <glyph glyph-name="afii10039" unicode="&#x425;" horiz-adv-x="650" 
d="M509 0l-185 286l-185 -286h-114l239 363l-219 337h113l168 -257l167 257h112l-219 -333l239 -367h-116z" />
    <glyph glyph-name="afii10040" unicode="&#x426;" horiz-adv-x="720" 
d="M80 0v700h94v-614h352v614h94v-614h80v-236h-94v150h-526z" />
    <glyph glyph-name="afii10041" unicode="&#x427;" horiz-adv-x="630" 
d="M456 0l0.000976562 268c-54.667 -14 -106.667 -21 -156 -21c-88.667 0 -152.5 19.667 -191.5 59s-58.5 104 -58.5 194v200h94v-200c0 -60 12.167 -102.833 36.5 -128.5s64.166 -38.5 119.499 -38.5c49.333 0 101.333 7 156 21v346h94v-700h-94z" />
    <glyph glyph-name="afii10042" unicode="&#x428;" horiz-adv-x="940" 
d="M80 0v700h94v-614h249v614h94v-614h249v614h94v-700h-780z" />
    <glyph glyph-name="afii10043" unicode="&#x429;" horiz-adv-x="960" 
d="M80 0v700h94v-614h249v614h94v-614h249v614h94v-614h80v-236h-94v150h-766z" />
    <glyph glyph-name="afii10044" unicode="&#x42a;" horiz-adv-x="715" 
d="M20 614v85.999h269v-252h136c86 0 150.833 -19.667 194.5 -59s65.5 -94.666 65.5 -165.999c0 -148.667 -86.667 -223 -260 -223h-230v614h-175zM430 361.999h-141v-276h141c55.333 0 95.5 11.333 120.5 34s37.5 57 37.5 103c0 92.667 -52.667 139 -158 139z" />
    <glyph glyph-name="afii10045" unicode="&#x42b;" horiz-adv-x="830" 
d="M80 0l-0.000976562 699.999h94v-252h125c86.667 0 151.834 -19.667 195.501 -59s65.5 -94.666 65.5 -165.999c0 -148.667 -87 -223 -261 -223h-219zM298.999 361.999h-125v-276h125c58 0 99.833 11.167 125.5 33.5s38.5 56.833 38.5 103.5s-13.167 81.5 -39.5 104.5
s-67.833 34.5 -124.5 34.5zM655.999 -0.000976562v700h94v-700h-94z" />
    <glyph glyph-name="afii10046" unicode="&#x42c;" horiz-adv-x="600" 
d="M80 0v699.999h94v-252h136c86 0 150.833 -19.667 194.5 -59s65.5 -94.666 65.5 -165.999c0 -148.667 -86.667 -223 -260 -223h-230zM315 361.999h-141v-276h141c55.333 0 95.5 11.333 120.5 34s37.5 57 37.5 103c0 92.667 -52.667 139 -158 139z" />
    <glyph glyph-name="afii10047" unicode="&#x42d;" horiz-adv-x="670" 
d="M235 312l-0.000976562 86.001h282c-2.66699 70.667 -21.667 125 -57 163s-82 57 -140 57c-44 0 -81.167 -11.833 -111.5 -35.5s-50.833 -52.834 -61.5 -87.501h-102c10.667 59.333 40.667 109.666 90 150.999s111 62 185 62c87.333 0 158.333 -29.167 213 -87.5
s82 -137.166 82 -236.499v-58c0 -103.333 -27.167 -184.833 -81.5 -244.5s-125.5 -89.5 -213.5 -89.5c-74.667 0 -136.5 21.833 -185.5 65.5s-78.833 99.5 -89.5 167.5h102c10.667 -43.333 30.834 -78 60.501 -104s67.167 -39 112.5 -39c58.667 0 105.5 19.5 140.5 58.5
s53.833 96.167 56.5 171.5h-282z" />
    <glyph glyph-name="afii10048" unicode="&#x42e;" horiz-adv-x="905" 
d="M568 -8c-85.333 0 -153.166 27.667 -203.499 83s-76.5 136 -78.5 242h-112v-317h-94v700h94v-297h112c2.66699 96.667 29.5 171.667 80.5 225s118.167 80 201.5 80c86 0 154.5 -27.833 205.5 -83.5s76.5 -134.167 76.5 -235.5v-58c0 -110 -25.333 -194 -76 -252
s-119.334 -87 -206.001 -87zM568 82c56.667 0 101.5 20.6689 134.5 62.002s49.5 103.666 49.5 186.999v58c0 74 -16.833 130.667 -50.5 170s-78.167 59 -133.5 59c-56 0 -100.667 -19.667 -134 -59s-50 -96 -50 -170v-58c0 -82.667 16.667 -144.834 50 -186.501
s78 -62.5 134 -62.5z" />
    <glyph glyph-name="afii10049" unicode="&#x42f;" horiz-adv-x="620" 
d="M30 0l160 290c-93.333 29.333 -140 95 -140 197c0 68 21.5 120.5 64.5 157.5s108.167 55.5 195.5 55.5h230v-700h-94v274h-136c-13.333 0 -23.333 0.333008 -30 1l-146 -275h-104zM148 487c0 -84.667 54 -127 162 -127h136v254h-136c-108 0 -162 -42.333 -162 -127z" />
    <glyph glyph-name="afii10065" unicode="&#x430;" horiz-adv-x="520" 
d="M200 -8c-51.333 0 -90.835 13.001 -118.502 39.001s-41.5 62.333 -41.5 109c0 108.667 73.333 163 220 163h100v37c0 58.667 -33.333 88 -100 88c-61.333 0 -94.666 -22.667 -99.999 -68h-100c2.66699 44.667 20.834 80.5 54.501 107.5s82.167 40.5 145.5 40.5
c61.333 0 108.333 -14.833 141 -44.5s49 -70.834 49 -123.501v-340h-70l-11 82c-38 -60 -94.333 -90 -169 -90zM209.998 72.001c42.667 0 78.333 13.5 107 40.5s43 59.167 43 96.5v18h-100c-84 0 -126 -28.333 -126 -85c0 -21.333 6.66699 -38.333 20 -51s32 -19 56 -19z
" />
    <glyph glyph-name="afii10066" unicode="&#x431;" horiz-adv-x="550" 
d="M275 -8c-72.667 0 -129.168 23.1689 -169.501 69.502s-60.5 116.166 -60.5 209.499v58c0 165.333 40.667 272 122 320c30.667 18 77.834 29.333 141.501 34s115.5 13 155.5 25v-81c-31.333 -11.333 -76.5 -18.833 -135.5 -22.5s-99.5 -12.5 -121.5 -26.5
c-40.667 -27.333 -65.667 -77 -75 -149c37.333 46 90 69 158 69c64.667 0 116.667 -20.833 156 -62.5s59 -98.834 59 -171.501v-38c0 -72 -20.833 -129 -62.5 -171s-97.5 -63 -167.5 -63zM274.999 412.002c-40.667 0 -73.332 -12 -97.999 -36s-37.334 -57.667 -38.001 -101
v-45c0 -48 12.333 -85.333 37 -112s57.667 -40 99 -40c42.667 0 76 12.833 100 38.5s36 62.167 36 109.5v38c0 46.667 -12.333 83 -37 109s-57.667 39 -99 39z" />
    <glyph glyph-name="afii10067" unicode="&#x432;" horiz-adv-x="520" 
d="M75 0v500h190c126.667 0 190 -46.333 190 -139c0 -44 -20.667 -77.667 -62 -101c54.667 -22.667 82 -61 82 -115c0 -96.667 -63.333 -145 -190 -145h-210zM285 216h-120v-134h120c34.667 0 59.334 5.66699 74.001 17s22 28.333 22 51c0 22 -7.33301 38.5 -22 49.5
s-39.334 16.5 -74.001 16.5zM265 418h-100v-124h100c34.667 0 59.334 5.16699 74.001 15.5s22 25.833 22 46.5s-7.33301 36.167 -22 46.5s-39.334 15.5 -74.001 15.5z" />
    <glyph glyph-name="afii10068" unicode="&#x433;" horiz-adv-x="430" 
d="M75 0v500h335v-82h-245v-418h-90z" />
    <glyph glyph-name="afii10069" unicode="&#x434;" horiz-adv-x="550" 
d="M445 -130l-0.000976562 129.998h-345v-130h-90v212h54c20.667 28.667 34.834 61.834 42.501 99.501s11.5 93.834 11.5 168.501v150h352v-418h65v-212h-90zM205.999 349.998c0 -127.333 -15 -216.667 -45 -268h219v336h-174v-68z" />
    <glyph glyph-name="afii10070" unicode="&#x435;" horiz-adv-x="540" 
d="M270 -8c-67.333 0 -121.669 21.499 -163.002 64.499s-62 101.167 -62 174.5v38c0 72 20.833 129.833 62.5 173.5s95.834 65.5 162.501 65.5c67.333 0 121.666 -21.667 162.999 -65s62 -101.333 62 -174v-48h-356c1.33301 -47.333 13.833 -83.666 37.5 -108.999
s54.834 -38 93.501 -38c37.333 0 65.333 6.5 84 19.5s33.334 33.5 44.001 61.5h92c-22 -108.667 -95.333 -163 -220 -163zM269.997 425.999c-36.667 0 -66.332 -10.833 -88.999 -32.5s-36.334 -53.167 -41.001 -94.5h259c-8 84.667 -51 127 -129 127z" />
    <glyph glyph-name="afii10072" unicode="&#x436;" horiz-adv-x="720" 
d="M595 0l-120 219h-70v-219h-90v219h-70l-122 -219h-108l150 257l-131 243h108l102 -199h71v199h90v-199h69l105 199h106l-130 -237l150 -263h-110z" />
    <glyph glyph-name="afii10073" unicode="&#x437;" horiz-adv-x="485" 
d="M240 508c60.667 0 106.667 -12.999 138 -38.999s47 -60.667 47 -104c0 -50.667 -21.333 -87.334 -64 -110.001c52.667 -23.333 79 -61.666 79 -114.999c0 -45.333 -16.667 -81.333 -50 -108s-83.333 -40 -150 -40c-129.333 0 -199.333 54.333 -210 163h92
c5.33301 -26.667 16.833 -46.5 34.5 -59.5s45.5 -19.5 83.5 -19.5c72 0 108 23 108 69s-36 69 -108 69h-55v82h55c62 0 93 21.333 93 64s-31 64 -93 64c-32 0 -55.833 -5.83301 -71.5 -17.5s-26.167 -28.834 -31.5 -51.501h-92c5.33301 48 24 85.5 56 112.5
s78.333 40.5 139 40.5z" />
    <glyph glyph-name="afii10074" unicode="&#x438;" horiz-adv-x="580" 
d="M415 0v393l-55 -103l-169 -290h-116v500h90v-393l55 103l169 290h116v-500h-90z" />
    <glyph glyph-name="afii10075" unicode="&#x439;" horiz-adv-x="580" 
d="M415 0v393l-55 -103l-169 -290h-116v500h90v-393l55 103l169 290h116v-500h-90zM290 562c-44 0 -78.333 12.167 -103 36.5s-37 58.166 -37 101.499h78c0 -50.667 20.667 -76 62 -76c42.667 0 64 25.333 64 76h76c0 -43.333 -12.333 -77.166 -37 -101.499
s-59 -36.5 -103 -36.5z" />
    <glyph glyph-name="afii10076" unicode="&#x43a;" horiz-adv-x="510" 
d="M385 0l-151 219h-69v-219h-90v500h90v-199h70l134 199h106l-166 -238l186 -262h-110z" />
    <glyph glyph-name="afii10077" unicode="&#x43b;" horiz-adv-x="545" 
d="M15 -8v86h15c53.333 0 80 58.667 80 176v246h360v-500h-90v418h-180v-164c0 -94 -14.5 -161.167 -43.5 -201.5s-71.167 -60.5 -126.5 -60.5h-15z" />
    <glyph glyph-name="afii10078" unicode="&#x43c;" horiz-adv-x="680" 
d="M295 120l-81 170l-49 108v-398h-90v500h132l135 -284l135 284h128v-500h-90v399l-50 -109l-80 -170h-90z" />
    <glyph glyph-name="afii10079" unicode="&#x43d;" horiz-adv-x="580" 
d="M415 0v214h-250v-214h-90v500h90v-204h250v204h90v-500h-90z" />
    <glyph glyph-name="afii10080" unicode="&#x43e;" horiz-adv-x="550" 
d="M275 -8c-70.667 0 -126.667 21.333 -168 64s-62 101 -62 175v38c0 73.333 20.833 131.5 62.5 174.5s97.5 64.5 167.5 64.5c70.667 0 126.667 -21.333 168 -64s62 -101 62 -175v-38c0 -73.333 -20.833 -131.5 -62.5 -174.5s-97.5 -64.5 -167.5 -64.5zM275 78
c42.667 0 76 13 100 39s36 64 36 114v38c0 49.333 -12.167 87.166 -36.5 113.499s-57.5 39.5 -99.5 39.5c-42.667 0 -76 -13 -100 -39s-36 -64 -36 -114v-38c0 -49.333 12.167 -87.166 36.5 -113.499s57.5 -39.5 99.5 -39.5z" />
    <glyph glyph-name="afii10081" unicode="&#x43f;" horiz-adv-x="560" 
d="M395 0v418h-230v-418h-90v500h410v-500h-90z" />
    <glyph glyph-name="afii10082" unicode="&#x440;" horiz-adv-x="560" 
d="M317 -8c-66 0 -116.667 21.667 -152 65v-257h-90v700h70l9 -72c35.333 53.333 90 80 164 80c58 0 105.333 -21 142 -63s55 -100.667 55 -176v-38c0 -74.667 -18.5 -133.167 -55.5 -175.5s-84.5 -63.5 -142.5 -63.5zM293 78c85.333 0 128.001 50.999 128.001 152.999v38
c0 50.667 -11.167 88.834 -33.5 114.501s-53.833 38.5 -94.5 38.5c-37.333 0 -67.833 -12.833 -91.5 -38.5s-35.834 -61.5 -36.501 -107.5v-45c0 -48 11.833 -85.5 35.5 -112.5s54.5 -40.5 92.5 -40.5z" />
    <glyph glyph-name="afii10083" unicode="&#x441;" horiz-adv-x="505" 
d="M270 -8c-69.333 0 -124.163 20.998 -164.496 62.998s-60.5 100.667 -60.5 176v38c0 74.667 20.167 133.167 60.5 175.5s95.166 63.5 164.499 63.5c56 0 101.5 -14.167 136.5 -42.5s57.833 -65.166 68.5 -110.499h-96c-19.333 44.667 -57.333 67 -114 67
c-38.667 0 -69.334 -13 -92.001 -39s-34 -64 -34 -114v-38c0 -49.333 11.5 -87.166 34.5 -113.499s53.5 -39.5 91.5 -39.5c59.333 0 97.333 25.667 114 77h96c-10.667 -50 -33.334 -89.667 -68.001 -119s-80.334 -44 -137.001 -44z" />
    <glyph glyph-name="afii10084" unicode="&#x442;" horiz-adv-x="450" 
d="M20 418v82h410v-82h-160v-418h-90v418h-160z" />
    <glyph glyph-name="afii10085" unicode="&#x443;" horiz-adv-x="520" 
d="M140 -200l77 200l-202 500h98l152 -387l144 387h96l-269 -700h-96z" />
    <glyph glyph-name="afii10086" unicode="&#x444;" horiz-adv-x="700" 
d="M270 -8c-68 0 -122.5 21.333 -163.5 64s-61.5 101 -61.5 175v38c0 73.333 20.667 131.5 62 174.5s95.666 64.5 162.999 64.5h35v192h90v-192h35c68 0 122.5 -21.333 163.5 -64s61.5 -101 61.5 -175v-38c0 -73.333 -20.667 -131.5 -62 -174.5
s-95.666 -64.5 -162.999 -64.5h-35v-192h-90v192h-35zM139 231c0 -49.333 11.667 -87.167 35 -113.5s55.333 -39.5 96 -39.5h35v344h-35c-40.667 0 -72.667 -13 -96 -39s-35 -64 -35 -114v-38zM430 421.999l-35 0.000976562v-344h35c40.667 0 72.667 13 96 39s35 64 35 114
v38c0 49.333 -11.667 87.166 -35 113.499s-55.333 39.5 -96 39.5z" />
    <glyph glyph-name="afii10087" unicode="&#x445;" horiz-adv-x="500" 
d="M381 0l-131 191l-133 -191h-102l179 256l-169 244h102l123 -181l125 181h100l-169 -245l179 -255h-104z" />
    <glyph glyph-name="afii10088" unicode="&#x446;" horiz-adv-x="565" 
d="M75 0v500h90v-418h225v418h90v-418h70v-212h-90v130h-385z" />
    <glyph glyph-name="afii10089" unicode="&#x447;" horiz-adv-x="520" 
d="M355 0l0.000976562 171c-38.667 -8 -75.334 -12 -110.001 -12c-69.333 0 -120 15.333 -152 46s-48 79 -48 145v150h90v-150c0 -41.333 8 -69.833 24 -85.5s44.667 -23.5 86 -23.5c36 0 72.667 4 110 12v247h90v-500h-90z" />
    <glyph glyph-name="afii10090" unicode="&#x448;" horiz-adv-x="760" 
d="M75 0v500h90v-418h170v418h90v-418h170v418h90v-500h-610z" />
    <glyph glyph-name="afii10091" unicode="&#x449;" horiz-adv-x="770" 
d="M75 0v500h90v-418h170v418h90v-418h170v418h90v-418h70v-212h-90v130h-590z" />
    <glyph glyph-name="afii10092" unicode="&#x44a;" horiz-adv-x="575" 
d="M10 419v81h230v-160h95c143.333 0 215 -56.667 215 -170s-71.667 -170 -215 -170h-185v419h-140zM340 258h-100v-176h100c42 0 72.167 7.33301 90.5 22s27.5 36.667 27.5 66s-9.16699 51.333 -27.5 66s-48.5 22 -90.5 22z" />
    <glyph glyph-name="afii10093" unicode="&#x44b;" horiz-adv-x="710" 
d="M75 0v500h90v-160h95c143.333 0 215 -56.667 215 -170s-71.667 -170 -215 -170h-185zM545 0v500h90v-500h-90zM265 258h-100v-176h100c42 0 72.167 7.33301 90.5 22s27.5 36.667 27.5 66s-9.16699 51.333 -27.5 66s-48.5 22 -90.5 22z" />
    <glyph glyph-name="afii10094" unicode="&#x44c;" horiz-adv-x="500" 
d="M75 0v500h90v-160h95c143.333 0 215 -56.667 215 -170s-71.667 -170 -215 -170h-185zM265 258h-100v-176h100c42 0 72.167 7.33301 90.5 22s27.5 36.667 27.5 66s-9.16699 51.333 -27.5 66s-48.5 22 -90.5 22z" />
    <glyph glyph-name="afii10095" unicode="&#x44d;" horiz-adv-x="505" 
d="M180 214v82.001h185c-4 40.667 -17.5 71.834 -40.5 93.501s-52.833 32.5 -89.5 32.5c-54 0 -90.333 -22.333 -109 -67h-96c10.667 45.333 33.5 82.166 68.5 110.499s80.5 42.5 136.5 42.5c68.667 0 123.334 -20.833 164.001 -62.5s61 -98.834 61 -171.501v-38
c0 -77.333 -20.167 -137.333 -60.5 -180s-95.166 -64 -164.499 -64c-56.667 0 -102.334 14.667 -137.001 44s-57.334 69 -68.001 119h96c16.667 -51.333 53 -77 109 -77c38 0 68.333 11.333 91 34s35.667 56.667 39 102h-185z" />
    <glyph glyph-name="afii10096" unicode="&#x44e;" horiz-adv-x="740" 
d="M476 -8c-64 0 -115.499 19.332 -154.499 57.999s-59.833 93.334 -62.5 164.001h-94v-214h-90v500h90v-204h95c4.66699 66.667 26.334 118.667 65.001 156s89 56 151 56c67.333 0 120.666 -21 159.999 -63s59 -100.667 59 -176v-38c0 -75.333 -19.833 -134 -59.5 -176
s-92.834 -63 -159.501 -63zM476.001 77.999c38 0 68.3311 13.167 90.998 39.5s34 64.166 34 113.499v38c0 49.333 -11.333 87.166 -34 113.499s-53 39.5 -91 39.5c-37.333 0 -67.166 -13.167 -89.499 -39.5s-33.5 -64.166 -33.5 -113.499v-38
c0 -49.333 11.333 -87.166 34 -113.499s52.334 -39.5 89.001 -39.5z" />
    <glyph glyph-name="afii10097" unicode="&#x44f;" horiz-adv-x="510" 
d="M45 336c0 54 16.833 94.833 50.5 122.5s88.5 41.5 164.5 41.5h175v-500h-90v174h-85c-19.333 0 -33.333 0.333008 -42 1l-93 -175h-100l108 193c-58.667 24 -88 71.667 -88 143zM139 336c0 -27.333 9 -47.5 27 -60.5s49.333 -19.5 94 -19.5h85v162h-85
c-44.667 0 -76 -6.66699 -94 -20s-27 -34 -27 -62z" />
    <glyph glyph-name="uni0450" unicode="&#x450;" horiz-adv-x="540" 
d="M270 -8c-67.333 0 -121.669 21.499 -163.002 64.499s-62 101.167 -62 174.5v38c0 72 20.833 129.833 62.5 173.5s95.834 65.5 162.501 65.5c67.333 0 121.666 -21.667 162.999 -65s62 -101.333 62 -174v-48h-356c1.33301 -47.333 13.833 -83.666 37.5 -108.999
s54.834 -38 93.501 -38c37.333 0 65.333 6.5 84 19.5s33.334 33.5 44.001 61.5h92c-22 -108.667 -95.333 -163 -220 -163zM269.997 425.999c-36.667 0 -66.332 -10.833 -88.999 -32.5s-36.334 -53.167 -41.001 -94.5h259c-8 84.667 -51 127 -129 127zM224.999 559.999
l-130 150h104l116 -150h-90z" />
    <glyph glyph-name="afii10071" unicode="&#x451;" horiz-adv-x="540" 
d="M270 -8c-67.333 0 -121.669 21.499 -163.002 64.499s-62 101.167 -62 174.5v38c0 72 20.833 129.833 62.5 173.5s95.834 65.5 162.501 65.5c67.333 0 121.666 -21.667 162.999 -65s62 -101.333 62 -174v-48h-356c1.33301 -47.333 13.833 -83.666 37.5 -108.999
s54.834 -38 93.501 -38c37.333 0 65.333 6.5 84 19.5s33.334 33.5 44.001 61.5h92c-22 -108.667 -95.333 -163 -220 -163zM269.997 425.999c-36.667 0 -66.332 -10.833 -88.999 -32.5s-36.334 -53.167 -41.001 -94.5h259c-8 84.667 -51 127 -129 127zM174.999 574.999
c-16.667 0 -30.834 5.83301 -42.501 17.5s-17.5 25.834 -17.5 42.501s5.83301 30.834 17.5 42.501s25.834 17.5 42.501 17.5s30.834 -5.83301 42.501 -17.5s17.5 -25.834 17.5 -42.501s-5.83301 -30.834 -17.5 -42.501s-25.834 -17.5 -42.501 -17.5zM364.999 574.999
c-16.667 0 -30.834 5.83301 -42.501 17.5s-17.5 25.834 -17.5 42.501s5.83301 30.834 17.5 42.501s25.834 17.5 42.501 17.5s30.834 -5.83301 42.501 -17.5s17.5 -25.834 17.5 -42.501s-5.83301 -30.834 -17.5 -42.501s-25.834 -17.5 -42.501 -17.5z" />
    <glyph glyph-name="afii10099" unicode="&#x452;" horiz-adv-x="575" 
d="M305 -200l0.000976562 82h33c26.667 0 46.167 8 58.5 24s18.5 42.333 18.5 79v280c0 84.667 -38.333 127 -115 127c-40.667 0 -73.334 -11.833 -98.001 -35.5s-37 -54.167 -37 -91.5v-265h-90v524h-85v72h85v104h90v-104h160v-72h-160v-113c34 44.667 84 67 150 67
c58.667 0 105 -18.5 139 -55.5s51 -89.5 51 -157.5v-280c0 -66 -13.167 -113.333 -39.5 -142s-68.833 -43 -127.5 -43h-33z" />
    <glyph glyph-name="afii10100" unicode="&#x453;" horiz-adv-x="430" 
d="M75 0v500h335v-82h-245v-418h-90zM197 560l116 150h104l-130 -150h-90z" />
    <glyph glyph-name="afii10101" unicode="&#x454;" horiz-adv-x="505" 
d="M270 -8c-69.333 0 -124.167 21.332 -164.5 63.999s-60.5 102.667 -60.5 180v38c0 72.667 20.167 129.834 60.5 171.501s94.833 62.5 163.5 62.5c56 0 101.667 -14.167 137 -42.5s58.333 -65.166 69 -110.499h-96c-18.667 44.667 -55 67 -109 67
c-37.333 0 -67.5 -10.833 -90.5 -32.5s-36.167 -52.834 -39.5 -93.501h185v-82h-185c2.66699 -45.333 15.334 -79.333 38.001 -102s53.334 -34 92.001 -34c56 0 92.333 25.667 109 77h96c-10.667 -50 -33.334 -89.667 -68.001 -119s-80.334 -44 -137.001 -44z" />
    <glyph glyph-name="afii10102" unicode="&#x455;" horiz-adv-x="490" 
d="M245 -8c-122.667 0 -189.333 54.3311 -200 162.998h94c5.33301 -30.667 15.5 -52.167 30.5 -64.5s40.167 -18.5 75.5 -18.5c39.333 0 66.833 5.5 82.5 16.5s23.5 28.167 23.5 51.5c0 22 -10.167 39 -30.5 51s-45 20.833 -74 26.5s-58 12.334 -87 20.001
s-53.667 22 -74 43s-30.5 49.167 -30.5 84.5c0 42.667 16.167 77.167 48.5 103.5s79.5 39.5 141.5 39.5c58 0 102.833 -13.5 134.5 -40.5s50.167 -64.5 55.5 -112.5h-94c-5.33301 25.333 -15 43.833 -29 55.5s-36.333 17.5 -67 17.5c-64 0 -96 -21 -96 -63
c0 -19.333 10.167 -34 30.5 -44s45 -17.667 74 -23s58 -12.166 87 -20.499s53.667 -23.833 74 -46.5s30.5 -53 30.5 -91c0 -45.333 -16.667 -81.333 -50 -108s-83.333 -40 -150 -40z" />
    <glyph glyph-name="afii10103" unicode="&#x456;" horiz-adv-x="256" 
d="M83 0v500h90v-500h-90zM128 576c-17.333 0 -31.666 5.66699 -42.999 17s-17 25.666 -17 42.999s5.66699 31.666 17 42.999s25.666 17 42.999 17s31.666 -5.66699 42.999 -17s17 -25.666 17 -42.999s-5.66699 -31.666 -17 -42.999s-25.666 -17 -42.999 -17z" />
    <glyph glyph-name="afii10104" unicode="&#x457;" horiz-adv-x="256" 
d="M83 0v500h90v-500h-90zM33 575c-16.667 0 -30.834 5.83301 -42.501 17.5s-17.5 25.834 -17.5 42.501s5.83301 30.834 17.5 42.501s25.834 17.5 42.501 17.5s30.834 -5.83301 42.501 -17.5s17.5 -25.834 17.5 -42.501s-5.83301 -30.834 -17.5 -42.501
s-25.834 -17.5 -42.501 -17.5zM223 575c-16.667 0 -30.834 5.83301 -42.501 17.5s-17.5 25.834 -17.5 42.501s5.83301 30.834 17.5 42.501s25.834 17.5 42.501 17.5s30.834 -5.83301 42.501 -17.5s17.5 -25.834 17.5 -42.501s-5.83301 -30.834 -17.5 -42.501
s-25.834 -17.5 -42.501 -17.5z" />
    <glyph glyph-name="afii10105" unicode="&#x458;" horiz-adv-x="256" 
d="M-27 -200v82h33c26.667 0 46.167 8 58.5 24s18.5 42.333 18.5 79v515h90v-515c0 -66 -13.167 -113.333 -39.5 -142s-68.833 -43 -127.5 -43h-33zM128 576c-17.333 0 -31.666 5.66699 -42.999 17s-17 25.666 -17 42.999s5.66699 31.666 17 42.999s25.666 17 42.999 17
s31.666 -5.66699 42.999 -17s17 -25.666 17 -42.999s-5.66699 -31.666 -17 -42.999s-25.666 -17 -42.999 -17z" />
    <glyph glyph-name="afii10106" unicode="&#x459;" horiz-adv-x="800" 
d="M15 -8v86h15c53.333 0 80 59 80 177v245h357v-160h93c143.333 0 215 -56.667 215 -170s-71.667 -170 -215 -170h-183v418h-177v-163c0 -94.667 -14.5 -162.167 -43.5 -202.5s-71.167 -60.5 -126.5 -60.5h-15zM565 258h-98v-176h98c42 0 72.167 7.33301 90.5 22
s27.5 36.667 27.5 66s-9.16699 51.333 -27.5 66s-48.5 22 -90.5 22z" />
    <glyph glyph-name="afii10107" unicode="&#x45a;" horiz-adv-x="820" 
d="M410 0v234h-245v-234h-90v500h90v-184h245v184h90v-184h95c133.333 0 200 -52.667 200 -158c0 -50 -16.5 -88.833 -49.5 -116.5s-83.167 -41.5 -150.5 -41.5h-185zM600 234h-100v-152h100c36.667 0 63 6.33301 79 19s24 31.667 24 57s-8 44.333 -24 57s-42.333 19 -79 19
z" />
    <glyph glyph-name="afii10108" unicode="&#x45b;" horiz-adv-x="575" 
d="M415 0l-0.000976562 265c0 84.667 -38.333 127 -115 127c-40 0 -72.167 -11.333 -96.5 -34s-37.166 -52 -38.499 -88v-270h-90v524h-85v72h85v104h90v-104h160v-72h-160v-113c34 44.667 84 67 150 67c58.667 0 105 -18.5 139 -55.5s51 -89.5 51 -157.5v-265h-90z" />
    <glyph glyph-name="afii10109" unicode="&#x45c;" horiz-adv-x="510" 
d="M385 0l-151 219h-69v-219h-90v500h90v-199h70l134 199h106l-166 -238l186 -262h-110zM221 560l116 150h104l-130 -150h-90z" />
    <glyph glyph-name="uni045D" unicode="&#x45d;" horiz-adv-x="565" 
d="M255 -8c-56 0 -100.833 18.668 -134.5 56.001s-50.5 89.666 -50.5 156.999v295h90v-295c0 -42 9.66699 -73.667 29 -95s46.333 -32 81 -32c38 0 68.833 11.167 92.5 33.5s36.167 51.5 37.5 87.5v301h90v-500h-70l-9 69c-36.667 -51.333 -88.667 -77 -156 -77z
M235 560.001l-130 150h104l116 -150h-90z" />
    <glyph glyph-name="afii10110" unicode="&#x45e;" horiz-adv-x="520" 
d="M140 -200l77 200l-202 500h98l152 -387l144 387h96l-269 -700h-96zM261 562c-44 0 -78.333 12.167 -103 36.5s-37 58.166 -37 101.499h78c0 -50.667 20.667 -76 62 -76c42.667 0 64 25.333 64 76h76c0 -43.333 -12.333 -77.166 -37 -101.499s-59 -36.5 -103 -36.5z" />
    <glyph glyph-name="afii10193" unicode="&#x45f;" horiz-adv-x="560" 
d="M75 0v500h90v-418h230v418h90v-500h-161v-130h-88v130h-161z" />
    <glyph glyph-name="afii10146" unicode="&#x462;" horiz-adv-x="635" 
d="M10 523v73.999h105v103h94v-103h161v-74h-161v-75h136c86 0 150.833 -19.667 194.5 -59s65.5 -94.666 65.5 -165.999c0 -148.667 -86.667 -223 -260 -223h-230v523h-105zM350 361.999h-141v-276h141c55.333 0 95.5 11.333 120.5 34s37.5 57 37.5 103
c0 92.667 -52.667 139 -158 139z" />
    <glyph glyph-name="afii10194" unicode="&#x463;" horiz-adv-x="540" 
d="M10 419v81h105v200h90v-200h150v-81h-150v-79h95c143.333 0 215 -56.667 215 -170s-71.667 -170 -215 -170h-185v419h-105zM305 258h-100v-176h100c42 0 72.167 7.33301 90.5 22s27.5 36.667 27.5 66s-9.16699 51.333 -27.5 66s-48.5 22 -90.5 22z" />
    <glyph glyph-name="afii10147" unicode="&#x472;" horiz-adv-x="710" 
d="M355 -8c-90 0 -162.5 29.333 -217.5 88s-82.5 139 -82.5 241v58c0 101.333 27.667 181.5 83 240.5s127.666 88.5 216.999 88.5c90 0 162.5 -29.333 217.5 -88s82.5 -139 82.5 -241v-58c0 -101.333 -27.667 -181.5 -83 -240.5s-127.666 -88.5 -216.999 -88.5zM455 360
c26.667 0 60.6709 10.333 102.004 31c-2.66699 71.333 -22.334 127 -59.001 167s-84.334 60 -143.001 60c-59.333 0 -107.333 -19.667 -144 -59s-56 -95 -58 -167c2 2 7.66699 5 17 9s22.166 8.16699 38.499 12.5s31.5 6.5 45.5 6.5c36 0 73.167 -10 111.5 -30
s68.166 -30 89.499 -30zM355.004 82c58.667 0 106.33 19.5 142.997 58.5s56.334 94.5 59.001 166.5c-44.667 -18 -78.667 -27 -102 -27c-36 0 -73.167 10 -111.5 30s-68.166 30 -89.499 30c-14 0 -29.167 -2.5 -45.5 -7.5s-28.666 -9.66699 -36.999 -14
s-14.5 -7.83301 -18.5 -10.5c2 -71.333 21.667 -126.833 59 -166.5s85 -59.5 143 -59.5z" />
    <glyph glyph-name="afii10195" unicode="&#x473;" horiz-adv-x="550" 
d="M275 -8c-70.667 0 -126.667 21.333 -168 64s-62 101 -62 175v38c0 73.333 20.833 131.5 62.5 174.5s97.5 64.5 167.5 64.5c70.667 0 126.667 -21.333 168 -64s62 -101 62 -175v-38c0 -73.333 -20.833 -131.5 -62.5 -174.5s-97.5 -64.5 -167.5 -64.5zM344 268
c18.667 0 40.667 6.33496 66 19.002c-3.33301 43.333 -17 76.666 -41 99.999s-55.333 35 -94 35c-39.333 0 -70.833 -11.333 -94.5 -34s-37.167 -55.334 -40.5 -98.001c20 12 42 18 66 18c24.667 0 50.5 -6.66699 77.5 -20s47.167 -20 60.5 -20zM275 78.002
c39.333 0 70.833 11.168 94.5 33.501s37.167 55.166 40.5 98.499c-24 -12 -46 -18 -66 -18c-25.333 0 -51.333 6.66699 -78 20s-46.667 20 -60 20c-25.333 0 -47.333 -6.66699 -66 -20c2.66699 -43.333 16 -76.5 40 -99.5s55.667 -34.5 95 -34.5z" />
    <glyph glyph-name="afii10148" unicode="&#x474;" horiz-adv-x="710" 
d="M280 0l-260.001 700h104l209 -577l126 419c21.333 69.333 45.333 114.333 72 135s71.334 31 134.001 31h45v-86h-45c-35.333 0 -59.833 -5.5 -73.5 -16.5s-25.5 -32.167 -35.5 -63.5l-166 -542h-110z" />
    <glyph glyph-name="afii10196" unicode="&#x475;" horiz-adv-x="555" 
d="M205 0l-190 499.999h98l148 -402l77 244c21.333 68.667 44.833 113.5 70.5 134.5s66.167 31.5 121.5 31.5h35v-82h-35c-30.667 0 -53.167 -5.66699 -67.5 -17s-26.833 -33.666 -37.5 -66.999l-110 -342h-110z" />
    <glyph glyph-name="afii10050" unicode="&#x490;" horiz-adv-x="515" 
d="M80 0v700h323v120h92v-206h-321v-614h-94z" />
    <glyph glyph-name="afii10098" unicode="&#x491;" horiz-adv-x="430" 
d="M75 0v500h247v100h88v-182h-245v-418h-90z" />
    <glyph glyph-name="uni0492" unicode="&#x492;" horiz-adv-x="540" 
d="M10 283v74h95v343h415v-86h-321v-257h161v-74h-161v-283h-94v283h-95z" />
    <glyph glyph-name="uni0493" unicode="&#x493;" horiz-adv-x="450" 
d="M10 186v68h85v246h335v-82h-245v-164h125v-68h-125v-186h-90v186h-85z" />
    <glyph glyph-name="uni0496" unicode="&#x496;" horiz-adv-x="945" 
d="M781 0l-184 316h-90v-316h-94v316h-90l-186 -316h-112l215 357l-195 343h112l166 -298h90v298h94v-298h90l168 298h110l-194 -338l163 -276h91v-236h-92v150h-62z" />
    <glyph glyph-name="uni0497" unicode="&#x497;" horiz-adv-x="760" 
d="M595 0l-120 219h-70v-219h-90v219h-70l-122 -219h-108l150 257l-131 243h108l102 -199h71v199h90v-199h69l105 199h106l-130 -237l103 -181h92v-211h-90v129h-65z" />
    <glyph glyph-name="uni0498" unicode="&#x498;" horiz-adv-x="595" 
d="M248 -149l0.000976562 145.001c-126 16 -193.667 92.333 -203 229h98c5.33301 -48 20.666 -83.833 45.999 -107.5s62.333 -35.5 111 -35.5c48 0 84.5 10.667 109.5 32s37.5 50 37.5 86s-12.5 64.5 -37.5 85.5s-61.5 31.5 -109.5 31.5h-85v86h85
c43.333 0 76.166 9.66699 98.499 29s33.5 45.666 33.5 78.999s-11.167 59.5 -33.5 78.5s-55.166 28.5 -98.499 28.5c-84.667 0 -132 -41 -142 -123h-98c5.33301 67.333 28.333 119.666 69 156.999s97.667 56 171 56c72.667 0 129.167 -17.667 169.5 -53
s60.5 -81.666 60.5 -138.999c0 -71.333 -30 -123 -90 -155c70 -32 105 -87.333 105 -166c0 -54.667 -17.667 -100.167 -53 -136.5s-85.333 -57.833 -150 -64.5v-143h-94z" />
    <glyph glyph-name="uni0499" unicode="&#x499;" horiz-adv-x="485" 
d="M240 508c60.667 0 106.667 -12.999 138 -38.999s47 -60.667 47 -104c0 -50.667 -21.333 -87.334 -64 -110.001c52.667 -23.333 79 -61.666 79 -114.999c0 -40 -13.333 -73 -40 -99s-66.667 -41.667 -120 -47v-124h-90v125c-98 12.667 -151.333 66 -160 160h92
c5.33301 -26.667 16.833 -46.5 34.5 -59.5s45.5 -19.5 83.5 -19.5c72 0 108 23 108 69s-36 69 -108 69h-55v82h55c62 0 93 21.333 93 64s-31 64 -93 64c-32 0 -55.833 -5.83301 -71.5 -17.5s-26.167 -28.834 -31.5 -51.501h-92c5.33301 48 24 85.5 56 112.5
s78.333 40.5 139 40.5z" />
    <glyph glyph-name="uni049A" unicode="&#x49a;" horiz-adv-x="655" 
d="M482 0l-229 317h-89v-317h-94v700h94v-297h91l211 297h114l-245 -339l202 -275h108v-236h-92v150h-71z" />
    <glyph glyph-name="uni049B" unicode="&#x49b;" horiz-adv-x="545" 
d="M385 0l-151 219h-69v-219h-90v500h90v-199h70l134 199h106l-166 -238l128 -180h98v-211h-90v129h-60z" />
    <glyph glyph-name="uni049C" unicode="&#x49c;" horiz-adv-x="705" 
d="M226 205v112h-52v-317h-94v700h94v-297h52v122h78v-122h31l211 297h114l-245 -339l265 -361h-118l-229 317h-29v-112h-78z" />
    <glyph glyph-name="uni049D" unicode="&#x49d;" horiz-adv-x="580" 
d="M208 125v94h-43v-219h-90v500h90v-199h43v104h74v-104h23l134 199h106l-166 -238l186 -262h-110l-151 219h-22v-94h-74z" />
    <glyph glyph-name="uni04A0" unicode="&#x4a0;" horiz-adv-x="750" 
d="M20 614v86h269v-297h91l211 297h114l-245 -339l265 -361h-118l-229 317h-89v-317h-94v614h-175z" />
    <glyph glyph-name="uni04A1" unicode="&#x4a1;" horiz-adv-x="585" 
d="M10 419v81h230v-199h70l134 199h106l-166 -238l186 -262h-110l-151 219h-69v-219h-90v419h-140z" />
    <glyph glyph-name="uni04A2" unicode="&#x4a2;" horiz-adv-x="735" 
d="M536 0v317h-362v-317h-94v700h94v-297h362v297h94v-614h85v-236h-94v150h-85z" />
    <glyph glyph-name="uni04A3" unicode="&#x4a3;" horiz-adv-x="595" 
d="M415 0v214h-250v-214h-90v500h90v-204h250v204h90v-418h75v-211h-90v129h-75z" />
    <glyph glyph-name="uni04A4" unicode="&#x4a4;" horiz-adv-x="975" 
d="M536 0v317h-362v-317h-94v700h94v-297h362v297h419v-86h-325v-614h-94z" />
    <glyph glyph-name="uni04A5" unicode="&#x4a5;" horiz-adv-x="770" 
d="M410 0v214h-245v-214h-90v500h90v-204h245v204h340v-82h-250v-418h-90z" />
    <glyph glyph-name="uni04AA" unicode="&#x4aa;" horiz-adv-x="670" 
d="M303 -150l-0.00195312 144.998c-75.333 10 -135.5 43.667 -180.5 101s-67.5 132.333 -67.5 225v58c0 101.333 27.333 181.5 82 240.5s125.667 88.5 213 88.5c74 0 135.667 -20.667 185 -62s79.333 -91.666 90 -150.999h-102c-10.667 34.667 -31.167 63.834 -61.5 87.501
s-67.5 35.5 -111.5 35.5c-58 0 -105.333 -21 -142 -63s-55 -100.667 -55 -176v-58c0 -74.667 18.333 -133.167 55 -175.5s84 -63.5 142 -63.5c45.333 0 82.833 13 112.5 39s49.834 60.667 60.501 104h102c-9.33301 -60 -34.166 -111 -74.499 -153s-91.5 -67.333 -153.5 -76
v-146h-94z" />
    <glyph glyph-name="uni04AB" unicode="&#x4ab;" horiz-adv-x="505" 
d="M227 -130l0.00195312 124.998c-57.333 8 -102 32.5 -134 73.5s-48 95.167 -48 162.5v38c0 74.667 20.167 133.167 60.5 175.5s95.166 63.5 164.499 63.5c56 0 101.5 -14.167 136.5 -42.5s57.833 -65.166 68.5 -110.499h-96c-19.333 44.667 -57.333 67 -114 67
c-38.667 0 -69.334 -13 -92.001 -39s-34 -64 -34 -114v-38c0 -49.333 11.5 -87.166 34.5 -113.499s53.5 -39.5 91.5 -39.5c59.333 0 97.333 25.667 114 77h96c-8.66699 -42.667 -26.5 -78 -53.5 -106s-61.833 -45.667 -104.5 -53v-126h-90z" />
    <glyph glyph-name="uni04AE" unicode="&#x4ae;" horiz-adv-x="650" 
d="M283 0v245l-263 455h108l202 -355l196 355h104l-253 -455v-245h-94z" />
    <glyph glyph-name="uni04AF" unicode="&#x4af;" horiz-adv-x="510" 
d="M215 -200v200l-200 500h98l148 -386l138 386h96l-190 -500v-200h-90z" />
    <glyph glyph-name="uni04B0" unicode="&#x4b0;" horiz-adv-x="650" 
d="M120 171v74h163l-263 455h108l202 -355l196 355h104l-253 -455h153v-74h-153v-171h-94v171h-163z" />
    <glyph glyph-name="uni04B1" unicode="&#x4b1;" horiz-adv-x="510" 
d="M84 -72v72h131l-200 500h98l148 -386l138 386h96l-190 -500h129v-72h-129v-128h-90v128h-131z" />
    <glyph glyph-name="uni04B2" unicode="&#x4b2;" horiz-adv-x="675" 
d="M509 0l-185 286l-185 -286h-114l239 363l-219 337h113l168 -257l167 257h112l-219 -333l183 -281h96v-236h-92v150h-64z" />
    </font>
</defs>
</svg>
